<svg xmlns="http://www.w3.org/2000/svg" viewBox="0 0 88.6 93.82">
    <defs>
        <style>.cls-1{fill:#bababa;}.cls-2{fill:#636363;}</style>
    </defs>
    <g id="Layer_2" data-name="Layer 2">
        <g id="Layer_1-2" data-name="Layer 1">
            <path class="cls-1"
                d="M72.61,92.31a257.82,257.82,0,0,1-56.9-.13A15.21,15.21,0,0,1,2.15,79.31a237.6,237.6,0,0,1,.16-64.92A15.2,15.2,0,0,1,15.9,1.53a261.07,261.07,0,0,1,56.79,0A15.26,15.26,0,0,1,86.24,14.24c3.36,21.45,3,43.26-.25,65.48A15.11,15.11,0,0,1,72.61,92.31Z" />
            <path class="cls-2"
                d="M78.51,52.53A14.88,14.88,0,0,1,62,65.66l-.22,0-4.55-.51A13.49,13.49,0,0,0,45.58,69.6l-4.13,4.74a14.91,14.91,0,0,1-13.09,5A14.5,14.5,0,0,1,17.05,72a38.31,38.31,0,0,1-4.33-22.43l.43-3.89c1.82-17.42,17.92-30,36-28.12s31.21,17.54,29.4,35Z" />
            <path class="cls-1"
                d="M19.48,46.38A2.83,2.83,0,0,0,25.1,47h0a2.83,2.83,0,0,0-5.62-.63h0" />
            <path class="cls-1" d="M21.18,62.8a2.83,2.83,0,0,0,5.62.63h0a2.83,2.83,0,0,0-5.62-.63h0" />
            <path class="cls-1"
                d="M27.51,30.76a2.83,2.83,0,0,0,5.62.63h0a2.83,2.83,0,0,0-5.62-.63h0" />
            <path class="cls-1" d="M45.6,26.5a2.82,2.82,0,0,0,5.61.63h0a2.82,2.82,0,0,0-5.61-.63h0" />
            <path class="cls-1" d="M60.56,34.65a2.82,2.82,0,1,0,3.11-2.39,2.78,2.78,0,0,0-3.11,2.39" />
            <path class="cls-1" d="M65.21,49.11a2.83,2.83,0,1,0,3.11-2.4,2.79,2.79,0,0,0-3.11,2.4h0" />
        </g>
    </g>
</svg>