<svg xmlns="http://www.w3.org/2000/svg" viewBox="0 0 76.57 75.38">
    <defs>
        <style>
            .cls-1,.cls-2{fill:none;stroke:#000;stroke-miterlimit:10;}.cls-1{stroke-width:7px;}.cls-2{stroke-width:5px;}</style>
    </defs>
    <g id="Layer_2" data-name="Layer 2">
        <g id="Layer_1-2" data-name="Layer 1">
            <path class="cls-1"
                d="M73,34.63c.7,8.53-5.91,16-14.75,16.74l-.23,0-4.84.32a14.25,14.25,0,0,0-11.36,6.83l-3.43,5.7a15.79,15.79,0,0,1-12.73,7.59,15.36,15.36,0,0,1-13.15-5.52,40.55,40.55,0,0,1-8.68-22.6l-.26-4.13C2.25,21.08,16.71,5,35.88,3.59S71.68,16.1,73,34.6Z" />
            <path class="cls-2"
                d="M17.41,49.16a2.54,2.54,0,0,0,5.07-.32h0a2.54,2.54,0,0,0-5.07.33h0" />
            <path class="cls-2" d="M15.16,31a2.54,2.54,0,0,0,5.07-.33h0a2.54,2.54,0,0,0-5.07.32h0" />
            <path class="cls-2"
                d="M28.32,17.76a2.54,2.54,0,0,0,5.06-.33h0a2.54,2.54,0,0,0-5.06.32h0" />
            <path class="cls-2" d="M45.87,20.21a2.54,2.54,0,1,0,2.37-2.61,2.49,2.49,0,0,0-2.37,2.61" />
            <path class="cls-2" d="M56.2,33.93a2.54,2.54,0,1,0,2.38-2.6,2.5,2.5,0,0,0-2.38,2.6h0" />
        </g>
    </g>
</svg>