<svg xmlns="http://www.w3.org/2000/svg" viewBox="0 0 88.18 92.52"><defs><style>.cls-1{fill:#636363;}.cls-2{fill:#bababa;}</style></defs><g id="Layer_2" data-name="Layer 2"><g id="Layer_1-2" data-name="Layer 1"><path class="cls-1" d="M67.35,41.83H44.56a4.91,4.91,0,0,1-3.49-1.45L39.6,38.92a5,5,0,0,1-1.44-3.49V6.4A5,5,0,0,1,39.6,2.91l1.47-1.46A4.91,4.91,0,0,1,44.56,0H67.35a20.92,20.92,0,0,1,.22,41.83Z"/><path class="cls-1" d="M39.46,4.36V37.65H35.1A16.64,16.64,0,0,1,18.49,22h.57a1,1,0,1,0,0-2h-.57A16.64,16.64,0,0,1,35.1,4.36Z"/><path class="cls-1" d="M50.32,39.7H71.11L79.43,73H58.6Z"/><path class="cls-1" d="M54.39,71.77h25a8.32,8.32,0,0,1,8.32,8.33h0v6.57A2.19,2.19,0,0,1,86,88.81c-15.15,3.48-30.65,5.87-38.37.81a3.38,3.38,0,0,1-1.54-2.81V80.1a8.33,8.33,0,0,1,8.33-8.33Z"/><rect class="cls-2" x="54.23" y="4.36" width="3.23" height="20.05" rx="1.61" transform="translate(-0.81 3.65) rotate(-3.71)"/><rect class="cls-2" x="65.26" y="4.34" width="3.23" height="20.05" rx="1.61" transform="matrix(1, -0.06, 0.06, 1, -0.79, 4.36)"/><path class="cls-1" d="M20.05,21a1,1,0,0,1-1,1h-.57q0-.49,0-1c0-.33,0-.65,0-1h.57A1,1,0,0,1,20.05,21Z"/><path class="cls-2" d="M18.46,21q0,.49,0,1H1a1,1,0,1,1,0-2h17.5C18.47,20.35,18.46,20.67,18.46,21Z"/></g></g></svg>