<svg xmlns="http://www.w3.org/2000/svg" viewBox="0 0 76.1 79.51"><defs><style>.cls-1,.cls-2{fill:none;stroke:#000;stroke-miterlimit:10;}.cls-1{stroke-width:7px;}.cls-2{stroke-width:4px;}</style></defs><g id="Layer_2" data-name="Layer 2"><g id="Layer_1-2" data-name="Layer 1"><path class="cls-1" d="M56.28,36.28H38.42a3.9,3.9,0,0,1-2.74-1.13L34.54,34a3.87,3.87,0,0,1-1.14-2.74V8.52a3.87,3.87,0,0,1,1.14-2.74l1.14-1.15A3.9,3.9,0,0,1,38.42,3.5H56.28a16.39,16.39,0,0,1,.17,32.78Z"/><path class="cls-1" d="M18,20.73A13,13,0,0,0,31,33h2.82"/><path class="cls-1" d="M18,19.19A13,13,0,0,1,31,6.91h2.75"/><line class="cls-1" x1="65.51" y1="59.75" x2="59.56" y2="35.95"/><line class="cls-1" x1="49.19" y1="59.75" x2="43.35" y2="36.28"/><path class="cls-1" d="M46.12,59.75H65.69a6.52,6.52,0,0,1,6.52,6.52h0v5.15a1.72,1.72,0,0,1-1.34,1.68c-11.87,2.73-24,4.6-30.07.63a2.63,2.63,0,0,1-1.2-2.2V66.27a6.52,6.52,0,0,1,6.52-6.52Z"/><rect class="cls-2" x="46" y="6.91" width="2.53" height="15.71" rx="1.26" transform="translate(-0.86 3.09) rotate(-3.71)"/><rect class="cls-2" x="54.64" y="6.9" width="2.53" height="15.71" rx="1.26" transform="translate(-0.84 3.65) rotate(-3.71)"/><path class="cls-1" d="M18,20.73q0-.39,0-.78c0-.26,0-.51,0-.76"/><path class="cls-1" d="M18,20c0,.25,0,.51,0,.77H4.28a.77.77,0,1,1,0-1.54H18C18,19.45,18,19.7,18,20Z"/></g></g></svg>