<svg xmlns="http://www.w3.org/2000/svg" viewBox="0 0 68.34 64.63"><defs><style>.cls-1{fill:none;stroke:#000;stroke-miterlimit:10;stroke-width:7px;}</style></defs><g id="Layer_2" data-name="Layer 2"><g id="Layer_1-2" data-name="Layer 1"><path class="cls-1" d="M4,30.2A178.72,178.72,0,0,0,4,57.49a2.94,2.94,0,0,0,2.86,3q27.87,1.26,54.6,0a2.88,2.88,0,0,0,2.81-3C65,45.94,65,37,64.29,30.21a3,3,0,0,0-1-2.25C53.31,18.08,43.8,9.25,36,4.19a2.76,2.76,0,0,0-3.65,0C23.52,10.1,14.38,18.25,5,28A3,3,0,0,0,4,30.2Z"/><path class="cls-1" d="M34.28,61.13H39a2.68,2.68,0,0,0,.4,0c.06,0,.11,0,.13,0a2.29,2.29,0,0,0,2.22-1.82,104.7,104.7,0,0,0,0-15.44c-.06-1-1.21-1.81-2.62-1.87-3.76-.16-7.4-.16-10.9,0-1.39.07-2.51.84-2.62,1.83a77.71,77.71,0,0,0,0,15.55,2.34,2.34,0,0,0,2.22,1.78h0"/></g></g></svg>