<svg xmlns="http://www.w3.org/2000/svg" viewBox="0 0 91.39 92.89">
    <defs>
        <style>
            .cls-1{fill:#bababa;}.cls-2{fill:#666;}.cls-3{fill:#636363;}

        </style>
    </defs>
    <g id="Layer_2" data-name="Layer 2">
        <g id="Layer_1-2" data-name="Layer 1">
            <path class="cls-1"
                d="M5.66,51.8a237.06,237.06,0,0,0,0,36.26,3.89,3.89,0,0,0,3.8,4q37,1.7,72.55,0a3.81,3.81,0,0,0,3.72-3.91c1-15.43,1-27.31,0-36.33a4,4,0,0,0-1.34-3C71.15,35.7,58.51,24,48.12,17.24a3.66,3.66,0,0,0-4.84,0C31.56,25.1,19.43,35.93,7,48.82A4,4,0,0,0,5.66,51.8Z" />
            <path class="cls-2"
                d="M6.67,43.26c8.83-9.77,20.68-20.71,36.41-33.19a3.35,3.35,0,0,1,4.58,0A209.06,209.06,0,0,1,84.8,43.16a3.79,3.79,0,0,0,5.59-.53h0a4.76,4.76,0,0,0-.49-6.39C76.73,23.54,64.14,12.15,52.4,2.73a10.28,10.28,0,0,0-14,.06C27.77,11,15.09,22.9,1.48,36.35A4.79,4.79,0,0,0,1.19,43h0A3.81,3.81,0,0,0,6.67,43.26Z" />
            <path class="cls-3"
                d="M55,92.89H40c-2,0-3.74-1.12-3.88-2.57a108.71,108.71,0,0,1,0-21.94c.14-1.4,1.73-2.49,3.69-2.58,4.94-.21,10.08-.19,15.38,0,2,.09,3.6,1.21,3.71,2.64a152.38,152.38,0,0,1,0,21.79C58.79,91.73,57.07,92.89,55,92.89Z" />
        </g>
    </g>
</svg>