<svg xmlns="http://www.w3.org/2000/svg" viewBox="0 0 74.82 66.01"><defs><style>.cls-1,.cls-2{fill:none;stroke:#000;stroke-miterlimit:10;}.cls-1{stroke-width:7px;}.cls-2{stroke-width:5px;}</style></defs><g id="Layer_2" data-name="Layer 2"><g id="Layer_1-2" data-name="Layer 1"><path class="cls-1" d="M70.21,52.38a8.49,8.49,0,0,1-.52,2,5.54,5.54,0,0,1-.39.86,11.66,11.66,0,0,1-9.22,6,203.19,203.19,0,0,1-45.32,0c-5.41-.6-9.6-4.33-10.14-9q-.58-5-.86-10.08h0c0-.46,0-.93-.07-1.4a164.52,164.52,0,0,1,.93-27c.55-4.64,4.77-8.33,10.19-9A191.87,191.87,0,0,1,60,4.82c5.4.64,9.58,4.35,10.12,9A162.4,162.4,0,0,1,70.21,52.38Z"/><rect class="cls-2" x="49.66" y="16.06" width="8.98" height="8.98" rx="4.01"/><path class="cls-1" d="M69.3,55.28a11.66,11.66,0,0,1-9.22,6,203.19,203.19,0,0,1-45.32,0c-5.41-.6-9.6-4.33-10.14-9q-.58-5-.86-10.08h0C5.6,37.51,11,26.63,20.84,30.27c11,4.06,16.15,15.41,17.2,18a2.35,2.35,0,0,0,1.4,1.34A2.59,2.59,0,0,0,42.38,49a2.55,2.55,0,0,0,.42-.45c2-2.67,11.66-9.27,18.66-3.11A36.86,36.86,0,0,1,69.3,55.28Z"/></g></g></svg>