<svg xmlns="http://www.w3.org/2000/svg" viewBox="0 0 75.91 66.64"><defs><style>.cls-1{fill:none;stroke:#000;stroke-miterlimit:10;stroke-width:7px;}</style></defs><g id="Layer_2" data-name="Layer 2"><g id="Layer_1-2" data-name="Layer 1"><path class="cls-1" d="M59.47,62.35a255.86,255.86,0,0,1-41.33-.1A13.42,13.42,0,0,1,7.75,54.4c-5.7-14.76-5.56-28.87-.23-42.26a13.69,13.69,0,0,1,10.77-7.9,310.44,310.44,0,0,1,39.87-.19c5,.32,10.4,4.46,11.91,9.27,3.32,10.61,3.14,24.09-.7,40.51A11.09,11.09,0,0,1,59.47,62.35Z"/><path class="cls-1" d="M28.43,27.52v11.6a3.54,3.54,0,0,0,4.79,3.31l15.34-5.8a3.54,3.54,0,0,0,0-6.62l-15.34-5.8A3.54,3.54,0,0,0,28.43,27.52Z"/></g></g></svg>