<svg xmlns="http://www.w3.org/2000/svg" viewBox="0 0 65.1 73.22"><defs><style>.cls-1,.cls-2{fill:none;stroke:#000;stroke-linecap:round;stroke-linejoin:round;}.cls-1{stroke-width:7px;}.cls-2{stroke-width:5px;}</style></defs><g id="Layer_2" data-name="Layer 2"><g id="Layer_1-2" data-name="Layer 1"><path class="cls-1" d="M60.64,21.38a.11.11,0,0,0,0,0,134.53,134.53,0,0,1-.73,37A12.58,12.58,0,0,1,48.66,68.88a160.71,160.71,0,0,1-32.45,0A12.55,12.55,0,0,1,5,58.37a145.76,145.76,0,0,1,.23-43.08A12.44,12.44,0,0,1,15.5,5,98.76,98.76,0,0,1,44,4.18l.79.09c.74.09,1.47.19,2.21.3a29.45,29.45,0,0,1,4,2.82Z"/><path class="cls-1" d="M47,4.57S40.47,13.29,42.93,19s17.73,2.47,17.73,2.47S53.41,7,47,4.57Z"/><rect class="cls-2" x="15.94" y="36.2" width="24.78" height="6.28" rx="2.26"/><rect class="cls-2" x="15.94" y="49.84" width="33.22" height="6.28" rx="2.26"/></g></g></svg>