<svg width="40" height="31" viewBox="0 0 40 31" fill="none" xmlns="http://www.w3.org/2000/svg">
<path d="M33.8617 2.92579C31.3122 1.75599 28.5783 0.894131 25.7198 0.400508C25.6678 0.390981 25.6158 0.414789 25.589 0.462406C25.2374 1.08776 24.8479 1.9036 24.5752 2.54483C21.5007 2.08455 18.442 2.08455 15.4305 2.54483C15.1577 1.88934 14.7541 1.08776 14.401 0.462406C14.3741 0.416378 14.3221 0.39257 14.2701 0.400508C11.4132 0.892553 8.67927 1.75441 6.12823 2.92579C6.10614 2.93531 6.08721 2.9512 6.07465 2.97182C0.888986 10.7191 -0.531584 18.2759 0.1653 25.7391C0.168453 25.7756 0.18895 25.8105 0.21733 25.8327C3.63868 28.3453 6.95285 29.8706 10.2055 30.8817C10.2575 30.8976 10.3127 30.8785 10.3458 30.8357C11.1152 29.7849 11.8011 28.6771 12.3891 27.512C12.4238 27.4438 12.3907 27.3628 12.3198 27.3358C11.2319 26.9231 10.196 26.42 9.19955 25.8486C9.12073 25.8026 9.11442 25.6898 9.18693 25.6359C9.39662 25.4787 9.60637 25.3153 9.80659 25.1502C9.84282 25.12 9.8933 25.1137 9.93589 25.1327C16.4821 28.1215 23.5692 28.1215 30.0383 25.1327C30.0808 25.1121 30.1313 25.1185 30.1691 25.1486C30.3694 25.3137 30.5791 25.4787 30.7904 25.6359C30.8629 25.6898 30.8581 25.8026 30.7793 25.8486C29.7829 26.4311 28.747 26.9231 27.6575 27.3342C27.5866 27.3612 27.555 27.4438 27.5897 27.512C28.1904 28.6754 28.8763 29.7833 29.6315 30.8341C29.663 30.8785 29.7198 30.8976 29.7718 30.8817C33.0402 29.8706 36.3544 28.3453 39.7757 25.8327C39.8057 25.8105 39.8246 25.7772 39.8278 25.7407C40.6618 17.1124 38.4308 9.61757 33.9137 2.9734C33.9026 2.9512 33.8838 2.93531 33.8617 2.92579ZM13.3667 21.1948C11.3958 21.1948 9.77189 19.3854 9.77189 17.1633C9.77189 14.9411 11.3643 13.1317 13.3667 13.1317C15.3848 13.1317 16.993 14.957 16.9615 17.1633C16.9615 19.3854 15.369 21.1948 13.3667 21.1948ZM26.6579 21.1948C24.6871 21.1948 23.0632 19.3854 23.0632 17.1633C23.0632 14.9411 24.6555 13.1317 26.6579 13.1317C28.6761 13.1317 30.2842 14.957 30.2527 17.1633C30.2527 19.3854 28.6761 21.1948 26.6579 21.1948Z" fill="#4DF4C8"/>
<path d="M33.8617 2.92579C31.3122 1.75599 28.5783 0.894131 25.7198 0.400508C25.6678 0.390981 25.6158 0.414789 25.589 0.462406C25.2374 1.08776 24.8479 1.9036 24.5752 2.54483C21.5007 2.08455 18.442 2.08455 15.4305 2.54483C15.1577 1.88934 14.7541 1.08776 14.401 0.462406C14.3741 0.416378 14.3221 0.39257 14.2701 0.400508C11.4132 0.892553 8.67927 1.75441 6.12823 2.92579C6.10614 2.93531 6.08721 2.9512 6.07465 2.97182C0.888986 10.7191 -0.531584 18.2759 0.1653 25.7391C0.168453 25.7756 0.18895 25.8105 0.21733 25.8327C3.63868 28.3453 6.95285 29.8706 10.2055 30.8817C10.2575 30.8976 10.3127 30.8785 10.3458 30.8357C11.1152 29.7849 11.8011 28.6771 12.3891 27.512C12.4238 27.4438 12.3907 27.3628 12.3198 27.3358C11.2319 26.9231 10.196 26.42 9.19955 25.8486C9.12073 25.8026 9.11442 25.6898 9.18693 25.6359C9.39662 25.4787 9.60637 25.3153 9.80659 25.1502C9.84282 25.12 9.8933 25.1137 9.93589 25.1327C16.4821 28.1215 23.5692 28.1215 30.0383 25.1327C30.0808 25.1121 30.1313 25.1185 30.1691 25.1486C30.3694 25.3137 30.5791 25.4787 30.7904 25.6359C30.8629 25.6898 30.8581 25.8026 30.7793 25.8486C29.7829 26.4311 28.747 26.9231 27.6575 27.3342C27.5866 27.3612 27.555 27.4438 27.5897 27.512C28.1904 28.6754 28.8763 29.7833 29.6315 30.8341C29.663 30.8785 29.7198 30.8976 29.7718 30.8817C33.0402 29.8706 36.3544 28.3453 39.7757 25.8327C39.8057 25.8105 39.8246 25.7772 39.8278 25.7407C40.6618 17.1124 38.4308 9.61757 33.9137 2.9734C33.9026 2.9512 33.8838 2.93531 33.8617 2.92579ZM13.3667 21.1948C11.3958 21.1948 9.77189 19.3854 9.77189 17.1633C9.77189 14.9411 11.3643 13.1317 13.3667 13.1317C15.3848 13.1317 16.993 14.957 16.9615 17.1633C16.9615 19.3854 15.369 21.1948 13.3667 21.1948ZM26.6579 21.1948C24.6871 21.1948 23.0632 19.3854 23.0632 17.1633C23.0632 14.9411 24.6555 13.1317 26.6579 13.1317C28.6761 13.1317 30.2842 14.957 30.2527 17.1633C30.2527 19.3854 28.6761 21.1948 26.6579 21.1948Z" fill="url(#paint0_linear_717_13)"/>
<defs>
<linearGradient id="paint0_linear_717_13" x1="20" y1="0.398437" x2="20" y2="30.8872" gradientUnits="userSpaceOnUse">
<stop stop-color="#B9FFC4"/>
<stop offset="1" stop-color="#4DF4C8"/>
</linearGradient>
</defs>
</svg>
