<svg width="13" height="14" viewBox="0 0 13 14" fill="none" xmlns="http://www.w3.org/2000/svg">
<g clip-path="url(#clip0_766_50)">
<path d="M1.48254 7.73559C1.71918 7.73832 1.94837 7.81865 2.13483 7.96442C2.32129 8.1102 2.45467 8.31325 2.51447 8.54229C2.68232 9.13764 2.98445 9.68655 3.39756 10.1469C3.81067 10.6072 4.32375 10.9665 4.89745 11.1974C5.47115 11.4284 6.09013 11.5247 6.70684 11.4788C7.32354 11.433 7.92159 11.2464 8.4549 10.9333C8.98822 10.6201 9.44261 10.1888 9.78322 9.67254C10.1238 9.15626 10.3416 8.56877 10.4197 7.95515C10.4978 7.34154 10.4342 6.71824 10.2337 6.13306C10.0333 5.54788 9.70143 5.01643 9.26356 4.57962C8.88906 4.20279 8.44363 3.90386 7.95298 3.70022C7.46234 3.49658 6.93623 3.39226 6.40502 3.39318C6.02821 3.39543 5.65333 3.4473 5.29005 3.54742V0.972793C5.65855 0.911233 6.03142 0.879544 6.40502 0.87793C7.3375 0.878872 8.25909 1.07835 9.10857 1.46304C9.95804 1.84773 10.716 2.40875 11.3319 3.10902C11.9479 3.8093 12.4077 4.63271 12.681 5.52448C12.9543 6.41626 13.0347 7.35606 12.9169 8.28131C12.7206 9.82644 11.9812 11.2514 10.8309 12.3012C9.68055 13.351 8.19441 13.9571 6.63821 14.0113C5.082 14.0655 3.55728 13.5643 2.33674 12.5971C1.1162 11.6299 0.279406 10.2599 -0.0238655 8.73216C-0.0465441 8.61037 -0.0420401 8.48504 -0.0107619 8.36516C0.0205163 8.24529 0.0778323 8.13375 0.157124 8.03857C0.236415 7.9434 0.3357 7.86691 0.447937 7.81452C0.560175 7.76213 0.682584 7.73524 0.806441 7.73559H1.48254Z" fill="black"/>
<path d="M6.12015 4.71044L2.18226 3.69012C2.13978 3.68167 2.10035 3.6617 2.06838 3.63247C2.03641 3.60325 2.01305 3.56585 2.00083 3.52429C1.98861 3.48272 1.98803 3.43858 1.99909 3.39669C2.01016 3.35481 2.03245 3.31687 2.0636 3.28677L5.10009 0.178298C5.16789 0.112972 5.25178 0.0666315 5.3432 0.0441857C5.43462 0.0217399 5.53036 0.0239101 5.62069 0.0504133C5.71102 0.0769165 5.79268 0.126812 5.8575 0.195098C5.92231 0.263384 5.96792 0.347674 5.98969 0.43928L6.76071 4.09346C6.77976 4.1806 6.77616 4.27112 6.75028 4.35647C6.7244 4.44183 6.6771 4.51924 6.61287 4.5811C6.54864 4.64297 6.46963 4.68735 6.38338 4.71C6.29713 4.73265 6.20648 4.73277 6.12015 4.71044Z" fill="black"/>
</g>
<defs>
<clipPath id="clip0_766_50">
<rect width="13" height="14" fill="white"/>
</clipPath>
</defs>
</svg>
