<svg xmlns="http://www.w3.org/2000/svg" viewBox="0 0 223.78 209.92"><defs><style>.cls-1{fill:#fff;}.cls-2{fill:#ddd;}.cls-3,.cls-6{fill:none;}.cls-3,.cls-7{stroke:#000;}.cls-3,.cls-6,.cls-7{stroke-linecap:round;stroke-linejoin:round;}.cls-3{stroke-width:6px;}.cls-4{fill:#4df4c8;}.cls-5{fill:#c5ffed;}.cls-6{stroke:#ffec3e;stroke-width:4px;}.cls-7{stroke-width:2px;}.cls-8{opacity:0.25;}</style></defs><g id="Layer_2" data-name="Layer 2"><g id="Layer_1-2" data-name="Layer 1"><path d="M164.83,68a11.63,11.63,0,0,0,8.78-.53A11.11,11.11,0,0,0,179.42,61a11.87,11.87,0,0,0-.56-8.91,11,11,0,0,0-6.59-5.7,11.67,11.67,0,0,0-9.71,1.13,3,3,0,1,0,3,5.18,6.44,6.44,0,0,1,.63-.36l.37-.19c.29-.15-.23.11-.24.11s.55-.19.69-.23a4.47,4.47,0,0,0,.91-.21s-.62.06-.28,0l.42,0a5.77,5.77,0,0,1,.72,0c.25,0,.49,0,.73,0s-.29,0-.28,0,.45.09.51.1c.24,0,.48.12.71.19s.83.28.42.13.26.14.39.21.48.28.71.43c.44.27-.38-.35.14.1.18.16.36.33.52.5s.19.21.28.31c.27.3-.09.1-.08-.11,0,.14.37.57.45.7s.22.43.33.64-.1-.22-.1-.24a1.67,1.67,0,0,0,.14.39,6.77,6.77,0,0,1,.2.7c0,.11.05.21.07.31s.18.7.06.22,0,.28,0,.43,0,.49,0,.73-.07.5-.05.73c0-.09.13-.71,0-.19,0,.14-.05.28-.09.41s-.15.53-.23.8c-.17.53.24-.45,0,0-.13.25-.25.49-.4.73a2.33,2.33,0,0,1-.17.26c-.28.43-.16.06,0,0-.14.06-.36.42-.47.53l-.52.49c-.38.35.43-.3-.13.08a6.12,6.12,0,0,1-.69.43l-.37.19c-.28.14-.45,0,.07,0a4.81,4.81,0,0,0-.78.27c-.26.07-.53.14-.79.19l-.31.06c-.37.08.66,0,.09,0s-1.12-.08-1.63,0c.55-.06.46.08.19,0l-.49-.11c-.3-.08-.59-.18-.88-.28a3,3,0,0,0-3.69,2.09,3.08,3.08,0,0,0,2.1,3.69Z"/><path d="M80.63,35.28c-5.8-2-12.81-.67-16.67,4.33-3.61,4.67-3.89,11.67.8,15.77A10.59,10.59,0,0,0,74.1,58a3,3,0,0,0,2.09-3.69,3.06,3.06,0,0,0-3.69-2.1,3.58,3.58,0,0,1-.45.09c.41,0,.45-.06.11,0s-.72.1-.92,0c.42.06.46.06.12,0l-.44-.1a8.07,8.07,0,0,1-.87-.29c.73.28-.19-.12-.33-.2s-.52-.33-.78-.51c.62.44-.17-.18-.28-.29s-.43-.45-.63-.69c.49.58-.12-.21-.2-.34s-.5-1-.21-.33a7,7,0,0,1-.29-.88c0-.17-.16-1.18-.11-.39,0-.32,0-.64,0-1,0-.16.13-1.19,0-.4a9.78,9.78,0,0,1,.45-1.75c.25-.72-.17.23.12-.29.15-.28.29-.57.46-.85a8.87,8.87,0,0,1,.55-.81c-.43.58.22-.22.32-.32s.47-.45.7-.67.25-.21,0,0l.4-.28c.3-.2.61-.38.93-.55l.49-.24c-.31.12-.3.12,0,0a21.36,21.36,0,0,1,2.08-.58c.35-.05.35-.06,0,0l.54,0c.36,0,.73,0,1.09,0s.72,0,1.09,0l.54.05c-.35,0-.35,0,0,0a21.6,21.6,0,0,1,2.1.55A3,3,0,0,0,82.72,39a3.07,3.07,0,0,0-2.09-3.69Z"/><path class="cls-1" d="M5,115.45A22.31,22.31,0,0,0,6,136c4.47,7.51,12.86,11.62,20.78,15.31l.15,0q-.66-2.55-1.19-5.13c-2.89-14.1-3.07-28.56-2.87-43C15.79,103.56,7.92,109.25,5,115.45Z"/><path class="cls-2" d="M11.12,115.43a27.28,27.28,0,0,0,1.24,25.06,29.25,29.25,0,0,0,2.9,4,27.05,27.05,0,0,1-7.1-7.67,22.31,22.31,0,0,1-1-20.5c2.31-4.93,7.76-9.54,13.48-11.44A27.27,27.27,0,0,0,11.12,115.43Z"/><path class="cls-1" d="M187.08,138c10-.57,22-5.1,22.41-23.27h0a40.83,40.83,0,0,0-14.23-18.18c-9.52-6.66-21.36-8.93-32.85-10.66a531.66,531.66,0,0,0-102.72-5.4c-8.2.37-16.5.94-24.28,3.57a38.29,38.29,0,0,0-12.57,7c0,4,.09,10.27.06,12.1-.2,14.41,0,28.87,2.87,43q.53,2.58,1.19,5.13c3.78,14.63,10.91,28.59,22.35,38.34,15.27,13,36.31,17.07,56.37,17.34,19.56.27,39.86-2.88,56.14-13.71C176.68,183.3,189.05,157,187.08,138Zm-108-31-.8,2.39q.93,13.31,1.87,26.6c.11,1.66.18,3.49-.85,4.79-1.39,1.76-4,1.7-6.26,1.48l-20.3-2c-2.36-.23-4.93-.56-6.59-2.25-2.24-2.28-1.87-6-1.36-9.1q1.29-7.8,2.57-15.61c.51-3.07,1.24-6.5,3.85-8.19a10.36,10.36,0,0,1,5.06-1.27A59.5,59.5,0,0,1,79.09,107Zm70.11,9.24q0,8.85.11,17.71a6.35,6.35,0,0,1-.85,3.93c-1.17,1.55-3.42,1.67-5.36,1.65l-20.93-.21c-2.94,0-6.29-.25-8.12-2.55-1.48-1.86-1.43-4.48-1.32-6.85q.31-6.28.62-12.56c.15-3,.4-6.34,2.45-8.6,2.22-2.45,5.84-2.89,9.13-3.19,4.12-.36,8.3-.73,12.36,0s8.06,2.83,10.24,6.35A13.43,13.43,0,0,1,149.2,116.26Z"/><path class="cls-2" d="M167.36,185c-17.32,11.52-38.92,14.87-59.73,14.59-21.34-.29-43.73-4.6-60-18.45A67.8,67.8,0,0,1,32.87,163a66.46,66.46,0,0,0,17,23.17c15.27,13,36.31,17.07,56.37,17.34,19.56.27,39.86-2.88,56.14-13.71a41.48,41.48,0,0,0,7.67-6.76C169.17,183.77,168.27,184.43,167.36,185Z"/><path class="cls-1" d="M44.8,129c-.51,3.15-.88,6.82,1.36,9.1,1.66,1.69,4.23,2,6.59,2.25l20.3,2c2.23.22,4.87.28,6.26-1.48,1-1.3,1-3.13.85-4.79q-.94-13.29-1.87-26.6l.8-2.39a59.5,59.5,0,0,0-22.81-3.14,10.36,10.36,0,0,0-5.06,1.27c-2.61,1.69-3.34,5.12-3.85,8.19Q46.1,121.16,44.8,129Zm11.87-6.58A5.65,5.65,0,1,1,62.32,128,5.65,5.65,0,0,1,56.67,122.37Z"/><path class="cls-1" d="M62.32,116.72A5.65,5.65,0,1,0,68,122.37,5.65,5.65,0,0,0,62.32,116.72Z"/><path class="cls-1" d="M112.73,129.94c-.11,2.37-.16,5,1.32,6.85,1.83,2.3,5.18,2.52,8.12,2.55l20.93.21c1.94,0,4.19-.1,5.36-1.65a6.35,6.35,0,0,0,.85-3.93q-.06-8.85-.11-17.71a13.43,13.43,0,0,0-1.67-4.27c-2.18-3.52-6.18-5.58-10.24-6.35s-8.24-.41-12.36,0c-3.29.3-6.91.74-9.13,3.19-2,2.26-2.3,5.56-2.45,8.6Q113.05,123.67,112.73,129.94Zm12.75-7.27a5.65,5.65,0,1,1,5.65,5.65A5.65,5.65,0,0,1,125.48,122.67Z"/><path class="cls-1" d="M131.13,117a5.65,5.65,0,1,0,5.64,5.64A5.65,5.65,0,0,0,131.13,117Z"/><path class="cls-3" d="M17.14,146.31a103.62,103.62,0,0,0,9.67,4.95"/><path class="cls-3" d="M22.9,103.12c-7.11.44-15,6.13-17.88,12.33A22.31,22.31,0,0,0,6,136c2.64,4.44,6.64,7.68,11.11,10.36"/><path class="cls-3" d="M187.08,138c2,18.95-10.4,45.3-25.26,55.19-16.28,10.83-36.58,14-56.14,13.71-20.06-.27-41.1-4.32-56.37-17.34C37.87,179.81,30.74,165.85,27,151.22q-.66-2.55-1.19-5.13c-2.89-14.1-3.07-28.56-2.87-43,0-1.83,0-8.12-.06-12.1"/><path class="cls-3" d="M209.49,114.72a40.83,40.83,0,0,0-14.23-18.18c-9.52-6.66-21.36-8.93-32.85-10.66a531.66,531.66,0,0,0-102.72-5.4c-8.2.37-16.5.94-24.28,3.57a38.29,38.29,0,0,0-12.57,7"/><path class="cls-3" d="M149.2,116.26q0,8.85.11,17.71a6.35,6.35,0,0,1-.85,3.93c-1.17,1.55-3.42,1.67-5.36,1.65l-20.93-.21c-2.94,0-6.29-.25-8.12-2.55-1.48-1.86-1.43-4.48-1.32-6.85q.31-6.28.62-12.56c.15-3,.4-6.34,2.45-8.6,2.22-2.45,5.84-2.89,9.13-3.19,4.12-.36,8.3-.73,12.36,0s8.06,2.83,10.24,6.35A13.43,13.43,0,0,1,149.2,116.26Z"/><path class="cls-3" d="M149.18,113.54c0,.91,0,1.81,0,2.72"/><path class="cls-3" d="M78.29,109.41q.93,13.31,1.87,26.6c.11,1.66.18,3.49-.85,4.79-1.39,1.76-4,1.7-6.26,1.48l-20.3-2c-2.36-.23-4.93-.56-6.59-2.25-2.24-2.28-1.87-6-1.36-9.1q1.29-7.8,2.57-15.61c.51-3.07,1.24-6.5,3.85-8.19a10.36,10.36,0,0,1,5.06-1.27A59.5,59.5,0,0,1,79.09,107l.37.12"/><path class="cls-3" d="M45.8,110.31l-22-5.63"/><path class="cls-3" d="M156.1,114.42l30.48-4.89"/><path class="cls-3" d="M209.49,114.72h0c-.44,18.17-12.37,22.7-22.41,23.27a48.51,48.51,0,0,1-13.77-1.3"/><path class="cls-3" d="M196.7,114.1c-.2,0-.41,0-.61.05a11.71,11.71,0,0,0-10,8.84"/><path class="cls-3" d="M196.14,114.1l0,.05a8.18,8.18,0,0,0-1.1,10.76"/><path class="cls-4" d="M32.26,51.24C19.39,49.14-2.46,63.51,6.12,87.45s42.9,20.36,42.9,0c5.39,29.34,35.32,17.36,35.32,1.8,19.45,32.92,35.92,5.09,39.21-1.8,3,14.67,30.82,9.28,30.82,9.28s52.09-19.45,56,19.46c.14,1.32.22,2.6.25,3.81l1,0c13.78-9.92,9.39-28,3.83-32.82,15.87-32-17.36-44.89-24.11-34.12C200.44,14.18,164,21.6,159.47,32.38c-.9-37.71-40.11-29.38-44.9-14.67C98.11-9.82,65.19,6.64,63.69,23.7,34.66-6.83,9.21,38.66,32.26,51.24Z"/><path class="cls-5" d="M219.75,78.88C204,64.66,196.25,67.25,187.29,61.5c-7.4-4.75-9-12.37-20.92-18-5.61-7.83-35.35-17.48-52.51-12.91-15.66-7.3-31.42-2-49.68,4.69-12.11-8.17-28.58-.9-40.1,1.44C24.62,20.64,43.61,3.39,64.45,25.3c1.5-17.06,34.42-33.52,50.88-6,4.79-14.71,44-23,44.9,14.67,4.49-10.78,41-18.2,31.86,20.65C198.1,45,225.08,54.18,219.75,78.88Z"/><path class="cls-3" d="M210.62,120.64c0-.21,0-.42,0-.64,0-1.21-.11-2.49-.25-3.81-3.89-38.91-56-19.46-56-19.46s-27.82,5.39-30.82-9.28c-3.29,6.89-19.76,34.72-39.21,1.8,0,15.56-29.93,27.54-35.32-1.8,0,20.36-34.32,24-42.9,0S19.39,49.14,32.26,51.24c-23-12.58,2.4-58.07,31.43-27.54,1.5-17.06,34.42-33.52,50.88-6,4.79-14.71,44-23,44.9,14.67,4.49-10.78,41-18.2,31.86,20.65,6.75-10.77,40,2.1,24.11,34.12,5.56,4.77,9.95,22.9-3.83,32.82"/><path d="M84.5,44.19c-5.79-1.95-12.81-.66-16.66,4.33C64.23,53.2,64,60.2,68.64,64.3A10.57,10.57,0,0,0,78,66.86a3,3,0,0,0,2.1-3.69,3.08,3.08,0,0,0-3.69-2.09l-.46.09c.42-.06.45-.07.11,0s-.71.1-.91,0c.42.07.46.07.12,0l-.45-.1a8.81,8.81,0,0,1-.87-.28c.73.27-.18-.12-.32-.2s-.53-.33-.78-.51c.61.44-.17-.18-.28-.29a8.17,8.17,0,0,1-.63-.69c.48.58-.12-.21-.2-.35s-.51-1.05-.22-.32a9.06,9.06,0,0,1-.29-.88c0-.18-.16-1.18-.1-.39,0-.32,0-.64,0-1s.12-1.2,0-.4A10.45,10.45,0,0,1,71.5,54c.26-.72-.17.23.12-.29.16-.28.3-.58.47-.85s.35-.55.54-.81c-.43.58.23-.23.32-.33s.47-.44.71-.67.24-.21,0,0l.4-.28a8.73,8.73,0,0,1,.93-.55q.24-.14.48-.24c-.31.12-.3.11,0,0a16.75,16.75,0,0,1,2.07-.58c.36-.06.36-.06,0,0l.54,0a9.75,9.75,0,0,1,1.08,0c.37,0,.73,0,1.09,0l.54.06c-.34,0-.34,0,0,0a21.79,21.79,0,0,1,2.11.55,3,3,0,0,0,3.69-2.1,3.07,3.07,0,0,0-2.1-3.69Z"/><path d="M151.55,77.34a11.66,11.66,0,0,0,8.79-.53,11.06,11.06,0,0,0,5.8-6.39,11.91,11.91,0,0,0-.55-8.91A11,11,0,0,0,159,55.8a11.66,11.66,0,0,0-9.72,1.14,3,3,0,0,0,3,5.18l.63-.37.37-.18c.3-.15-.22.11-.23.1s.54-.18.69-.22a4.47,4.47,0,0,0,.91-.21s-.62.06-.28,0c.13,0,.27,0,.41,0s.49,0,.73,0l.73.05c.35,0-.29,0-.28,0s.44.08.51.1a5.56,5.56,0,0,1,.7.19c.14,0,.83.28.43.13s.26.13.39.2l.71.43c.43.28-.39-.35.13.11a6.26,6.26,0,0,1,.53.5c.1.1.18.21.28.31.27.29-.09.1-.09-.11,0,.14.38.56.45.69s.22.43.33.65-.1-.22-.1-.24a2.39,2.39,0,0,0,.15.39c.07.23.14.47.2.7s0,.2.07.31.18.7,0,.21,0,.29,0,.44,0,.48,0,.73a4.36,4.36,0,0,0,0,.72c0-.08.13-.7,0-.18l-.09.41c-.07.27-.15.53-.24.79-.16.54.24-.45,0,.06-.12.24-.25.49-.39.73l-.17.26c-.29.43-.16,0,0,0-.15.06-.37.41-.48.53s-.35.32-.52.48c-.38.36.44-.29-.12.09-.23.15-.46.3-.7.43l-.36.19c-.29.14-.46,0,.06,0a4.36,4.36,0,0,0-.77.26,7.19,7.19,0,0,1-.8.2l-.3.06c-.37.07.65,0,.09,0s-1.12-.08-1.63,0c.54-.06.46.08.19,0l-.5-.12a6.31,6.31,0,0,1-.87-.28,3,3,0,0,0-3.69,2.1,3.08,3.08,0,0,0,2.09,3.69Z"/><path class="cls-6" d="M22.58,150.5a4.45,4.45,0,0,1-5.11,2.2,4.86,4.86,0,0,1-3.4-4.66,4.39,4.39,0,0,1,3.71-4.12"/><path class="cls-3" d="M28.26,152.15c-2.42-1.15-4.84-2.38-7.14-3.76"/><path class="cls-7" d="M124.9,126a169.44,169.44,0,0,1,17.67-.34,9.27,9.27,0,0,1-17.67.34Z"/><path class="cls-7" d="M54.64,126a169.3,169.3,0,0,1,17.66-.34,9.26,9.26,0,0,1-17.66.34Z"/><path class="cls-8" d="M76.88,139.55s-14.08-1.57-24,0-6.52-8.75-2.35-10,21.13-1.86,24.27-.63S84.71,138.24,76.88,139.55Z"/><path class="cls-8" d="M145.55,139.55s-14.09-1.57-24,0-6.53-8.75-2.35-10,21.13-1.86,24.26-.63S153.37,138.24,145.55,139.55Z"/><path d="M89.14,171.2l14.86-.63a3,3,0,0,0,0-6l-14.86.63a3,3,0,1,0,0,6Z"/></g></g></svg>