<svg xmlns="http://www.w3.org/2000/svg" viewBox="0 0 95.48 83.08"><defs><style>.cls-1{fill:#bababa;}.cls-2{fill:#636363;}</style></defs><g id="Layer_2" data-name="Layer 2"><g id="Layer_1-2" data-name="Layer 1"><path class="cls-1" d="M93.92,68.81a11.82,11.82,0,0,1-.73,2.88,11,11,0,0,1-.54,1.22c-2.24,4.44-7.13,7.72-13,8.38a285.34,285.34,0,0,1-63.8,0C8.24,80.45,2.33,75.19,1.58,68.69,1,64,.62,59.22.37,54.5h0c0-.65-.07-1.32-.1-2a230,230,0,0,1,1.31-38C2.34,8,8.3,2.8,15.92,1.9a270.31,270.31,0,0,1,63.63,0C87.14,2.77,93,8,93.8,14.48A228.63,228.63,0,0,1,93.92,68.81Z"/><rect class="cls-2" x="64.99" y="17.68" width="12.64" height="12.64" rx="6.32"/><path class="cls-2" d="M92.65,72.91c-2.24,4.44-7.13,7.72-13,8.38a285.34,285.34,0,0,1-63.8,0C8.24,80.45,2.33,75.19,1.58,68.69,1,64,.62,59.22.37,54.5h0c2.59-6.61,10.24-21.92,24-16.8C39.83,43.41,47.15,59.39,48.63,63a3.37,3.37,0,0,0,2,1.89A3.65,3.65,0,0,0,54.74,64a4.37,4.37,0,0,0,.59-.63c2.81-3.76,16.41-13,26.27-4.38A52.29,52.29,0,0,1,92.65,72.91Z"/></g></g></svg>