<svg xmlns="http://www.w3.org/2000/svg" viewBox="0 0 83.64 95.33"><defs><style>.cls-1{fill:#bababa;}.cls-2{fill:#636363;}</style></defs><g id="Layer_2" data-name="Layer 2"><g id="Layer_1-2" data-name="Layer 1"><path class="cls-1" d="M82.26,25.74a.15.15,0,0,1,0,.06,193.6,193.6,0,0,1-1,53.26A18.12,18.12,0,0,1,65,94.12a230,230,0,0,1-46.71,0A18,18,0,0,1,2.15,79a209.34,209.34,0,0,1,.33-62A17.92,17.92,0,0,1,17.27,2.11,142.66,142.66,0,0,1,58.3,1l1.14.14c1.06.13,2.12.28,3.18.43A41.75,41.75,0,0,1,68.43,5.6Z"/><path class="cls-2" d="M62.62,1.54s-9.4,12.55-5.86,20.71S82.28,25.8,82.28,25.8,71.85,5,62.62,1.54Z"/><rect class="cls-2" x="17.91" y="47.07" width="35.67" height="9.04" rx="4.4"/><rect class="cls-2" x="17.91" y="66.72" width="47.82" height="9.04" rx="4.4"/></g></g></svg>