<svg xmlns="http://www.w3.org/2000/svg" viewBox="0 0 91.41 79.1"><defs><style>.cls-1{fill:#bababa;}.cls-2{fill:#636363;}</style></defs><g id="Layer_2" data-name="Layer 2"><g id="Layer_1-2" data-name="Layer 1"><path class="cls-1" d="M74.24,78.05a338.1,338.1,0,0,1-54.83-.12c-5.58-.45-11.75-5.18-13.77-10.41-7.56-19.59-7.37-38.3-.31-56.07C7.45,6.1,13.87,1.36,19.62,1A411.35,411.35,0,0,1,72.5.74c6.68.42,13.8,5.9,15.8,12.29C92.7,27.1,92.47,45,87.37,66.76A14.7,14.7,0,0,1,74.24,78.05Z"/><path class="cls-2" d="M33.07,31.86V47.25a4.7,4.7,0,0,0,6.36,4.39l20.34-7.7a4.7,4.7,0,0,0,0-8.78L39.43,27.47A4.7,4.7,0,0,0,33.07,31.86Z"/></g></g></svg>