<svg xmlns="http://www.w3.org/2000/svg" viewBox="0 0 818.48 1313.61"><defs><style>.cls-1{fill:#8affc4;}.cls-2{fill:#91b3fb;}.cls-3{fill:#4a78bc;}.cls-4{fill:#c9c9ff;}.cls-5{fill:#9595db;}.cls-6{fill:#fff;}.cls-7{fill:#3f3f3f;}.cls-8{fill:#fed0b9;}.cls-9{fill:#ffb392;}.cls-10{fill:#ccc;}.cls-11,.cls-12{fill:none;stroke:#3f3f3f;}.cls-11{stroke-linecap:round;stroke-linejoin:round;stroke-width:4px;}.cls-12{stroke-miterlimit:10;stroke-width:3px;}.cls-13{fill:#333;}</style></defs><g id="Layer_2" data-name="Layer 2"><rect class="cls-1" x="2.94" y="395.88" width="819.39" height="582.13"/></g><g id="Layer_8" data-name="Layer 8"><path class="cls-2" d="M528,845.92H316.71c5.08-33.77,16.37-57.63,26.56-73.19-19.2-10.65-32-27.92-41.3-44.55-3.59-6.45-6.77-12.52-2.87-21.55,5-11.66,15.14-18.76,25.06-23.06a30.2,30.2,0,0,1,5.08-1.67l6.31-1.49c2.88,5.29,5.46,9.08,5.46,9.08l4.28-5.15s-1.65-2.23-3.54-5.39l6.61-1.56A133.41,133.41,0,0,0,369.19,712c1.21,1.43,2.47,2.84,3.8,4.23a91.62,91.62,0,0,0,9.46,8.7h0a75.14,75.14,0,0,0,29.81,14.69l-.18.73a100.8,100.8,0,0,1,16.32,21.34c13.81-4.88,30.18-13.83,36.47-29.74a65,65,0,0,0,10.82-8.42,75.83,75.83,0,0,0,15.21-21c10.94,7,21.42,22.4,3.66,55.69a.83.83,0,0,1-.07.13q-.45.86-.93,1.71c10.94,11,29.15,35.27,33.73,78.18h0C527.57,840.73,527.8,843.29,528,845.92Z"/><polygon class="cls-3" points="374.17 816.93 379.27 845.92 371.62 845.92 374.17 816.93"/><path class="cls-3" d="M349.39,761.77l-5.63,11.05c-19.15-10.65-32-27.9-41.21-44.5-3.59-6.45-6.77-12.52-2.87-21.55,5-11.66,15.14-18.76,25.06-23.06a30.2,30.2,0,0,1,5.08-1.67l6.31-1.49c1.92,3.53,3.71,6.4,4.69,7.91-8,4.39-15.4,10.86-19.5,20.33-3.9,9-.72,15.1,2.87,21.55C331.05,742.68,337.43,751.7,349.39,761.77Z"/><path class="cls-4" d="M500.79,631c-7.39-1.57-18.53-.87-21.94,2a4,4,0,0,1-4.83.32c-9.68-6.48-26.29-12.46-41.86-4.9-12,5.83-17.93,1.82-20.4-1.12a3.89,3.89,0,0,0-4.38-1.19c-12.63,4.78-18.72,4.18-20.71,2-2.15-2.36-9.41-27.81-9-22.16a9.53,9.53,0,0,1-.06,2.09,3.94,3.94,0,0,1-7.32,1.51c-.6-1-1.24-2.15-2-3.55a3.93,3.93,0,0,0-7.26.41,64.34,64.34,0,0,1-11.68,20.08l-.09,0a21,21,0,0,0-28.56,6.36c-.22.32-.43.63-.63,1a36.72,36.72,0,0,0-5.22,16.44c-.07.83-.13,1.64-.15,2.42h0c-.62-.52-14.79-12.83-1.31-33.51-3.74-12-8.37-19.41.84-33.08s22.16-5.7,23.16-3.9C335.39,576,333.6,554,347.22,551s21.28,5,21.95,7.45c.6-5.89,3.68-27.32,18.52-27.46,9.87-1.07,19,1.12,25.62,12.1,5.48-7.89,19.09-20.32,33.61-12.72,8.08,3.49,14.1,11.53,17.27,20,0,0,19.46-20.85,33.36-3.74s2.72,32.29-2.08,34.77c6.33-.79,34.36,5.18,25.92,39.63-4.39,14.36-15.09,16.48-15.09,16.48s-1.2.18-3.07.41l-1.64.19C501.38,635.48,501.11,633.13,500.79,631Z"/><path class="cls-5" d="M333.75,599.78c-6.42,9.85-6.57,17.79-4.9,23.47a21.81,21.81,0,0,0-8.92,7.61c-.22.32-.43.63-.63,1a36.72,36.72,0,0,0-5.22,16.44c-.07.83-.13,1.64-.15,2.42h0c-.62-.52-14.79-12.83-1.31-33.51-3.74-12-8.37-19.41.84-33.08,5.21-7.74,11.62-8.54,16.39-7.45C327.82,584.71,331,591,333.75,599.78Z"/><path class="cls-3" d="M480.37,811.85,495.08,845H481.89a1.36,1.36,0,0,1-1.52-1.52Z"/><path class="cls-6" d="M496,681.74l-13.27.69c-6.15.32-11.36-5-11.65-12l-.73-17.82c-.29-6.94,4.46-12.83,10.61-13.16l13.61-.71a10,10,0,0,1,4.36.75,12.52,12.52,0,0,1,7.29,11.24l.74,17.82c.28,6.94-4.47,12.83-10.61,13.16Zm6.66-16.27c1.64-3.58.4-8-2.77-9.84s-7.07-.45-8.72,3.13a7.79,7.79,0,0,0,2.78,9.85C497.08,670.46,501,669.06,502.62,665.47Z"/><path class="cls-7" d="M499.6,655.36a7.43,7.43,0,0,1,3,9.84,7,7,0,0,1-9.52,3.14,7.44,7.44,0,0,1-3-9.85A7,7,0,0,1,499.6,655.36Z"/><path class="cls-8" d="M344.45,661h0c-4.25-3.22-6.16-8.53-7-12.75-2.52-1.18-5.61-.91-8.4,4.17s-.45,13.21,2.85,20.64c.35.79.71,1.58,1.08,2.35h0c-9.36-.94-18.82-6-18.21-22.77h0c0-.78.08-1.59.15-2.42a36.72,36.72,0,0,1,5.22-16.44c.2-.33.41-.64.63-1a21,21,0,0,1,28.56-6.36l.09,0a64.34,64.34,0,0,0,11.68-20.08,3.93,3.93,0,0,1,7.26-.41c.72,1.4,1.36,2.57,2,3.55a3.94,3.94,0,0,0,7.32-1.51,9.53,9.53,0,0,0,.06-2.09c-.42-5.65,6.84,19.8,9,22.16,2,2.21,8.08,2.81,20.71-2a3.89,3.89,0,0,1,4.38,1.19c2.47,2.94,8.39,6.95,20.4,1.12,15.57-7.56,32.18-1.58,41.86,4.9a4,4,0,0,0,4.83-.32c3.41-2.92,14.55-3.62,21.94-2,.32,2.15.59,4.5.8,7.08,0,.37.05.73.09,1.1l-.14.34a11.82,11.82,0,0,0-4.76-.75l-14.87.71a12.44,12.44,0,0,0-11.6,13.16l.8,17.82a12.34,12.34,0,0,0,12.73,12l14.5-.69A96.1,96.1,0,0,1,491.17,702c-.08.17-.17.34-.26.51a75.83,75.83,0,0,1-15.21,21,65,65,0,0,1-10.82,8.42c-10.52,6.52-23.25,10.11-38.06,9.59a73.81,73.81,0,0,1-44.36-16.61h0a91.62,91.62,0,0,1-9.46-8.7c-1.33-1.39-2.59-2.8-3.8-4.23a133.41,133.41,0,0,1-20.83-34.56c-.57-1.36-1.06-2.61-1.49-3.73a22.21,22.21,0,0,1-6.93,2.09l-.18-.31a42.31,42.31,0,0,1-2.49-5.72,16.94,16.94,0,0,1-1-5.43S340.62,668.39,344.45,661Zm84.74,24.07a12.44,12.44,0,0,0,11.6-13.16l-.8-17.82a12.34,12.34,0,0,0-12.73-12l-14.88.72A12.43,12.43,0,0,0,400.79,656l.8,17.83a12.33,12.33,0,0,0,12.73,12Zm-39.46,6c-.12-2.82-3.7-6.42-3.7-6.42l-1.57,5.73S386.33,696.41,389.73,691.07Z"/><path class="cls-9" d="M494.2,681.92c-1,2.77-2.2,5.47-3.48,8.09-.08.17-.17.34-.26.51a75.83,75.83,0,0,1-15.21,21,65,65,0,0,1-10.82,8.42c-10.52,6.52-23.25,10.11-38.06,9.59A73.81,73.81,0,0,1,382,712.92h0a91.62,91.62,0,0,1-9.46-8.7c-1.33-1.39-2.59-2.8-3.8-4.23a133.41,133.41,0,0,1-20.83-34.56c-.57-1.36-1.06-2.61-1.49-3.73a21.57,21.57,0,0,1-3.78,1.44c-3.43,4.36-6.85,1.17-6.85,1.17a16.94,16.94,0,0,0,1,5.43,42.31,42.31,0,0,0,2.49,5.72l.18.31a22.21,22.21,0,0,0,6.93-2.09c.43,1.12.92,2.37,1.49,3.73A133.41,133.41,0,0,0,368.74,712c1.21,1.43,2.47,2.84,3.8,4.23a91.62,91.62,0,0,0,9.46,8.7h0a73.81,73.81,0,0,0,44.36,16.61c14.81.52,27.54-3.07,38.06-9.59a65,65,0,0,0,10.82-8.42,75.83,75.83,0,0,0,15.21-21c.09-.17.18-.34.26-.51a96.1,96.1,0,0,0,7.17-20.25Z"/><path class="cls-3" d="M341.75,775.12s-7.49,63.53-6.63,69.89H317.83S328.2,782.12,341.75,775.12Z"/><path class="cls-3" d="M470,845.92H384.16C406.42,834.82,443.4,822.66,470,845.92Z"/><path class="cls-2" d="M464.88,731.92c-6.29,15.91-22.66,24.86-36.47,29.74a100.8,100.8,0,0,0-16.32-21.34l.18-.73a74.61,74.61,0,0,0,14.55,1.92C441.63,742,454.36,738.44,464.88,731.92Z"/><path class="cls-3" d="M465.07,731.06c-5.56,16.18-21.5,25.87-35.07,31.37-.64-1-1.27-1.94-1.92-2.88,10.95-4.88,22.77-12.47,29.17-23.93A63.64,63.64,0,0,0,465.07,731.06Z"/><path class="cls-3" d="M425,741.75a100.28,100.28,0,0,1,12.58,16.75c-2.92,1.36-5.85,2.52-8.66,3.52a100.8,100.8,0,0,0-16.32-21.34l.18-.73A73.81,73.81,0,0,0,425,741.75Z"/><path class="cls-6" d="M440.79,671.9a12.44,12.44,0,0,1-11.6,13.16l-14.87.71a12.33,12.33,0,0,1-12.73-12l-.8-17.83a12.43,12.43,0,0,1,11.59-13.15l14.88-.72a12.34,12.34,0,0,1,12.73,12Zm-4.74-1.72a7.43,7.43,0,0,0-3-9.84,7,7,0,0,0-9.52,3.13,7.42,7.42,0,0,0,3,9.85A7,7,0,0,0,436.05,670.18Z"/><path class="cls-10" d="M420.63,685a12.33,12.33,0,0,1-12.73-12l-.8-17.83a12.53,12.53,0,0,1,9.37-12.83l-2.57.12a12.43,12.43,0,0,0-11.59,13.15l.8,17.83a12.33,12.33,0,0,0,12.73,12l14.87-.71a11.34,11.34,0,0,0,2.19-.32Z"/><path class="cls-10" d="M489.61,683.21a12.33,12.33,0,0,1-12.73-12l-.8-17.83a12.53,12.53,0,0,1,9.37-12.83l-2.57.12a12.43,12.43,0,0,0-11.59,13.15l.8,17.83a12.33,12.33,0,0,0,12.73,12l14.87-.71a11.34,11.34,0,0,0,2.19-.32Z"/><path class="cls-7" d="M433,660.34a7.43,7.43,0,0,1,3,9.84,7,7,0,0,1-9.52,3.14,7.42,7.42,0,0,1-3-9.85A7,7,0,0,1,433,660.34Z"/><path class="cls-6" d="M345.29,684.35,341,689.5s-2.58-3.79-5.46-9.08c-.74-1.35-1.5-2.8-2.24-4.31h0c-.12-.23-.24-.45-.35-.7h0c-.37-.77-.73-1.56-1.08-2.35-3.3-7.43-5.59-15.64-2.85-20.64s5.88-5.35,8.4-4.17c.86,4.22,2.77,9.53,7,12.75h0c-3.83,7.4-8.21,3.31-8.21,3.31a16.94,16.94,0,0,0,1,5.43,42.31,42.31,0,0,0,2.49,5.72l.18.31c.6,1.13,1.21,2.21,1.81,3.2C343.64,682.12,345.29,684.35,345.29,684.35Z"/><path class="cls-11" d="M361.33,643c-1-8.06-6.8-13.33-11.93-16.49l-.09,0a21,21,0,0,0-28.56,6.36c-.22.32-.43.63-.63,1a36.72,36.72,0,0,0-5.22,16.44c-.07.83-.13,1.64-.15,2.42h0c-.61,16.78,8.85,21.83,18.21,22.77"/><path class="cls-11" d="M349.39,626.5h0a64.34,64.34,0,0,0,11.68-20.08,3.93,3.93,0,0,1,7.26-.41c.72,1.4,1.36,2.57,2,3.55a3.94,3.94,0,0,0,7.32-1.51,9.53,9.53,0,0,0,.06-2.09c-.42-5.65,6.84,19.8,9,22.16,2,2.21,8.08,2.81,20.71-2a3.89,3.89,0,0,1,4.38,1.19c2.47,2.94,8.39,6.95,20.4,1.12,15.57-7.56,32.18-1.58,41.86,4.9a4,4,0,0,0,4.83-.32c3.41-2.92,14.55-3.62,21.94-2"/><path class="cls-11" d="M314.75,652.63c-.62-.52-14.79-12.83-1.31-33.51-3.74-12-8.37-19.41.84-33.08s22.16-5.7,23.16-3.9C335.39,576,333.6,554,347.22,551s21.28,5,21.95,7.45c.6-5.89,3.68-27.32,18.52-27.46,9.87-1.07,19,1.12,25.62,12.1,5.48-7.89,19.09-20.32,33.61-12.72,8.08,3.49,14.1,11.53,17.27,20,0,0,19.46-20.85,33.36-3.74s2.72,32.29-2.08,34.77c6.33-.79,34.36,5.18,25.92,39.63-4.39,14.36-15.09,16.48-15.09,16.48s-1.2.18-3.07.41l-1.64.19"/><path class="cls-11" d="M452.51,577.56s5.68-2.24,8.82-.64c4.66,2.38,3.34,11.19-2.7,10"/><path class="cls-11" d="M399.12,572.85s-6.81-2.8-10.59-.93c-5.59,2.77-4,13.38,3.22,12"/><path class="cls-11" d="M344.45,661a14.29,14.29,0,0,0,1.28.86"/><path class="cls-11" d="M336.74,641.8a33.68,33.68,0,0,0,.69,6.43c.86,4.22,2.77,9.53,7,12.75"/><path class="cls-11" d="M344.45,661h0c-3.83,7.4-8.21,3.31-8.21,3.31a16.94,16.94,0,0,0,1,5.43,42.31,42.31,0,0,0,2.49,5.72l.18.31c.6,1.13,1.21,2.21,1.81,3.2,1.89,3.16,3.54,5.39,3.54,5.39L341,689.5s-2.58-3.79-5.46-9.08c-.74-1.35-1.5-2.8-2.24-4.31h0c-.12-.23-.24-.45-.35-.7h0c-.37-.77-.73-1.56-1.08-2.35-3.3-7.43-5.59-15.64-2.85-20.64s5.88-5.35,8.4-4.17"/><path class="cls-11" d="M353.19,669.14a24.6,24.6,0,0,1-6.32,4.53,22.21,22.21,0,0,1-6.93,2.09"/><path class="cls-11" d="M429.19,685.06l-14.87.71a12.33,12.33,0,0,1-12.73-12l-.8-17.83a12.43,12.43,0,0,1,11.59-13.15l14.88-.72a12.34,12.34,0,0,1,12.73,12l.8,17.82A12.44,12.44,0,0,1,429.19,685.06Z"/><path class="cls-11" d="M499.7,639.5a12.53,12.53,0,0,1,7.51,11.24l.75,17.82c.29,6.94-4.6,12.83-10.91,13.16l-.36,0-13.65.69c-6.32.32-11.68-5-12-12l-.75-17.82c-.3-6.94,4.59-12.83,10.92-13.16l14-.71A10.53,10.53,0,0,1,499.7,639.5Z"/><path class="cls-11" d="M450.91,690.42s4.16-3.73,10-.48"/><path class="cls-12" d="M386,684.65l-1.57,5.73s1.87,6,5.27.69C389.61,688.25,386,684.65,386,684.65Z"/><path class="cls-11" d="M346.87,673.67c.43,1.12.92,2.37,1.49,3.73A133.41,133.41,0,0,0,369.19,712c1.21,1.43,2.47,2.84,3.8,4.23a91.62,91.62,0,0,0,9.46,8.7h0a73.81,73.81,0,0,0,44.36,16.61c14.81.52,27.54-3.07,38.06-9.59a65,65,0,0,0,10.82-8.42,75.83,75.83,0,0,0,15.21-21c.09-.17.18-.34.26-.51a96.1,96.1,0,0,0,7.17-20.25h0"/><path class="cls-11" d="M501.68,639.16c0-.37-.06-.73-.09-1.1-.21-2.58-.48-4.93-.8-7.08a71.11,71.11,0,0,0-2.9-12.28"/><path class="cls-11" d="M316.71,845.93c5.08-33.77,16.37-57.63,26.56-73.19,10.61-16.2,20-23.4,20-23.4"/><path class="cls-11" d="M373.44,800.12c.47,4.71,2.1,22-1.82,45.81"/><path class="cls-11" d="M480,808.46s7.23,8.71,13.13,37.47"/><path class="cls-11" d="M527.3,838.22s0,0,0,0"/><path class="cls-11" d="M486,772.41c2.95-4.37,5.47-8.49,7.62-12.38q.48-.85.93-1.71a.83.83,0,0,0,.07-.13c17.76-33.29,7.28-48.72-3.66-55.69"/><path class="cls-11" d="M412.09,740.32a100.8,100.8,0,0,1,16.32,21.34"/><path class="cls-11" d="M373,716.19c-20.38-2.31-25.19.47-25.19.47"/><path class="cls-11" d="M428.41,761.66c13.81-4.88,30.18-13.83,36.47-29.74"/><polyline class="cls-11" points="527.97 845.92 493.15 845.92 469.98 845.92 384.16 845.92 376.74 845.92 371.62 845.92 316.71 845.92"/><path class="cls-11" d="M493.57,760c10.94,11,29.15,35.27,33.73,78.18h0c.27,2.51.5,5.07.67,7.7"/><line class="cls-11" x1="348.36" y1="677.4" x2="341.75" y2="678.96"/><path class="cls-11" d="M343.27,772.74c-19.2-10.65-32-27.92-41.3-44.55-3.59-6.45-6.77-12.52-2.87-21.55,5-11.66,15.14-18.76,25.06-23.06a30.2,30.2,0,0,1,5.08-1.67l6.31-1.49"/><path class="cls-11" d="M357.32,710.32A52.21,52.21,0,0,1,369.19,712"/><path class="cls-6" d="M506.91,603.37a13.3,13.3,0,0,1,1.76,1.76c.06.07.2.25.08.09l.16.23c.13.17.25.34.37.52.23.36.45.73.65,1.11l.25.51.15.32c-.07-.14,0-.06,0,0,.15.4.3.8.41,1.21a9.63,9.63,0,0,1,.28,1.18c0,.12,0,.23.06.35s0,.18,0,0c0,.24,0,.48.07.71a1.5,1.5,0,0,0,3,0A14.59,14.59,0,0,0,509,601.25a1.53,1.53,0,0,0-2.12,0,1.51,1.51,0,0,0,0,2.12Z"/><path class="cls-6" d="M444.43,544.74a13.7,13.7,0,0,1,2.2,1.33c-.16-.11-.11-.08,0,0l.22.19c.17.14.33.28.48.43a11.15,11.15,0,0,1,.9.92l.41.49c.18.23-.08-.12,0,0s.12.15.17.23c.25.35.48.71.7,1.09s.4.75.58,1.14-.05-.15,0,0l.11.27c.08.22.16.44.23.67a1.5,1.5,0,1,0,2.89-.8,14.53,14.53,0,0,0-7.42-8.62,1.5,1.5,0,1,0-1.52,2.59Z"/><path class="cls-6" d="M474.9,554.41c.25-.27.51-.52.78-.77l.45-.39.2-.16c-.12.09-.08.06,0,0a16.69,16.69,0,0,1,2.06-1.26l.52-.24.26-.12.1,0c.39-.14.77-.29,1.16-.41a16.89,16.89,0,0,1,2.51-.58,1.5,1.5,0,0,0,1.05-1.84,1.54,1.54,0,0,0-1.84-1.05,16.19,16.19,0,0,0-9.39,4.75,1.5,1.5,0,0,0,2.12,2.12Z"/><path class="cls-13" d="M412,808.79a.4.4,0,0,1,.13.39.5.5,0,0,1-.29.34,8.55,8.55,0,0,1-3.82.64.61.61,0,0,1-.43-.23.51.51,0,0,1-.09-.4c.2-1.45.31-2.74.36-3.87s0-2.52,0-4.13c0-.61-.09-1.61-.18-2.91-.16-2.25-.38-4.62-.66-7a.64.64,0,0,1,.21-.36.76.76,0,0,1,.4-.2c.31,0,.54.16.64.51.16,1.59.25,2.38.43,4,.22,2.45.38,4.32.44,5.58,0,.3,0,.45,0,.75s0,.45,0,.75a46,46,0,0,1-.18,6.52h0a2,2,0,0,0,.42-.05h.14a.21.21,0,0,0,.1,0,4.7,4.7,0,0,0,1.41-.39.73.73,0,0,1,.95.17Z"/><path class="cls-13" d="M417,790.21a.47.47,0,0,1,.36.21.75.75,0,0,1,.1.42,25.58,25.58,0,0,0-.06,4c0,.32,0,.48,0,.81s0,.49.08.82c.1.91.27,2.29.57,4.17.09.56.13.84.22,1.4.2,1.49.42,2.75.48,3.64,0,.39,0,.7,0,.89s0,.27,0,.45l.05.45v.25l.05.45v.24a1.76,1.76,0,0,0,0,.38l0,.08c.31.22.34.46.05.72a.48.48,0,0,1-.43.2.75.75,0,0,1-.51-.12,1.23,1.23,0,0,1-.44-1.06v-1c0-.57-.05-1.05-.09-1.42v-.32l0-.35c0-.67-.16-1.46-.29-2.37s-.2-1.38-.33-2.31c-.15-1.08-.23-1.62-.37-2.71,0-.29,0-.44-.07-.74l-.1-.75a30.34,30.34,0,0,1,0-6,.49.49,0,0,1,.25-.34A.81.81,0,0,1,417,790.21Z"/><path class="cls-13" d="M434.17,807.75c.07.32-.13.54-.57.63a.74.74,0,0,1-.49-.11.77.77,0,0,1-.31-.31c-.15-.55-.29-1.23-.49-2-.1-.41-.15-.61-.24-1s-.15-.6-.24-1c-.16-.77-.23-1.16-.39-1.94q-.35-1.79-1-5.39c-.32-1.87-.5-3.23-.61-4-.08.31-.12.47-.21.78l-.2.82c-.38,1.5-.57,2.24-1,3.73a3.4,3.4,0,0,1-.21.28.63.63,0,0,1-.34.18.61.61,0,0,1-.43,0,.56.56,0,0,1-.27-.23l-.51-.88-.5-.86-1.18-2-.69-1.23v0c.07.34.11.51.18.84.32,1.43.49,2.15.83,3.57s.55,2.52.79,3.57.49,2.18.83,3.57c.16.71.24,1.07.41,1.78s.25,1.08.42,1.79c.05.31-.17.55-.6.61s-.72-.1-.78-.44c-.18-.81-.27-1.21-.44-2s-.28-1.22-.47-2c-.35-1.57-.86-4-1.55-7.15-.64-2.76-.94-4.14-1.52-6.91,0-.34.12-.55.52-.6l.15,0c.06,0,.09,0,.12,0a.62.62,0,0,1,.65.22c.15.26.34.63.58,1l.2.3.2.3.35.63.34.61c.26.46.39.69.66,1.15.49.88,1,1.68,1.38,2.36l.1-.39c.09-.42.26-1,.46-1.66.08-.34.13-.51.21-.84s.12-.49.21-.82v0c.37-1.33.55-2,.9-3.33a.59.59,0,0,1,.57-.46.57.57,0,0,1,.64.44c.1.76.16,1.14.26,1.91l.25,2c.43,2.7.84,5.14,1.29,7.32C433.05,803.18,433.59,805.59,434.17,807.75Z"/><path class="cls-13" d="M446.49,800.26a7.2,7.2,0,0,1-.92,3.86,4.07,4.07,0,0,1-1.78,1.69,10.81,10.81,0,0,1-2.23.55c-.05.22-.26.35-.53.43a.57.57,0,0,1-.48-.08.86.86,0,0,1-.3-.33c-.25-.81-.38-1.22-.63-2s-.34-1.18-.56-2c-.64-2.24-.95-3.36-1.57-5.6l-.37-1.3c-.39-1.44-.58-2.17-1-3.61s-.56-2.16-.93-3.59a.36.36,0,0,1,.11-.35l0-.11a.46.46,0,0,1,.2-.36.69.69,0,0,1,.43-.14,8.8,8.8,0,0,1,2.35.18,3.56,3.56,0,0,1,1.62.85,2.14,2.14,0,0,1,.66,1.7,3.35,3.35,0,0,1-1,2.06,6.84,6.84,0,0,1,3.26,1.36,9.27,9.27,0,0,1,2.68,3.21,9.68,9.68,0,0,1,.63,1.57A7.81,7.81,0,0,1,446.49,800.26Zm-8.94-7.92.11-.11a5.17,5.17,0,0,0,.76-.58,2.89,2.89,0,0,0,.5-.59l.2-.23s0,0,0-.09l.18-.55v-.39l0-.06-.08-.31s0-.07-.06-.1a.11.11,0,0,1-.05-.1l-.11-.05a.72.72,0,0,0-.26-.26l0-.07s0,0-.07,0l-.07,0s0,0,0,0l-.15-.08s-.06,0-.14-.06a.12.12,0,0,1-.05-.07s-.06,0-.09,0l-.14,0v0l-.37-.09,0,0a.1.1,0,0,1-.09,0s0,0-.07,0h0l0,0h-.06c-.09,0-.12,0-.15,0s0,0-.13,0l-.29,0a.7.7,0,0,1-.25,0h-.09a7,7,0,0,0,.24.91c.12.38.19.7.24.91l.55,1.94Zm0,.6a.47.47,0,0,1,0-.6,4.48,4.48,0,0,1,.22.77A.45.45,0,0,1,437.54,792.94Zm-.42-4.59,0,0h.07s0,0,0,0ZM445,798.86c-.05-.18-.08-.26-.13-.44s-.17-.46-.31-.84l0-.05,0,0-.06-.18,0-.05,0-.07c-.07-.17-.1-.25-.18-.41s-.13-.2-.23-.33l-.23-.36c-.22-.31-.43-.57-.63-.8v-.06s-.07,0-.12-.08l-.06-.07,0-.05s-.05-.07-.06-.09l-.36-.34v0l-.17-.12h0l-.42-.35h-.07l-.12-.09-.85-.48-.14-.06-.15,0-.14-.05-.47-.15a1.57,1.57,0,0,0-.51-.1l0,0h-.09a.28.28,0,0,1-.17,0l0,0,0,0a3.61,3.61,0,0,0-.89.07.7.7,0,0,1-.4,0l.73,2.62c.4,1.41.6,2.12,1,3.53.61,2.15,1.2,4.17,1.81,6.08l.23-.05.25,0,.57-.11.09,0,.27-.05s.07,0,.09,0l.14,0,.12,0a1,1,0,0,0,.26-.11.28.28,0,0,1,.11-.08l.1,0s.06,0,.09-.05l.26-.22h0l.16-.2.11-.1a9.13,9.13,0,0,0,.46-.87,1.22,1.22,0,0,0,.16-.41l.1-.27,0-.09v-.09s0-.06,0-.12l0,0v-.06c0-.24.07-.36.11-.6a6.73,6.73,0,0,0,.05-1.75.17.17,0,0,1,0-.13l0-.08,0-.32C445,799.13,445,799,445,798.86Z"/><path class="cls-13" d="M457.12,796.8a1.74,1.74,0,0,1,.14.47,7.19,7.19,0,0,1,.14,4.21,5.37,5.37,0,0,1-1.07,1.8h0a2.26,2.26,0,0,1-1.18.83,1.76,1.76,0,0,1-1.22-.16v0a1.94,1.94,0,0,1-.79-.61l-.26-.35c-.1-.16-.15-.23-.24-.39l0,0-.06-.07-.55-1.11c-.22-.42-.32-.64-.54-1.06a35,35,0,0,1-1.4-3.62,40.22,40.22,0,0,1-1.81-9.81v-.5c0-.19,0-.29,0-.48a3.27,3.27,0,0,1,.28-1v0a1.5,1.5,0,0,1,.93-.8.7.7,0,0,1,.79.18v0c.09.08.2.22.36.4l.17.24.21.25a34.19,34.19,0,0,1,4.52,7.82c.3.64.57,1.37.86,2.06.12.26.3.7.51,1.25Zm-.76,3a9.24,9.24,0,0,0-.66-3.12l-.45-1.22c-.07-.16-.1-.24-.18-.4-.46-1.18-.93-2.2-1.34-3.07a27,27,0,0,0-4.05-6.59l0,.07s0,.06,0,.09-.05.26-.08.44l0,.17,0,.1a1.82,1.82,0,0,0,0,.56v.3l0,.32c0,.15,0,.22,0,.36,0,.38.07.88.15,1.44l.31,2c.08.5.23,1.2.42,2.07a29.66,29.66,0,0,0,.87,3,34.66,34.66,0,0,0,2.15,5l.23.47v0c.11.18.16.26.26.44l.23.33,0,0,0,.08a.1.1,0,0,1,.06.07s0,0,.08,0l.16.15,0,0,.16,0s0,0,.11,0l.07-.1a.15.15,0,0,0,.08-.08l.13-.14s0,0,.06,0l.1-.11.07-.1.24-.34.14-.2.08-.17v0l.18-.38c0-.1.06-.24.11-.39s.05-.27.09-.45l.08-.05.09,0c.09-.05.11-.09.12-.06l-.27,0v-.17l0-.14a.17.17,0,0,1,0-.11V800l0-.23Zm-6.71-14.39v0Z"/></g></svg>