<svg xmlns="http://www.w3.org/2000/svg" xmlns:xlink="http://www.w3.org/1999/xlink" viewBox="0 0 818.48 1313.61"><defs><style>.cls-1{fill:url(#linear-gradient);}.cls-2{fill:#90f2fc;}.cls-3{fill:#61eaff;}.cls-4{fill:#fff;}.cls-5{fill:#01f4af;}.cls-6{fill:#81fbc9;}.cls-7{fill:#848383;}.cls-8{fill:#eaeaea;}.cls-9{fill:#fed0b9;}.cls-10{fill:#ffb9a1;}.cls-11{fill:#3f4040;}.cls-12,.cls-13,.cls-14,.cls-15,.cls-16,.cls-17,.cls-20,.cls-21{fill:none;stroke-linecap:round;stroke-linejoin:round;}.cls-12{stroke:#f7fbf9;}.cls-12,.cls-15,.cls-17{stroke-width:4px;}.cls-13,.cls-20{stroke:#3f3f3f;}.cls-13,.cls-14,.cls-21{stroke-width:3px;}.cls-14{stroke:#81fbc9;}.cls-15,.cls-21{stroke:#3f4040;}.cls-16,.cls-17{stroke:#fff;}.cls-16{stroke-width:10px;}.cls-18{fill:#fff797;}.cls-19{fill:#f2d768;}.cls-20{stroke-width:2px;}</style><linearGradient id="linear-gradient" x1="409.91" y1="1314.57" x2="409.91" y2="-0.22" gradientUnits="userSpaceOnUse"><stop offset="0" stop-color="#7072d8"/><stop offset="0.24" stop-color="#7c78df"/><stop offset="0.67" stop-color="#8d80e8"/><stop offset="1" stop-color="#9383eb"/></linearGradient></defs><g id="Layer_2" data-name="Layer 2"><rect class="cls-1" x="0.22" y="-0.22" width="819.39" height="1314.78"/></g><g id="Layer_5" data-name="Layer 5"><path class="cls-2" d="M519.18,526.59A160.4,160.4,0,0,1,541.05,548c-23.94,7.59-50.74,7.33-75.83,3.09-11.56-2-23-4.66-34.29-7.66a164.39,164.39,0,0,1,66.92-31.5h0a165.83,165.83,0,0,1,21.31,14.67Z"/><path class="cls-3" d="M576.48,643.34v.07a144.75,144.75,0,0,1-6.32,42.35,31.57,31.57,0,0,0-2.92-3.09c-3.25-3-7.52-5.07-11.91-4.8a14.88,14.88,0,0,0-10.94,6.62,20.12,20.12,0,0,0-2.59,5.41,15.56,15.56,0,0,0-9-4.2,15.08,15.08,0,0,0-14.37,7.39,14.41,14.41,0,0,0-1.26,10.52,38.92,38.92,0,0,0-15.87-.07,38.08,38.08,0,0,0-8.66,2.92c2.41-13.57,1.57-27.74,1.26-31.73l1.29,0c3.16-3.45,5.07-6,5.07-6,10.73-14.31,11.2-36.84,3.35-54-8.09-17.69-23.56-29.93-40.05-36.35s-34.05-7.62-51.35-7.92c-17.62-.31-35.52.3-52.25,6.27s-32.35,17.95-40.4,35.69c-6.45,14.19-7.47,30.26-6.31,46.57a22.42,22.42,0,0,0-6.8,6.56c-.23.33-.45.65-.66,1a37.06,37.06,0,0,0-5.15,14.85,13.2,13.2,0,0,0-2.51.18,13.34,13.34,0,0,0-1.16-6.32A15,15,0,0,0,282.23,667a15.88,15.88,0,0,0-8.2,3.34,25.39,25.39,0,0,0-29.25-19.54,22.24,22.24,0,0,0-2.56.63q-.22-4-.22-8v-.07A144.22,144.22,0,0,1,252.17,590a152.59,152.59,0,0,1,30.92-48.4,163.78,163.78,0,0,1,22.74-20.06h0c18.65-1.62,37.9.25,56.28,3.91,23.24,4.63,45.9,11.89,68.81,17.95,11.33,3,22.73,5.71,34.29,7.66,25.09,4.24,51.89,4.5,75.83-3.09.18.21.36.41.53.62a152.69,152.69,0,0,1,19.47,29.66A144.68,144.68,0,0,1,576.48,643.34Z"/><path class="cls-4" d="M334.6,716.33l-3.93,5.7s-2.61-3.18-5.76-7.8l-.71-1.05c-.73-1.1-1.5-2.28-2.25-3.52q-.22-.35-.45-.72h0c-.14-.23-.29-.44-.42-.68h0c-.46-.77-.9-1.55-1.34-2.33-4.08-7.35-7.2-15.61-4.84-21s5.57-6,8.28-5.07l.25,0c.08.54.18,1.11.3,1.7.86,4.22,2.75,9.51,6.86,12.86a8,8,0,0,1-1.31,1.68,4.43,4.43,0,0,1-5.85.47A17.73,17.73,0,0,0,325,702a44.67,44.67,0,0,0,3.1,5.66l.21.3c.27.42.55.82.82,1.23.46.67.9,1.3,1.35,1.9.55.77,1.08,1.48,1.59,2.11C333.53,715.12,334.6,716.33,334.6,716.33Z"/><path class="cls-5" d="M274,670.29a15.88,15.88,0,0,1,8.2-3.34A15,15,0,0,1,297,675.22a13.34,13.34,0,0,1,1.16,6.32,13.2,13.2,0,0,1,2.51-.18c-.11.72-.19,1.44-.25,2.16s-.13,1.7-.15,2.51h0c-.63,17.36,9.16,22.59,18.84,23.56,0,0,1.1.07,2.85.06.75,1.24,1.52,2.42,2.25,3.52l.71,1.05c3.15,4.62,5.76,7.8,5.76,7.8l3.93-5.7s-1.07-1.21-2.54-3.12c-.51-.63-1-1.34-1.59-2.11-.45-.6-.89-1.23-1.35-1.9l.68-.1h0l.94-.16c.82-.13,1.66-.3,2.5-.5l.43-.1c.4,1,.83,2.13,1.34,3.33.16.4.33.79.51,1.2a137.36,137.36,0,0,0,21.05,34.57c1.25,1.48,2.55,2.94,3.93,4.37a94.88,94.88,0,0,0,9.79,9h0A76.44,76.44,0,0,0,416.24,778l1.45,0c.78,0,1.55,0,2.3,0a67.92,67.92,0,0,0,35.63-10,67.12,67.12,0,0,0,11.2-8.71,78.56,78.56,0,0,0,15.74-21.73c.09-.18.19-.35.27-.53a99.41,99.41,0,0,0,7.42-21h0a69,69,0,0,0,2.41-9.69,38.08,38.08,0,0,1,8.66-2.92,38.92,38.92,0,0,1,15.87.07,14.41,14.41,0,0,1,1.26-10.52,15.08,15.08,0,0,1,14.37-7.39,15.56,15.56,0,0,1,9,4.2,20.12,20.12,0,0,1,2.59-5.41,14.88,14.88,0,0,1,10.94-6.62c4.39-.27,8.66,1.84,11.91,4.8a31.57,31.57,0,0,1,2.92,3.09c-9.6,31.35-29.59,58.66-56.29,78.52a168.54,168.54,0,0,1-29,17.37,177.26,177.26,0,0,1-75.55,16.68h-.08A178.08,178.08,0,0,1,343.6,786a171.46,171.46,0,0,1-26.5-13.22,164.91,164.91,0,0,1-33-26.52,154.59,154.59,0,0,1-27.06-38.46,144.94,144.94,0,0,1-14.84-56.37,22.24,22.24,0,0,1,2.56-.63A25.39,25.39,0,0,1,274,670.29Z"/><path class="cls-6" d="M300.66,693.69c-14.42-7.9-29.7-9-39-5.62-5.24-4.47-10-4.82-13.93-3.42a143.61,143.61,0,0,1-5.55-32.5,22.24,22.24,0,0,1,2.56-.63A25.39,25.39,0,0,1,274,671.06a15.88,15.88,0,0,1,8.2-3.34A15,15,0,0,1,297,676a13.34,13.34,0,0,1,1.16,6.32,13.2,13.2,0,0,1,2.51-.18c-.11.72-.19,1.44-.25,2.16C300.38,684.65,300.68,693.34,300.66,693.69Z"/><path class="cls-6" d="M569.13,686.44a144.65,144.65,0,0,1-7.29,19c-8.72.56-19.34,3.72-26.92,8.78a24.93,24.93,0,0,1-20.12,3.47c-11.2-2.94-20.6.45-26.9,4.23q.72-2.49,1.32-5h0a69,69,0,0,0,2.41-9.69,38.08,38.08,0,0,1,8.66-2.92,38.92,38.92,0,0,1,15.87.07,14.41,14.41,0,0,1,1.26-10.52,15.08,15.08,0,0,1,14.37-7.39,15.56,15.56,0,0,1,9,4.2,20.12,20.12,0,0,1,2.59-5.41,14.88,14.88,0,0,1,10.94-6.62c4.39-.27,8.66,1.84,11.91,4.8A31.57,31.57,0,0,1,569.13,686.44Z"/><path class="cls-7" d="M492.78,663.63c-7.65-1.62-19.17-.9-22.7,2.13a4.11,4.11,0,0,1-5,.33c-10-6.71-27.2-12.9-43.32-5.07-12.42,6-18.55,1.88-21.11-1.16a4,4,0,0,0-4.53-1.23c-13.07,4.94-19.37,4.32-21.43,2-2.23-2.44-9.74-28.77-9.31-22.93a9,9,0,0,1-.06,2.16,4.08,4.08,0,0,1-7.57,1.57c-.62-1-1.29-2.23-2-3.68a4.07,4.07,0,0,0-7.51.43A66.64,66.64,0,0,1,336.12,659a.21.21,0,0,1-.1-.06,21.5,21.5,0,0,0-22.75,0c-1.16-16.31-.14-32.38,6.31-46.57,8.05-17.74,23.68-29.7,40.4-35.69s34.63-6.58,52.25-6.27c17.3.3,34.86,1.5,51.35,7.92s32,18.66,40.05,36.35c7.85,17.13,7.38,39.66-3.35,54,0,0-1.91,2.58-5.07,6l-1.29,0c-.05-.72-.09-1.11-.09-1.11-.05-.92-.12-1.52-.12-1.52C493.66,671.72,493.12,665.86,492.78,663.63Z"/><path class="cls-8" d="M492.05,597.45a1.41,1.41,0,0,1-1.48,2.31c-5.95-2-13.47-9.4-21-12.64-8.95-3.84-44.38-15.74-97.18-3.13-45.88,11-49.83,53.62-51.46,71a1.41,1.41,0,0,1-1.11,1.23,21.4,21.4,0,0,0-4.62,1.65,1.42,1.42,0,0,1-2.06-1.15c-.91-15.55.3-30.81,6.46-44.35,8.05-17.74,23.68-29.7,40.4-35.69s34.63-6.58,52.25-6.27c17.3.3,34.86,1.5,51.35,7.92A76.84,76.84,0,0,1,492.05,597.45Z"/><path class="cls-9" d="M336.12,659a66.64,66.64,0,0,0,12.09-20.78,4.07,4.07,0,0,1,7.51-.43c.74,1.45,1.41,2.66,2,3.68a4.08,4.08,0,0,0,7.57-1.57,9,9,0,0,0,.06-2.16c-.43-5.84,7.08,20.49,9.31,22.93,2.06,2.29,8.36,2.91,21.43-2a4,4,0,0,1,4.53,1.23c2.56,3,8.69,7.19,21.11,1.16,16.12-7.83,33.31-1.64,43.32,5.07a4.11,4.11,0,0,0,5-.33c3.53-3,15.05-3.75,22.7-2.13.34,2.23.88,8.09.93,8.47,0,0,.07.6.12,1.52,0,0,0,.39.09,1.11.31,4,1.15,18.16-1.26,31.73a69,69,0,0,1-2.41,9.69h0a99.41,99.41,0,0,1-7.42,21c-.08.18-.18.35-.27.53a78.56,78.56,0,0,1-15.74,21.73,67.12,67.12,0,0,1-11.2,8.71,67.92,67.92,0,0,1-35.63,10c-.75,0-1.52,0-2.3,0l-1.45,0a76.44,76.44,0,0,1-45.91-17.19h0a94.88,94.88,0,0,1-9.79-9c-1.38-1.43-2.68-2.89-3.93-4.37a137.36,137.36,0,0,1-21.05-34.57c-.18-.41-.35-.8-.51-1.2-.51-1.2-.94-2.32-1.34-3.33l-.43.1c-.84.2-1.68.37-2.5.5l-.94.16h0l-.68.1c-.27-.41-.55-.81-.82-1.23l-.21-.3A44.67,44.67,0,0,1,325,702a17.73,17.73,0,0,1-1.56-5.51,4.43,4.43,0,0,0,5.85-.47,8,8,0,0,0,1.31-1.68c-4.11-3.35-6-8.64-6.86-12.86-.12-.59-.22-1.16-.3-1.7l-.25,0c-2.71-1-5.87-.43-8.28,5.07s.76,13.66,4.84,21c.44.78.88,1.56,1.34,2.33h0c.13.24.28.45.42.68h0q.22.38.45.72c-1.75,0-2.85-.06-2.85-.06-9.68-1-19.47-6.2-18.84-23.56h0c0-.81.08-1.65.15-2.51s.14-1.44.25-2.16a37.06,37.06,0,0,1,5.15-14.85c.21-.34.43-.66.66-1a22.42,22.42,0,0,1,6.8-6.56,21.5,21.5,0,0,1,22.75,0A.21.21,0,0,0,336.12,659Zm139.93,39.16A7.68,7.68,0,0,0,472.92,688a7.19,7.19,0,0,0-9.86,3.24,7.69,7.69,0,0,0,3.14,10.19A7.2,7.2,0,0,0,476.05,698.15Zm-65.14,2.59a7.68,7.68,0,0,0-3.13-10.18,7.18,7.18,0,0,0-9.85,3.24A7.67,7.67,0,0,0,401.06,704,7.19,7.19,0,0,0,410.91,700.74Z"/><path class="cls-10" d="M476.05,698.15A7.68,7.68,0,0,0,472.92,688a7.19,7.19,0,0,0-9.86,3.24,7.69,7.69,0,0,0,3.14,10.19A7.2,7.2,0,0,0,476.05,698.15Zm-65.14,2.59a7.68,7.68,0,0,0-3.13-10.18,7.18,7.18,0,0,0-9.85,3.24A7.67,7.67,0,0,0,401.06,704,7.19,7.19,0,0,0,410.91,700.74ZM482.28,717c-7.11,14.17-14.83,24.3-21.78,31.47a52.42,52.42,0,0,1-39.86,15.8c-11.63-.49-26-1.87-33.66-5.53-14.09-6.79-25-14.09-31.82-23-2.8-3.67-6.85-9.11-11.26-13.83a2.33,2.33,0,0,0-3.77,2.68,131.56,131.56,0,0,0,15.93,23.81c1.25,1.48,2.55,2.94,3.93,4.37a94.88,94.88,0,0,0,9.79,9h0A76.44,76.44,0,0,0,415.7,779l1.45,0h2.3a67.92,67.92,0,0,0,35.63-10,67.12,67.12,0,0,0,11.2-8.71A78.56,78.56,0,0,0,482,738.64c.09-.18.19-.35.27-.53a99.41,99.41,0,0,0,7.42-21h0a69,69,0,0,0,2.41-9.69l0-.15a2.33,2.33,0,0,0-4.4-1.4C486.14,709.23,484.33,712.91,482.28,717Z"/><path class="cls-11" d="M472.92,688a7.68,7.68,0,0,1,3.13,10.18,7.2,7.2,0,0,1-9.85,3.25,7.69,7.69,0,0,1-3.14-10.19A7.19,7.19,0,0,1,472.92,688Z"/><path class="cls-11" d="M407.78,690.56a7.68,7.68,0,0,1,3.13,10.18,7.19,7.19,0,0,1-9.85,3.25,7.67,7.67,0,0,1-3.13-10.19A7.18,7.18,0,0,1,407.78,690.56Z"/><path class="cls-12" d="M497.86,511.92a165.83,165.83,0,0,1,21.31,14.67h0A160.4,160.4,0,0,1,541.05,548c.18.21.36.41.53.62a152.69,152.69,0,0,1,19.47,29.66,144.68,144.68,0,0,1,15.43,65.07v.07a144.75,144.75,0,0,1-6.32,42.35c-9.6,31.35-29.59,58.66-56.29,78.52a168.54,168.54,0,0,1-29,17.37,177.26,177.26,0,0,1-75.55,16.68h-.08A178.08,178.08,0,0,1,343.6,786a171.46,171.46,0,0,1-26.5-13.22,164.91,164.91,0,0,1-33-26.52,154.59,154.59,0,0,1-27.06-38.46,144.94,144.94,0,0,1-14.84-56.37q-.22-4-.22-8v-.07A144.22,144.22,0,0,1,252.17,590a152.59,152.59,0,0,1,30.92-48.4,163.78,163.78,0,0,1,22.74-20.06"/><path class="cls-12" d="M305.84,521.56c28.44-20.77,64.34-33.15,103.36-33.15h.08a177.11,177.11,0,0,1,78.5,18.1q5.14,2.53,10.07,5.41"/><path class="cls-12" d="M317.1,772.73A205.46,205.46,0,0,0,322,798.19a77.69,77.69,0,0,0,4,11.54c2.41,5.26,5.29,9,8.72,10.16,6.28,2.12,27,4.05,52.27,4.88l1.85.06q4.85.13,9.87.24l1.84,0,4.68.06h11l4.51,0,1.84,0c1.39,0,2.77,0,4.15-.06l2.09,0,3.84-.08,2.07-.06q3.33-.09,6.61-.23l2-.08c20.6-.89,39.72-2.8,52.82-6.15,8.83-2.25,15.38-9.06,16.87-17.44,1.79-10.13,1.64-23.63.72-36.72h0"/><path class="cls-13" d="M540.61,697a27,27,0,0,1,1.19-7.09,20.12,20.12,0,0,1,2.59-5.41,14.88,14.88,0,0,1,10.94-6.62c4.39-.27,8.66,1.84,11.91,4.8a31.57,31.57,0,0,1,2.92,3.09"/><path class="cls-13" d="M517.19,703.61a14.41,14.41,0,0,1,1.26-10.52,15.08,15.08,0,0,1,14.37-7.39,15.56,15.56,0,0,1,9,4.2"/><path class="cls-13" d="M492.66,706.46a38.08,38.08,0,0,1,8.66-2.92,38.92,38.92,0,0,1,15.87.07"/><path id="path1" class="cls-13" d="M273.48,684.6a26.86,26.86,0,0,0,.55-14.31,25.39,25.39,0,0,0-29.25-19.54,22.24,22.24,0,0,0-2.56.63"/><path id="path2" class="cls-13" d="M274,670.29a15.88,15.88,0,0,1,8.2-3.34A15,15,0,0,1,297,675.22a13.34,13.34,0,0,1,1.16,6.32"/><path id="path_2" class="cls-14" d="M306.8,741.27a11.62,11.62,0,0,1,10.41,6.58"/><path id="path_1" class="cls-14" d="M318.32,747.34a12.18,12.18,0,0,1,5.65-1,12.43,12.43,0,0,1,8.9,4.69"/><path id="path_2-2" data-name="path_2" class="cls-13" d="M305.25,738.84a12.6,12.6,0,0,1,11.87,6"/><path id="path_1-2" data-name="path_1" class="cls-13" d="M317.12,744.87a13.26,13.26,0,0,1,15.75,4"/><path id="path4" class="cls-14" d="M525.89,732.29a21.66,21.66,0,0,0-3.57-5.56,7.08,7.08,0,0,0-5.88-2.33c-2.93.45-5,3.5-5.13,6.51a10.19,10.19,0,0,0,.07,1.56,13.07,13.07,0,0,0,3.26,6.61"/><path id="path3" class="cls-14" d="M506.19,742.45c-2.41-.73-3.62-3.9-2.7-6.3a6.55,6.55,0,0,1,6-3.89,7.75,7.75,0,0,1,1.86.21"/><path id="path4-2" data-name="path4" class="cls-13" d="M528.52,731.5a25.4,25.4,0,0,0-4.28-6.51,8.54,8.54,0,0,0-7-2.72c-3.5.52-6,4.09-6.14,7.62a11,11,0,0,0,.09,1.82,15.09,15.09,0,0,0,3.9,7.74"/><path id="path3-2" data-name="path3" class="cls-13" d="M504.93,743.4c-2.89-.86-4.33-4.57-3.23-7.38a7.83,7.83,0,0,1,7.22-4.55,9.83,9.83,0,0,1,2.23.24"/><path class="cls-15" d="M322,709.66c-1.75,0-2.85-.06-2.85-.06-9.68-1-19.47-6.2-18.84-23.56h0c0-.81.08-1.65.15-2.51s.14-1.44.25-2.16a37.06,37.06,0,0,1,5.15-14.85c.21-.34.43-.66.66-1a22.42,22.42,0,0,1,6.8-6.56,21.5,21.5,0,0,1,22.75,0,.21.21,0,0,0,.1.06c5.3,3.27,11.27,8.72,12.34,17.06"/><path class="cls-15" d="M336.11,659h0a66.64,66.64,0,0,0,12.09-20.78,4.07,4.07,0,0,1,7.51-.43c.74,1.45,1.41,2.66,2,3.68a4.08,4.08,0,0,0,7.57-1.57,9,9,0,0,0,.06-2.16c-.43-5.84,7.08,20.49,9.31,22.93,2.06,2.29,8.36,2.91,21.43-2a4,4,0,0,1,4.53,1.23c2.56,3,8.69,7.19,21.11,1.16,16.12-7.83,33.31-1.64,43.32,5.07a4.11,4.11,0,0,0,5-.33c3.53-3,15.05-3.75,22.7-2.13h0"/><path class="cls-15" d="M331,694.69a15.22,15.22,0,0,0,1.32.89"/><path class="cls-15" d="M323,674.83a33.38,33.38,0,0,0,.41,5c.08.54.18,1.11.3,1.7.86,4.22,2.75,9.51,6.86,12.86.13.12.27.22.41.33"/><path class="cls-15" d="M330.59,694.35a8,8,0,0,1-1.31,1.68,4.43,4.43,0,0,1-5.85.47A17.73,17.73,0,0,0,325,702a44.67,44.67,0,0,0,3.1,5.66l.21.3c.27.42.55.82.82,1.23.46.67.9,1.3,1.35,1.9.55.77,1.08,1.48,1.59,2.11,1.47,1.91,2.54,3.12,2.54,3.12l-3.93,5.7s-2.61-3.18-5.76-7.8l-.71-1.05c-.73-1.1-1.5-2.28-2.25-3.52q-.22-.35-.45-.72h0c-.14-.23-.29-.44-.42-.68h0c-.46-.77-.9-1.55-1.34-2.33-4.08-7.35-7.2-15.61-4.84-21s5.57-6,8.28-5.07"/><path class="cls-15" d="M329.12,709.2l.68-.1h0l.94-.16c.82-.13,1.66-.3,2.5-.5l.43-.1c.4,1,.83,2.13,1.34,3.33.16.4.33.79.51,1.2a137.36,137.36,0,0,0,21.05,34.57c1.25,1.48,2.55,2.94,3.93,4.37a94.88,94.88,0,0,0,9.79,9h0A76.44,76.44,0,0,0,416.24,778l1.45,0c.78,0,1.55,0,2.3,0a67.92,67.92,0,0,0,35.63-10,67.12,67.12,0,0,0,11.2-8.71,78.56,78.56,0,0,0,15.74-21.73c.09-.18.19-.35.27-.53a99.41,99.41,0,0,0,7.42-21h0a69,69,0,0,0,2.41-9.69c2.41-13.57,1.57-27.74,1.26-31.73-.05-.72-.09-1.11-.09-1.11-.05-.92-.12-1.52-.12-1.52,0-.38-.59-6.24-.93-8.47a72.79,72.79,0,0,0-3-12.7"/><path class="cls-15" d="M427.12,720.49a18.9,18.9,0,0,1-2.93,16.94"/><path class="cls-15" d="M429.66,729.49a26.2,26.2,0,0,1,21.41-1.39"/><path class="cls-15" d="M454.09,717.27a11.66,11.66,0,0,0-1.37,10.37,14.32,14.32,0,0,0,7.88,8"/><path class="cls-15" d="M313.27,659h0c-1.16-16.31-.14-32.38,6.31-46.57,8.05-17.74,23.68-29.7,40.4-35.69s34.63-6.58,52.25-6.27c17.3.3,34.86,1.5,51.35,7.92s32,18.66,40.05,36.35c7.85,17.13,7.38,39.66-3.35,54,0,0-1.91,2.58-5.07,6"/><path class="cls-16" d="M295.89,550s18.79-24.54,54.26-34"/><path class="cls-17" d="M489.86,618.1s7.09,7.16,7.09,14.95"/><path class="cls-18" d="M376.41,744c.23.61,1.54,4.61-3.94,3.49a.81.81,0,0,1-.46-.25,7.1,7.1,0,0,1-1.66-2.44l1,4.63a3.62,3.62,0,0,1-.41,2.66,2.22,2.22,0,0,1-2.74,1.13,3.11,3.11,0,0,1-1.8-1.74c-1.19-2.72-1.38-6.17-5.19-6.1-4.34.06-5.6-4.63,3.72-6.54.25-.06,6.51-12.88,14.91-10.53,7.94,2.23,7.46,9.54,5.47,11.41a6.62,6.62,0,0,1-3,1.83.49.49,0,0,0-.37.48l.05,3.52a2.5,2.5,0,0,1-4.19,1.88.13.13,0,0,0-.07-.06,1.14,1.14,0,0,1-.19-.34C377,745.33,376.54,744.24,376.41,744Z"/><path class="cls-19" d="M384.87,739.25A6.29,6.29,0,0,1,382,740.9a.48.48,0,0,0-.37.48l0,3.53a2.5,2.5,0,0,1-4.2,1.86l-.06,0a.83.83,0,0,1-.2-.34c-.55-1.67-1-2.74-1.13-3,.24.62,1.55,4.62-3.94,3.5a.85.85,0,0,1-.45-.26,7.1,7.1,0,0,1-1.67-2.43l1.05,4.63a3.58,3.58,0,0,1-.42,2.66,2.21,2.21,0,0,1-2.73,1.12,3.06,3.06,0,0,1-1.8-1.74,9.89,9.89,0,0,1-.39-1,4.1,4.1,0,0,0,3,.43c1.06-.47.94-4.28.81-6.21a.42.42,0,0,1,.64-.39,4.53,4.53,0,0,0,2.54.56,5.56,5.56,0,0,0,3.65-1.57.43.43,0,0,1,.7.16c.47,1.26,1.59,3.77,2.4,2.19a37.24,37.24,0,0,0,1.92-4.75.44.44,0,0,1,.28-.27l2.7-.88Z"/><path class="cls-20" d="M376.38,743.88h0s0,0,0,.07"/><path class="cls-20" d="M376.41,744c.23.61,1.54,4.61-3.94,3.49a.81.81,0,0,1-.46-.25,7.1,7.1,0,0,1-1.66-2.44l1,4.63a3.62,3.62,0,0,1-.41,2.66,2.22,2.22,0,0,1-2.74,1.13,3.11,3.11,0,0,1-1.8-1.74c-1.19-2.72-1.38-6.17-5.19-6.1-4.34.06-5.6-4.63,3.72-6.54.25-.06,6.51-12.88,14.91-10.53,7.94,2.23,7.46,9.54,5.47,11.41a6.62,6.62,0,0,1-3,1.83.49.49,0,0,0-.37.48l.05,3.52a2.5,2.5,0,0,1-4.19,1.88.13.13,0,0,0-.07-.06,1.14,1.14,0,0,1-.19-.34C377,745.33,376.54,744.24,376.41,744Z"/><path class="cls-18" d="M480.14,753.53c-.27.7-1.77,5.3,4.53,4a1,1,0,0,0,.52-.29,8.12,8.12,0,0,0,1.91-2.8l-1.2,5.32a4.11,4.11,0,0,0,.48,3.05,2.52,2.52,0,0,0,3.13,1.29,3.5,3.5,0,0,0,2.07-2c1.37-3.12,1.59-7.08,6-7,5,.08,6.42-5.3-4.27-7.5-.29-.06-7.48-14.78-17.11-12.08-9.12,2.55-8.57,10.94-6.28,13.09a7.7,7.7,0,0,0,3.49,2.11.54.54,0,0,1,.42.55l-.05,4a2.87,2.87,0,0,0,4.81,2.16l.07-.07a1.25,1.25,0,0,0,.23-.38C479.48,755.11,480,753.85,480.14,753.53Z"/><path class="cls-19" d="M470.43,748.13a7.32,7.32,0,0,0,3.26,1.89.55.55,0,0,1,.42.56l-.05,4a2.87,2.87,0,0,0,4.82,2.14l.06-.06a.92.92,0,0,0,.24-.39c.63-1.91,1.15-3.15,1.29-3.47-.27.7-1.78,5.29,4.52,4a1,1,0,0,0,.53-.3,8.15,8.15,0,0,0,1.91-2.79l-1.2,5.31a4,4,0,0,0,.48,3.06,2.54,2.54,0,0,0,3.13,1.29,3.55,3.55,0,0,0,2.07-2c.16-.37.3-.75.45-1.14-1,.45-2.48.93-3.46.49-1.22-.55-1.08-4.92-.93-7.13a.48.48,0,0,0-.74-.45,5.18,5.18,0,0,1-2.91.64,6.38,6.38,0,0,1-4.19-1.8.49.49,0,0,0-.8.18c-.55,1.45-1.82,4.33-2.76,2.52a42.14,42.14,0,0,1-2.2-5.46.49.49,0,0,0-.32-.31l-3.11-1Z"/><path class="cls-20" d="M480.17,753.44h0a.45.45,0,0,1,0,.08"/><path class="cls-20" d="M480.14,753.53c-.27.7-1.77,5.3,4.53,4a1,1,0,0,0,.52-.29,8.12,8.12,0,0,0,1.91-2.8l-1.2,5.32a4.11,4.11,0,0,0,.48,3.05,2.52,2.52,0,0,0,3.13,1.29,3.5,3.5,0,0,0,2.07-2c1.37-3.12,1.59-7.08,6-7,5,.08,6.42-5.3-4.27-7.5-.29-.06-7.48-14.78-17.11-12.08-9.12,2.55-8.57,10.94-6.28,13.09a7.7,7.7,0,0,0,3.49,2.11.54.54,0,0,1,.42.55l-.05,4a2.87,2.87,0,0,0,4.81,2.16l.07-.07a1.25,1.25,0,0,0,.23-.38C479.48,755.11,480,753.85,480.14,753.53Z"/><path class="cls-12" d="M497.86,511.92a165.83,165.83,0,0,1,21.31,14.67h0A160.4,160.4,0,0,1,541.05,548c.18.21.36.41.53.62a152.69,152.69,0,0,1,19.47,29.66,144.68,144.68,0,0,1,15.43,65.07v.07a144.75,144.75,0,0,1-6.32,42.35c-9.6,31.35-29.59,58.66-56.29,78.52a168.54,168.54,0,0,1-29,17.37,177.26,177.26,0,0,1-75.55,16.68h-.08A178.08,178.08,0,0,1,343.6,786a171.46,171.46,0,0,1-26.5-13.22,164.91,164.91,0,0,1-33-26.52,154.59,154.59,0,0,1-27.06-38.46,144.94,144.94,0,0,1-14.84-56.37q-.22-4-.22-8v-.07A144.22,144.22,0,0,1,252.17,590a152.59,152.59,0,0,1,30.92-48.4,163.78,163.78,0,0,1,22.74-20.06"/><path class="cls-5" d="M440,587.14c-7.23-.69-10.42,11-17.69,10.5-3.38-.25-5.88-3.46-6-6.62s1.6-6.17,3.79-8.6c5.66-6.31,14.83-9.68,23.58-8.82.73-.53,1.13-.86,1.13-.86,3.86-1.25,7.82-2.52,11.9-2.42s8.38,1.84,10.24,5.24.17,8.39-3.78,9.34c-3.28.77-7.44-1-9.77,1.25-2,1.94-.62,5.4,1.81,6.84s5.45,1.58,8.27,2.1c4.59.86,9.06,3,11.8,6.54s3.45,8.61,1,12.34-8.28,5.38-12.18,3c-3.55-2.21-5.67-7.28-9.91-6.89-4.44.41-5.06,6.85-2,9.86s7.84,3.76,11.92,5.44c4.57,1.88,8.78,5.63,8.91,10.29s-5.88,9-10,6.4c-3.3-2.06-4.27-7.32-8.22-7.54-2.76-.16-4.82,2.64-4.83,5.21s1.37,5,2.49,7.31c2.24,4.72,3.55,10,2.28,15.07s-5.57,9.59-11.06,10.26-11.4-3.66-11-8.82c.35-4.37,4.5-7.48,7.27-11s3.43-9.77-1-11.33c-5.44-1.95-11.71,5.93-16.4,2.7-2.84-2-1.73-6.4.92-8.58s6.25-3,9.22-4.82c7.56-4.53,9.39-15.55,3.67-22-2.9,4.08-6.19,8.44-11.21,9.85s-11.7-2.25-10.64-7c1.15-5.15,8.56-5.71,13.84-7.57,6.13-2.16,10.72-7.74,11.36-13.82A4.55,4.55,0,0,0,440,587.14Z"/><path class="cls-4" d="M454.61,595s17.9-.27,20.34,9c-2.17,4.89-6-1.62-6-1.62S463.56,594.47,454.61,595Z"/><path class="cls-4" d="M461.08,626.57s8.53,1.65,8.77,6.27c-1.51,2.11-2.67-1.36-2.67-1.36S465.38,627.2,461.08,626.57Z"/><path class="cls-4" d="M439.31,656.51s-5,4.79-4.6,8.81c.3,1.37,1.06,1.15,1.74.59a3.28,3.28,0,0,0,1.16-2.69A11.79,11.79,0,0,1,439.31,656.51Z"/><path class="cls-4" d="M423.55,606.67a.22.22,0,0,0-.13-.41c-2.24.53-5.2,1.44-6.05,2.65-1.11,1.55,1.06,1,2.13.64a1.32,1.32,0,0,0,.72-.53A7.73,7.73,0,0,1,423.55,606.67Z"/><path class="cls-21" d="M443.68,573.6c-8.75-.86-17.92,2.51-23.58,8.82-2.19,2.43-3.92,5.42-3.79,8.6s2.64,6.37,6,6.62c7.27.54,10.46-11.19,17.69-10.5h0"/><path class="cls-21" d="M443.68,573.6c.73-.53,1.13-.86,1.13-.86,3.86-1.25,7.82-2.52,11.9-2.42s8.38,1.84,10.24,5.24.17,8.39-3.78,9.34c-3.28.77-7.44-1-9.77,1.25-2,1.94-.62,5.4,1.81,6.84s5.45,1.58,8.27,2.1c4.59.86,9.06,3,11.8,6.54s3.45,8.61,1,12.34-8.28,5.38-12.18,3c-3.55-2.21-5.67-7.28-9.91-6.89-4.44.41-5.06,6.85-2,9.86s7.84,3.76,11.92,5.44c4.57,1.88,8.78,5.63,8.91,10.29s-5.88,9-10,6.4c-3.3-2.06-4.27-7.32-8.22-7.54-2.76-.16-4.82,2.64-4.83,5.21s1.37,5,2.49,7.31c2.24,4.72,3.55,10,2.28,15.07s-5.57,9.59-11.06,10.26-11.4-3.66-11-8.82c.35-4.37,4.5-7.48,7.27-11s3.43-9.77-1-11.33c-5.44-1.95-11.71,5.93-16.4,2.7-2.84-2-1.73-6.4.92-8.58s6.25-3,9.22-4.82c7.56-4.53,9.39-15.55,3.67-22-2.9,4.08-6.19,8.44-11.21,9.85s-11.7-2.25-10.64-7c1.15-5.15,8.56-5.71,13.84-7.57,6.13-2.16,10.72-7.74,11.36-13.82a4.55,4.55,0,0,0,.26-2.72"/><rect class="cls-4" x="497.35" y="661.5" width="11.95" height="11.95" rx="5.98"/><rect class="cls-4" x="477.4" y="697.32" width="25.92" height="25.92" rx="12.96"/><rect class="cls-4" x="529.26" y="651.07" width="8.12" height="8.12" rx="4.06"/><rect class="cls-4" x="514.19" y="617.11" width="6.08" height="6.08" rx="2.4"/><path class="cls-4" d="M390.31,815.65c2.17-.16,3.25-.23,5.42-.36,0,.72.06,1.08.11,1.8-2.88.17-4.32.27-7.2.49-.37-4.76-.56-7.14-.93-11.9l1.85-.14Z"/><path class="cls-4" d="M401.84,816.82l-1.8.08c-.22-4.77-.34-7.16-.56-11.93l1.86-.08Z"/><path class="cls-4" d="M417.23,804.61c0,4.75,0,7.13,0,11.88H415.4c0-3.48,0-5.22,0-8.7-1,1.48-1.54,2.22-2.55,3.71l-.15.18-.09.18-.54.79-.29.48-.34-.48c-.23-.3-.34-.46-.56-.77l-.1-.18-.15-.17c-1-1.46-1.56-2.19-2.61-3.64l.2,8.7-1.8,0c-.14-4.75-.21-7.12-.34-11.87l1.89,0c1.53,2.06,2.28,3.1,3.76,5.18,1.42-2.12,2.14-3.17,3.59-5.28Z"/><path class="cls-4" d="M429,815.54a3.11,3.11,0,0,1-2.08,1.07c-2.12-.05-3.19-.07-5.31-.09.07-4.73.1-7.1.17-11.84,2.15,0,3.22.07,5.36.14a2.81,2.81,0,0,1,2.08,1.12,3.34,3.34,0,0,1,.72,2.25,3,3,0,0,1-1.13,2.36l.15.15.12.16a3.35,3.35,0,0,1,.85,2.43A3.43,3.43,0,0,1,429,815.54Zm-5.45-5.94,3,.1a1.44,1.44,0,0,0,1.09-.48,1.63,1.63,0,0,0,.46-1.1,1.45,1.45,0,0,0-.39-1.09,1.56,1.56,0,0,0-1.07-.45c-1.21,0-1.81-.05-3-.07C423.59,807.74,423.58,808.36,423.56,809.6Zm3,5.23a1.31,1.31,0,0,0,1.07-.45,1.72,1.72,0,0,0,.46-1.15,1.87,1.87,0,0,0-.38-1.22,1.35,1.35,0,0,0-1.05-.54l-3.17-.07c0,1.34,0,2-.06,3.36C424.71,814.78,425.34,814.79,426.59,814.83Zm-.35,1.79.51,0Z"/><path class="cls-4" d="M433.27,810.88a5.92,5.92,0,0,1,1.87-4.15,5.84,5.84,0,0,1,8.35.52,6,6,0,0,1,1.4,4.35,6.05,6.05,0,0,1-2,4.09,5.6,5.6,0,0,1-8.17-.51A6.08,6.08,0,0,1,433.27,810.88Zm1.83.09a4.3,4.3,0,0,0,1,3,3.83,3.83,0,0,0,5.59.35,4.31,4.31,0,0,0,1.37-2.91,4,4,0,0,0-.95-3,3.83,3.83,0,0,0-2.78-1.42,3.75,3.75,0,0,0-2.91,1.06A4.1,4.1,0,0,0,435.1,811Z"/></g></svg>