<svg xmlns="http://www.w3.org/2000/svg" viewBox="0 0 818.48 1313.61"><defs><style>.cls-1{fill:#8affc4;}.cls-2{fill:#91b3fb;}.cls-3{fill:#4a78bc;}.cls-4{fill:#c9c9ff;}.cls-5{fill:#9595db;}.cls-6{fill:#fff;}.cls-7{fill:#3f3f3f;}.cls-8{fill:#fed0b9;}.cls-9{fill:#ffb392;}.cls-10{fill:#ccc;}.cls-11,.cls-12{fill:none;stroke:#3f3f3f;}.cls-11{stroke-linecap:round;stroke-linejoin:round;stroke-width:4px;}.cls-12{stroke-miterlimit:10;stroke-width:3px;}.cls-13{fill:#333;}</style></defs><g id="Layer_2" data-name="Layer 2"><rect class="cls-1" x="0.22" y="350.44" width="819.39" height="582.13"/></g><g id="Layer_8" data-name="Layer 8"><path class="cls-2" d="M524.57,815.79H313.31c5.08-33.77,16.37-57.63,26.56-73.19-19.2-10.65-32.05-27.92-41.3-44.55-3.59-6.45-6.77-12.52-2.87-21.55,5-11.66,15.14-18.76,25.06-23.06a30.2,30.2,0,0,1,5.08-1.67l6.31-1.49c2.88,5.29,5.46,9.08,5.46,9.08l4.28-5.15s-1.65-2.23-3.54-5.39l6.61-1.56a133.41,133.41,0,0,0,20.83,34.56c1.21,1.43,2.47,2.84,3.8,4.23a91.62,91.62,0,0,0,9.46,8.7h0a75.14,75.14,0,0,0,29.81,14.69l-.18.73A100.8,100.8,0,0,1,425,731.52c13.81-4.88,30.18-13.83,36.47-29.74a65,65,0,0,0,10.82-8.42,75.83,75.83,0,0,0,15.21-21c10.94,7,21.42,22.4,3.66,55.69a.83.83,0,0,1-.07.13q-.45.86-.93,1.71c10.94,11,29.15,35.27,33.73,78.18h0C524.17,810.6,524.4,813.16,524.57,815.79Z"/><polygon class="cls-3" points="370.76 786.8 375.87 815.79 368.22 815.79 370.76 786.8"/><path class="cls-3" d="M346,731.63l-5.63,11.06c-19.15-10.65-32-27.9-41.21-44.5-3.59-6.45-6.77-12.52-2.87-21.55,5-11.66,15.14-18.76,25.06-23.06a30.2,30.2,0,0,1,5.08-1.67l6.31-1.49c1.92,3.53,3.71,6.4,4.69,7.91-8,4.39-15.4,10.86-19.5,20.33-3.9,9-.72,15.1,2.87,21.55C327.65,712.55,334,721.56,346,731.63Z"/><path class="cls-4" d="M497.39,600.84c-7.39-1.57-18.53-.87-21.94,2a4,4,0,0,1-4.83.32c-9.68-6.48-26.29-12.46-41.86-4.9-12,5.83-17.93,1.82-20.4-1.12A3.89,3.89,0,0,0,404,596c-12.63,4.78-18.72,4.18-20.71,2-2.15-2.36-9.41-27.81-9-22.16a9.53,9.53,0,0,1-.06,2.09,3.94,3.94,0,0,1-7.32,1.51c-.6-1-1.24-2.15-2-3.55a3.93,3.93,0,0,0-7.26.41A64.34,64.34,0,0,1,346,596.35l-.09-.05a21,21,0,0,0-28.56,6.36c-.22.32-.43.63-.63,1a36.72,36.72,0,0,0-5.22,16.44c-.07.83-.13,1.64-.15,2.42h0c-.62-.52-14.79-12.83-1.31-33.51-3.74-12-8.37-19.41.84-33.08S333,550.2,334,552c-2.05-6.16-3.84-28.18,9.78-31.18s21.28,5,21.95,7.45c.6-5.89,3.68-27.32,18.52-27.46,9.87-1.07,19,1.12,25.62,12.1,5.48-7.89,19.09-20.32,33.61-12.72,8.08,3.49,14.1,11.53,17.27,20,0,0,19.46-20.85,33.36-3.74s2.72,32.29-2.08,34.77c6.33-.79,34.36,5.18,25.92,39.63-4.39,14.36-15.09,16.48-15.09,16.48s-1.2.18-3.07.41l-1.64.19C498,605.34,497.71,603,497.39,600.84Z"/><path class="cls-5" d="M330.35,569.64c-6.42,9.85-6.57,17.79-4.9,23.47a21.81,21.81,0,0,0-8.92,7.61c-.22.32-.43.63-.63,1a36.72,36.72,0,0,0-5.22,16.44c-.07.83-.13,1.64-.15,2.42h0c-.62-.52-14.79-12.83-1.31-33.51-3.74-12-8.37-19.41.84-33.08,5.21-7.74,11.62-8.54,16.39-7.45C324.42,554.57,327.62,560.88,330.35,569.64Z"/><path class="cls-3" d="M477,781.71l14.7,33.16H478.48a1.36,1.36,0,0,1-1.51-1.52Z"/><path class="cls-6" d="M492.56,651.6l-13.27.69c-6.15.32-11.36-5-11.65-12l-.74-17.82c-.28-6.94,4.47-12.83,10.62-13.16l13.61-.71a10,10,0,0,1,4.36.75,12.52,12.52,0,0,1,7.29,11.24l.74,17.82c.28,6.94-4.47,12.83-10.61,13.16Zm6.66-16.27c1.64-3.58.4-8-2.77-9.84s-7.08-.45-8.72,3.13a7.79,7.79,0,0,0,2.78,9.85C493.68,640.32,497.58,638.92,499.22,635.33Z"/><path class="cls-7" d="M496.2,625.22a7.43,7.43,0,0,1,3,9.84,7,7,0,0,1-9.52,3.14,7.44,7.44,0,0,1-3-9.85A7,7,0,0,1,496.2,625.22Z"/><path class="cls-8" d="M341.05,630.85h0c-4.25-3.22-6.16-8.53-7-12.75-2.52-1.18-5.61-.91-8.4,4.17s-.45,13.21,2.85,20.64c.35.79.71,1.58,1.08,2.35h0c-9.36-.94-18.82-6-18.21-22.77h0c0-.78.08-1.59.15-2.42a36.72,36.72,0,0,1,5.22-16.44c.2-.33.41-.64.63-1a21,21,0,0,1,28.56-6.36l.09.05a64.34,64.34,0,0,0,11.68-20.08,3.93,3.93,0,0,1,7.26-.41c.72,1.4,1.36,2.57,2,3.55a3.94,3.94,0,0,0,7.32-1.51,9.53,9.53,0,0,0,.06-2.09c-.42-5.65,6.84,19.8,9,22.16,2,2.21,8.08,2.81,20.71-2a3.89,3.89,0,0,1,4.38,1.19c2.47,2.94,8.39,6.95,20.4,1.12,15.57-7.56,32.18-1.58,41.86,4.9a4,4,0,0,0,4.83-.32c3.41-2.92,14.55-3.62,21.94-2,.32,2.15.59,4.5.8,7.08,0,.37.05.73.09,1.1l-.14.34a11.82,11.82,0,0,0-4.76-.75l-14.87.71a12.44,12.44,0,0,0-11.6,13.16l.8,17.82a12.34,12.34,0,0,0,12.73,12l14.5-.69a96.1,96.1,0,0,1-7.17,20.25c-.08.17-.17.34-.26.51a75.83,75.83,0,0,1-15.21,21,65,65,0,0,1-10.82,8.42c-10.52,6.52-23.25,10.11-38.06,9.59a73.81,73.81,0,0,1-44.36-16.61h0a91.62,91.62,0,0,1-9.46-8.7c-1.33-1.39-2.59-2.8-3.8-4.23A133.41,133.41,0,0,1,345,647.26c-.57-1.36-1.06-2.61-1.49-3.73a22.21,22.21,0,0,1-6.93,2.09l-.18-.31a42.31,42.31,0,0,1-2.49-5.72,16.94,16.94,0,0,1-1-5.43S337.22,638.25,341.05,630.85Zm84.74,24.07a12.44,12.44,0,0,0,11.6-13.16l-.8-17.82a12.34,12.34,0,0,0-12.73-12l-14.88.72a12.43,12.43,0,0,0-11.59,13.15l.8,17.83a12.33,12.33,0,0,0,12.73,12Zm-39.46,6c-.12-2.82-3.7-6.42-3.7-6.42l-1.57,5.73S382.93,666.27,386.33,660.93Z"/><path class="cls-9" d="M490.8,651.78c-1,2.77-2.2,5.47-3.48,8.09-.08.17-.17.34-.26.51a75.83,75.83,0,0,1-15.21,21A65,65,0,0,1,461,689.8c-10.52,6.52-23.25,10.11-38.06,9.59a73.81,73.81,0,0,1-44.36-16.61h0a91.62,91.62,0,0,1-9.46-8.7c-1.33-1.39-2.59-2.8-3.8-4.23a133.41,133.41,0,0,1-20.83-34.56c-.57-1.36-1.06-2.61-1.49-3.73a21.57,21.57,0,0,1-3.78,1.44c-3.43,4.36-6.85,1.17-6.85,1.17a16.94,16.94,0,0,0,1,5.43,42.31,42.31,0,0,0,2.49,5.72l.18.31a22.21,22.21,0,0,0,6.93-2.09c.43,1.12.92,2.37,1.49,3.73a133.41,133.41,0,0,0,20.83,34.56c1.21,1.43,2.47,2.84,3.8,4.23a91.62,91.62,0,0,0,9.46,8.7h0A73.81,73.81,0,0,0,423,711.37c14.81.52,27.54-3.07,38.06-9.59a65,65,0,0,0,10.82-8.42,75.83,75.83,0,0,0,15.21-21c.09-.17.18-.34.26-.51a96.1,96.1,0,0,0,7.17-20.25Z"/><path class="cls-3" d="M338.35,745s-7.5,63.54-6.63,69.89H314.43S324.8,752,338.35,745Z"/><path class="cls-3" d="M466.58,815.79H380.76C403,804.69,440,792.53,466.58,815.79Z"/><path class="cls-2" d="M461.48,701.78c-6.29,15.91-22.66,24.86-36.47,29.74a100.8,100.8,0,0,0-16.32-21.34l.18-.73a74.61,74.61,0,0,0,14.55,1.92C438.23,711.89,451,708.3,461.48,701.78Z"/><path class="cls-3" d="M461.66,700.92c-5.55,16.18-21.49,25.87-35.07,31.38-.63-1-1.27-1.95-1.91-2.89,10.95-4.87,22.77-12.46,29.17-23.93A62.78,62.78,0,0,0,461.66,700.92Z"/><path class="cls-3" d="M421.6,711.61a100.28,100.28,0,0,1,12.58,16.75c-2.92,1.36-5.85,2.52-8.66,3.52a100.8,100.8,0,0,0-16.32-21.34l.18-.73A73.81,73.81,0,0,0,421.6,711.61Z"/><path class="cls-6" d="M437.39,641.76a12.44,12.44,0,0,1-11.6,13.16l-14.87.71a12.33,12.33,0,0,1-12.73-12l-.8-17.83A12.43,12.43,0,0,1,409,612.67l14.88-.72a12.34,12.34,0,0,1,12.73,12ZM432.65,640a7.43,7.43,0,0,0-3-9.84,7,7,0,0,0-9.52,3.13,7.42,7.42,0,0,0,3,9.85A7,7,0,0,0,432.65,640Z"/><path class="cls-10" d="M417.23,654.88a12.33,12.33,0,0,1-12.73-12l-.8-17.83a12.53,12.53,0,0,1,9.37-12.83l-2.57.12a12.43,12.43,0,0,0-11.59,13.15l.8,17.83a12.33,12.33,0,0,0,12.73,12l14.87-.71a11.34,11.34,0,0,0,2.19-.32Z"/><path class="cls-10" d="M486.21,653.07a12.33,12.33,0,0,1-12.73-12l-.8-17.83a12.53,12.53,0,0,1,9.37-12.83l-2.57.12a12.43,12.43,0,0,0-11.59,13.15l.8,17.83a12.33,12.33,0,0,0,12.73,12l14.87-.71a11.34,11.34,0,0,0,2.19-.32Z"/><path class="cls-7" d="M429.62,630.2a7.43,7.43,0,0,1,3,9.84,7,7,0,0,1-9.52,3.14,7.42,7.42,0,0,1-3-9.85A7,7,0,0,1,429.62,630.2Z"/><path class="cls-6" d="M341.89,654.21l-4.28,5.15s-2.58-3.79-5.46-9.08c-.74-1.35-1.5-2.8-2.24-4.31h0c-.12-.23-.24-.45-.35-.7h0c-.37-.77-.73-1.56-1.08-2.35-3.3-7.43-5.59-15.64-2.85-20.64s5.88-5.35,8.4-4.17c.86,4.22,2.77,9.53,7,12.75h0c-3.83,7.4-8.21,3.31-8.21,3.31a16.94,16.94,0,0,0,1,5.43,42.31,42.31,0,0,0,2.49,5.72l.18.31c.6,1.13,1.21,2.21,1.81,3.2C340.24,652,341.89,654.21,341.89,654.21Z"/><path class="cls-11" d="M357.93,612.84c-1-8.06-6.8-13.33-11.93-16.49l-.09-.05a21,21,0,0,0-28.56,6.36c-.22.32-.43.63-.63,1a36.72,36.72,0,0,0-5.22,16.44c-.07.83-.13,1.64-.15,2.42h0c-.61,16.78,8.85,21.83,18.21,22.77"/><path class="cls-11" d="M346,596.36h0a64.34,64.34,0,0,0,11.68-20.08,3.93,3.93,0,0,1,7.26-.41c.72,1.4,1.36,2.57,2,3.55a3.94,3.94,0,0,0,7.32-1.51,9.53,9.53,0,0,0,.06-2.09c-.42-5.65,6.84,19.8,9,22.16,2,2.21,8.08,2.81,20.71-2a3.89,3.89,0,0,1,4.38,1.19c2.47,2.94,8.39,6.95,20.4,1.12,15.57-7.56,32.18-1.58,41.86,4.9a4,4,0,0,0,4.83-.32c3.41-2.92,14.55-3.62,21.94-2"/><path class="cls-11" d="M311.35,622.49c-.62-.52-14.79-12.83-1.31-33.51-3.74-12-8.37-19.41.84-33.08S333,550.2,334,552c-2.05-6.16-3.84-28.18,9.78-31.18s21.28,5,21.95,7.45c.6-5.89,3.68-27.32,18.52-27.46,9.87-1.07,19,1.12,25.62,12.1,5.48-7.89,19.09-20.32,33.61-12.72,8.08,3.49,14.1,11.53,17.27,20,0,0,19.46-20.85,33.36-3.74s2.72,32.29-2.08,34.77c6.33-.79,34.36,5.18,25.92,39.63-4.39,14.36-15.09,16.48-15.09,16.48s-1.2.18-3.07.41l-1.64.19"/><path class="cls-11" d="M449.11,547.42s5.68-2.24,8.82-.64c4.66,2.38,3.34,11.19-2.7,10"/><path class="cls-11" d="M395.72,542.71s-6.81-2.8-10.59-.93c-5.59,2.77-4,13.38,3.22,12"/><path class="cls-11" d="M341.05,630.85a14.29,14.29,0,0,0,1.28.86"/><path class="cls-11" d="M333.34,611.66a33.68,33.68,0,0,0,.69,6.43c.86,4.22,2.77,9.53,7,12.75"/><path class="cls-11" d="M341.05,630.84h0c-3.83,7.4-8.21,3.31-8.21,3.31a16.94,16.94,0,0,0,1,5.43,42.31,42.31,0,0,0,2.49,5.72l.18.31c.6,1.13,1.21,2.21,1.81,3.2,1.89,3.16,3.54,5.39,3.54,5.39l-4.28,5.15s-2.58-3.79-5.46-9.08c-.74-1.35-1.5-2.8-2.24-4.31h0c-.12-.23-.24-.45-.35-.7h0c-.37-.77-.73-1.56-1.08-2.35-3.3-7.43-5.59-15.64-2.85-20.64s5.88-5.35,8.4-4.17"/><path class="cls-11" d="M349.79,639a24.6,24.6,0,0,1-6.32,4.53,22.21,22.21,0,0,1-6.93,2.09"/><path class="cls-11" d="M425.79,654.92l-14.87.71a12.33,12.33,0,0,1-12.73-12l-.8-17.83A12.43,12.43,0,0,1,409,612.67l14.88-.72a12.34,12.34,0,0,1,12.73,12l.8,17.82A12.44,12.44,0,0,1,425.79,654.92Z"/><path class="cls-11" d="M496.3,609.36a12.5,12.5,0,0,1,7.5,11.24l.76,17.82c.29,6.94-4.6,12.83-10.91,13.16l-.36,0-13.65.69c-6.32.32-11.68-5-12-12l-.75-17.82c-.3-6.94,4.59-12.83,10.91-13.16l14-.71A10.53,10.53,0,0,1,496.3,609.36Z"/><path class="cls-11" d="M447.51,660.28s4.16-3.73,10-.48"/><path class="cls-12" d="M382.63,654.51l-1.57,5.73s1.87,6,5.27.69C386.21,658.11,382.63,654.51,382.63,654.51Z"/><path class="cls-11" d="M343.47,643.53c.43,1.12.92,2.37,1.49,3.73a133.41,133.41,0,0,0,20.83,34.56c1.21,1.43,2.47,2.84,3.8,4.23a91.62,91.62,0,0,0,9.46,8.7h0a73.81,73.81,0,0,0,44.36,16.61c14.81.52,27.54-3.07,38.06-9.59a65,65,0,0,0,10.82-8.42,75.83,75.83,0,0,0,15.21-21c.09-.17.18-.34.26-.51a96.1,96.1,0,0,0,7.17-20.25h0"/><path class="cls-11" d="M498.28,609c0-.37-.06-.73-.09-1.1-.21-2.58-.48-4.93-.8-7.08a71.11,71.11,0,0,0-2.9-12.28"/><path class="cls-11" d="M313.31,815.79c5.08-33.77,16.37-57.63,26.56-73.19,10.61-16.2,20-23.4,20-23.4"/><path class="cls-11" d="M370,770c.47,4.71,2.1,22-1.82,45.81"/><path class="cls-11" d="M476.62,778.32s7.23,8.71,13.13,37.47"/><path class="cls-11" d="M523.9,808.08s0,0,0,0"/><path class="cls-11" d="M482.55,742.27c2.95-4.37,5.47-8.49,7.62-12.38q.48-.85.93-1.71a.83.83,0,0,0,.07-.13c17.76-33.29,7.28-48.72-3.66-55.69"/><path class="cls-11" d="M408.69,710.18A100.8,100.8,0,0,1,425,731.52"/><path class="cls-11" d="M369.59,686.05c-20.38-2.31-25.19.47-25.19.47"/><path class="cls-11" d="M425,731.52c13.81-4.88,30.18-13.83,36.47-29.74"/><polyline class="cls-11" points="524.57 815.79 489.75 815.79 466.58 815.79 380.76 815.79 373.34 815.79 368.22 815.79 313.31 815.79"/><path class="cls-11" d="M490.17,729.89c10.94,11,29.15,35.27,33.73,78.18h0c.27,2.51.5,5.07.67,7.7"/><line class="cls-11" x1="344.96" y1="647.26" x2="338.35" y2="648.82"/><path class="cls-11" d="M339.87,742.6c-19.2-10.65-32.05-27.92-41.3-44.55-3.59-6.45-6.77-12.52-2.87-21.55,5-11.66,15.14-18.76,25.06-23.06a30.2,30.2,0,0,1,5.08-1.67l6.31-1.49"/><path class="cls-11" d="M353.92,680.18a52.21,52.21,0,0,1,11.87,1.64"/><path class="cls-6" d="M503.51,573.23a13.3,13.3,0,0,1,1.76,1.76l.07.09c.06.08.12.15.17.23s.25.35.37.53c.23.35.45.72.65,1.1l.25.51.15.33c-.07-.15,0-.06,0,0,.15.4.3.81.41,1.22a11.71,11.71,0,0,1,.28,1.17l.06.35c0,.12,0,.19,0,0,0,.23.05.47.07.71a1.5,1.5,0,0,0,3,0,14.59,14.59,0,0,0-5.14-10.18,1.54,1.54,0,0,0-2.12,0,1.51,1.51,0,0,0,0,2.12Z"/><path class="cls-6" d="M441,514.6a13.75,13.75,0,0,1,2.2,1.34c-.16-.12-.11-.08,0,0l.22.18c.17.14.33.28.48.43a11.15,11.15,0,0,1,.9.92c.14.17.28.33.41.5s-.09-.13,0,0l.17.24c.25.35.48.71.7,1.08s.4.76.58,1.15-.06-.16,0,0l.11.27c.08.22.16.44.23.66a1.5,1.5,0,1,0,2.89-.8,14.54,14.54,0,0,0-7.43-8.62A1.5,1.5,0,1,0,441,514.6Z"/><path class="cls-6" d="M471.5,524.28q.38-.4.78-.78l.44-.38.21-.17c-.12.09-.08.06,0,0a15.49,15.49,0,0,1,2.06-1.25l.51-.25.27-.11c.14-.07-.15,0,.1,0s.77-.29,1.16-.42a17.88,17.88,0,0,1,2.51-.57,1.51,1.51,0,0,0,1.05-1.85,1.54,1.54,0,0,0-1.84-1,16.07,16.07,0,0,0-9.39,4.75,1.5,1.5,0,1,0,2.12,2.12Z"/><path class="cls-13" d="M408.64,778.65a.41.41,0,0,1,.13.39.48.48,0,0,1-.29.34,8.42,8.42,0,0,1-3.82.64.58.58,0,0,1-.43-.23.51.51,0,0,1-.09-.4,38.43,38.43,0,0,0,.35-3.87c.05-1.15.05-2.52,0-4.12,0-.62-.09-1.62-.18-2.92-.16-2.25-.38-4.61-.66-7a.71.71,0,0,1,.21-.36.76.76,0,0,1,.4-.2c.31,0,.54.17.64.51.16,1.59.25,2.39.42,4,.23,2.46.39,4.33.45,5.58,0,.3,0,.45,0,.75v.75a44.66,44.66,0,0,1-.17,6.52h0a2.12,2.12,0,0,0,.42,0h.14a.13.13,0,0,0,.1,0,5.37,5.37,0,0,0,1.41-.39.73.73,0,0,1,.95.16Z"/><path class="cls-13" d="M413.63,760.08a.44.44,0,0,1,.36.21.71.71,0,0,1,.1.42,25.53,25.53,0,0,0-.06,4c0,.32,0,.48,0,.8s.05.49.08.83c.09.9.27,2.28.57,4.16.09.57.13.85.22,1.41.2,1.49.42,2.74.48,3.64,0,.38,0,.7,0,.88s0,.27,0,.46l0,.45v.24l.05.45v.25a1.67,1.67,0,0,0,0,.37l0,.09c.3.21.33.45.05.72a.54.54,0,0,1-.43.2.81.81,0,0,1-.51-.12,1.27,1.27,0,0,1-.44-1.07v-1c0-.56-.05-1.05-.09-1.42v-.32l0-.35c0-.66-.16-1.46-.29-2.36s-.2-1.39-.33-2.31c-.15-1.09-.23-1.63-.37-2.71,0-.3,0-.45-.07-.75l-.1-.74a29.68,29.68,0,0,1,0-6,.47.47,0,0,1,.25-.34A.74.74,0,0,1,413.63,760.08Z"/><path class="cls-13" d="M430.77,777.61c.07.32-.13.54-.57.64a.75.75,0,0,1-.49-.12.77.77,0,0,1-.31-.31c-.15-.54-.29-1.23-.49-2-.1-.41-.15-.61-.24-1s-.15-.59-.24-1c-.16-.78-.23-1.17-.39-1.95-.23-1.19-.56-3-1-5.38-.32-1.87-.5-3.23-.61-4-.08.31-.12.47-.21.79l-.2.81c-.38,1.5-.57,2.25-1,3.74-.08.09-.13.19-.21.27a.67.67,0,0,1-.34.18.55.55,0,0,1-.43-.05.63.63,0,0,1-.28-.23l-.5-.88-.5-.85-1.18-2L421,763v0c.08.33.12.5.19.84.32,1.43.49,2.14.82,3.56s.56,2.53.8,3.57.49,2.18.83,3.57c.16.72.24,1.07.41,1.79s.25,1.07.42,1.78c.05.32-.17.55-.6.62s-.72-.1-.78-.45c-.18-.81-.27-1.21-.44-2l-.47-2c-.35-1.58-.87-4-1.55-7.15-.64-2.77-.94-4.15-1.52-6.92,0-.34.12-.55.52-.59l.15,0c.06,0,.09,0,.12,0a.62.62,0,0,1,.65.22c.15.27.34.63.58,1l.2.3.2.29.35.64c.13.24.2.36.34.6l.66,1.16c.49.88,1,1.68,1.38,2.35l.1-.39c.09-.42.26-1,.46-1.66.08-.34.12-.5.21-.84s.12-.49.21-.81v0c.37-1.33.55-2,.9-3.32a.57.57,0,0,1,.56-.47c.36,0,.59.15.65.44.1.77.15,1.15.26,1.91l.25,2c.43,2.7.84,5.13,1.29,7.31C429.65,773,430.19,775.45,430.77,777.61Z"/><path class="cls-13" d="M443.09,770.13a7.34,7.34,0,0,1-.92,3.86,4,4,0,0,1-1.79,1.68,9.89,9.89,0,0,1-2.23.55c0,.23-.25.35-.52.43a.56.56,0,0,1-.48-.08.91.91,0,0,1-.3-.32c-.25-.82-.38-1.23-.63-2s-.34-1.18-.56-2c-.64-2.24-1-3.36-1.57-5.61l-.37-1.3c-.39-1.44-.58-2.16-1-3.61s-.56-2.15-.93-3.59a.36.36,0,0,1,.11-.35l0-.1a.48.48,0,0,1,.2-.37.68.68,0,0,1,.43-.13,8.4,8.4,0,0,1,2.35.18,3.6,3.6,0,0,1,1.62.84,2.16,2.16,0,0,1,.66,1.71,3.43,3.43,0,0,1-1,2.06,6.65,6.65,0,0,1,3.26,1.36,9.1,9.1,0,0,1,2.68,3.21,9.19,9.19,0,0,1,.63,1.56A7.88,7.88,0,0,1,443.09,770.13Zm-8.94-7.93.11-.1a6,6,0,0,0,.76-.59,2.89,2.89,0,0,0,.5-.59l.2-.23s0,0,0-.09l.18-.55v-.44l-.07-.32s-.05-.07-.06-.09-.05-.08-.06-.1l-.11-.06a.6.6,0,0,0-.25-.25l0-.07s0,0-.06,0h-.07s0,0,0-.05l-.15-.08s-.06,0-.14-.06a.12.12,0,0,1-.05-.07s-.06,0-.09,0l-.14,0v0l-.37-.1,0,0a.12.12,0,0,1-.1,0s0,0-.06,0h0l0,0H434c-.09,0-.12,0-.15,0s0,0-.13,0l-.29,0a1.07,1.07,0,0,1-.25,0h-.09a8.57,8.57,0,0,0,.23.91c.12.39.2.7.25.91l.55,1.94Zm0,.6a.47.47,0,0,1,0-.6,5,5,0,0,1,.22.78A.39.39,0,0,1,434.14,762.8Zm-.42-4.59,0,0,.07,0s0,0,0,0Zm7.86,10.51c-.05-.17-.08-.26-.13-.44s-.17-.46-.31-.84l0-.05,0,0-.05-.18,0-.05,0-.07-.18-.4-.23-.34-.23-.36c-.22-.31-.43-.57-.63-.8v0s-.07,0-.12-.09l-.06-.07,0,0s0-.07-.06-.1l-.36-.34v0l-.17-.13h0l-.42-.35h-.07l-.12-.09-.85-.48-.15-.05-.14-.06-.14-.05-.47-.15A1.72,1.72,0,0,0,436,763l0,0h-.1a.26.26,0,0,1-.16,0l0,0,0,0a3.63,3.63,0,0,0-.89.06.79.79,0,0,1-.4,0l.73,2.62c.4,1.41.6,2.11,1,3.52.61,2.15,1.2,4.17,1.81,6.08l.23-.05.24,0L439,775l.09,0,.27-.05a.2.2,0,0,0,.09,0l.14,0,.12-.05a.8.8,0,0,0,.25-.11.25.25,0,0,1,.12-.07l.1,0a.16.16,0,0,1,.09-.05l.26-.21h0l.16-.19.11-.11c.17-.28.33-.59.46-.86a1.4,1.4,0,0,0,.16-.42l.1-.27,0-.09v-.08s0-.06,0-.12v-.06l0-.06c0-.24.07-.36.11-.6a6.27,6.27,0,0,0,0-1.74.32.32,0,0,1,0-.14l0-.08,0-.32C441.63,769,441.61,768.9,441.58,768.72Z"/><path class="cls-13" d="M453.72,766.66a1.74,1.74,0,0,1,.14.47,7.31,7.31,0,0,1,.14,4.22,5.43,5.43,0,0,1-1.07,1.79h0a2.33,2.33,0,0,1-1.19.84,1.79,1.79,0,0,1-1.21-.17v0a1.86,1.86,0,0,1-.79-.61l-.26-.35c-.1-.15-.15-.23-.24-.39l0-.05-.06-.06c-.22-.45-.33-.67-.56-1.12l-.53-1.06a35,35,0,0,1-1.4-3.62,38.78,38.78,0,0,1-1.81-9.81v-.5c0-.19,0-.28,0-.47a3.19,3.19,0,0,1,.28-1v0a1.53,1.53,0,0,1,.93-.8.7.7,0,0,1,.79.19v0c.09.09.2.23.36.41l.17.23.21.25a34.63,34.63,0,0,1,4.52,7.82c.3.65.56,1.38.86,2.06.12.26.3.7.51,1.26Zm-.76,3a9.14,9.14,0,0,0-.66-3.11l-.45-1.22c-.07-.16-.1-.24-.18-.4-.46-1.19-.93-2.21-1.34-3.08a27.16,27.16,0,0,0-4.05-6.59l0,.07s0,.06,0,.09,0,.26-.08.44l0,.18,0,.1a1.75,1.75,0,0,0,0,.55v.3l0,.33c0,.14,0,.21,0,.35,0,.39.07.88.15,1.44s.18,1.2.31,2.06c.08.5.23,1.19.42,2.06a29.07,29.07,0,0,0,.87,3,35,35,0,0,0,2.15,5l.23.47v0l.26.44.23.33.05,0,0,.08c.05,0,.06,0,.06.07s.05,0,.09,0l.16.16.05,0,.16,0h.11l.07-.1a.15.15,0,0,0,.08-.08l.13-.14s0,0,.05,0l.11-.11.07-.11.24-.34.14-.2.08-.16v0l.18-.38c0-.09.06-.24.11-.39s0-.27.09-.44l.08-.05.09-.06c.09-.05.11-.08.12-.06l-.27.05v-.17l0-.15a.17.17,0,0,1,0-.11v-.08l0-.23Zm-6.71-14.39v0Z"/></g></svg>