<svg xmlns="http://www.w3.org/2000/svg" viewBox="0 0 818.48 1313.61"><defs><style>.cls-1{fill:#f5d773;}.cls-2{fill:#ff8d8d;}.cls-3{fill:#e07070;}.cls-4{fill:#c9c9ff;}.cls-5{fill:#9595db;}.cls-6{fill:#fff;}.cls-7{fill:#fed0b9;}.cls-8{fill:#3f3f3f;}.cls-9{fill:#ffb392;}.cls-10{fill:#ccc;}.cls-11{fill:none;stroke:#3f3f3f;stroke-linecap:round;stroke-linejoin:round;stroke-width:4px;}.cls-12{fill:#ede6e4;}.cls-13{fill:#e5e5e5;}</style></defs><g id="Layer_6" data-name="Layer 6"><rect class="cls-1" x="-0.46" y="365.74" width="819.39" height="582.13"/><path class="cls-2" d="M546.58,821.14H335.32c5.08-33.77,16.37-57.63,26.56-73.19-19.2-10.65-32.05-27.92-41.3-44.55-3.59-6.45-6.77-12.52-2.87-21.55,5-11.66,15.14-18.76,25.06-23.06a30.2,30.2,0,0,1,5.08-1.67l6.31-1.49c2.88,5.29,5.46,9.08,5.46,9.08l4.28-5.15s-1.65-2.23-3.54-5.39l6.61-1.56a133.41,133.41,0,0,0,20.83,34.56c1.21,1.43,2.47,2.84,3.8,4.23a91.62,91.62,0,0,0,9.46,8.7h0a75.14,75.14,0,0,0,29.81,14.69l-.18.73A100.8,100.8,0,0,1,447,736.87C460.83,732,477.2,723,483.49,707.13a65,65,0,0,0,10.82-8.42,75.83,75.83,0,0,0,15.21-21c10.94,7,21.42,22.4,3.66,55.69a.83.83,0,0,1-.07.13q-.45.86-.93,1.71c10.94,11,29.15,35.27,33.73,78.18h0C546.18,816,546.41,818.51,546.58,821.14Z"/><polygon class="cls-3" points="392.78 792.16 397.88 821.15 390.23 821.14 392.78 792.16"/><path class="cls-4" d="M335.94,610.69a38.81,38.81,0,0,0-3.25,12.79c-.07.83-.13,1.64-.15,2.42h0a21.39,21.39,0,0,1-4.93-6.7s0,0,0,0c-1.7-4.65-2.28-11.07,1.24-19,.26-.58.54-1.16.85-1.76.15-.3.31-.6.47-.9s.33-.61.51-.92c0,.13.05.25.07.38A41.38,41.38,0,0,0,335.94,610.69Z"/><path class="cls-4" d="M540.52,593.88c-.15.76-.33,1.53-.52,2.32-4.39,14.36-15.09,16.48-15.09,16.48s-1.2.18-3.07.41l-1.64.19c-.21-2.58-.48-4.93-.8-7.08-7.39-1.57-18.53-.87-21.94,2a4,4,0,0,1-4.83.32c-9.68-6.48-26.29-12.46-41.86-4.9-12,5.83-17.93,1.82-20.4-1.12a3.89,3.89,0,0,0-4.38-1.19c-12.63,4.78-18.72,4.18-20.71,2a3.33,3.33,0,0,1-.41-.61c-.11-.2-.23-.44-.36-.71s-.19-.4-.29-.63l-.53-1.27-.18-.45c-.2-.53-.42-1.09-.64-1.69a.88.88,0,0,1-.05-.15c-.19-.49-.38-1-.56-1.53l-.06-.18h0a5,5,0,0,1,.53-.11,355.7,355.7,0,0,1,122.07-2c4.52.71,9.17,1.51,13.62.51A13.1,13.1,0,0,0,540.52,593.88Z"/><path class="cls-5" d="M329.06,596.08c-.41.8-.78,1.58-1.12,2.34-3.95,9-2.58,16.06-.34,20.76,0,0,0,0,0,0a21.39,21.39,0,0,0,4.93,6.7h0c0-.78.08-1.59.15-2.42a38.81,38.81,0,0,1,3.25-12.79,41.38,41.38,0,0,1-5.2-13.71c0-.13-.05-.25-.07-.38l.25-.43-.33,0Z"/><path class="cls-3" d="M368,737l-5.63,11.06c-19.15-10.65-32-27.9-41.21-44.5-3.59-6.45-6.77-12.52-2.87-21.55,5-11.66,15.14-18.76,25.06-23.06a30.2,30.2,0,0,1,5.08-1.67l6.31-1.49c1.92,3.53,3.71,6.4,4.69,7.91-8,4.39-15.4,10.86-19.5,20.33-3.9,9-.72,15.1,2.87,21.55C349.66,717.91,356,726.92,368,737Z"/><path class="cls-3" d="M499,787.07l14.71,33.16H500.5a1.36,1.36,0,0,1-1.52-1.52Z"/><path class="cls-6" d="M524.8,626a12.53,12.53,0,0,0-7.3-11.24,9.59,9.59,0,0,0-2.87-.71c-.21,0-.41,0-.62,0h-.18a5.3,5.3,0,0,0-.69,0l-13.61.71c-5.41.29-9.74,4.88-10.5,10.71h0c0,.21,0,.41-.06.61s0,.4-.05.61c0,.4,0,.81,0,1.22l.73,17.82a13,13,0,0,0,4.93,9.87,10.18,10.18,0,0,0,6.41,2.13h.42l1.75-.09,11.41-.59.35,0c6.14-.33,10.89-6.22,10.61-13.16Zm-3.56,14.73c-1.56,3.39-5.13,4.83-8.19,3.41a5.28,5.28,0,0,1-.53-.27,7.8,7.8,0,0,1-2.78-9.85c1.65-3.58,5.55-5,8.72-3.13a7.65,7.65,0,0,1,3.35,8A7.38,7.38,0,0,1,521.24,640.69Z"/><path id="Phone" class="cls-7" d="M489,625.91a12.37,12.37,0,0,1,11.54-11.23l14.11-.67.39,0h.37a11.82,11.82,0,0,1,4.76.75l.14-.34c0-.37-.06-.73-.09-1.1-.21-2.58-.48-4.93-.8-7.08-7.39-1.57-18.53-.87-21.94,2a4,4,0,0,1-4.83.32c-9.68-6.48-26.29-12.46-41.86-4.9-12,5.83-17.93,1.82-20.4-1.12a3.89,3.89,0,0,0-4.38-1.19c-12.63,4.78-18.72,4.18-20.71,2a3.33,3.33,0,0,1-.41-.61c-.11-.2-.23-.44-.36-.71s-.19-.4-.29-.63-.35-.81-.53-1.27l-.18-.45c-.21-.53-.42-1.09-.64-1.69a.88.88,0,0,1-.05-.15c-.19-.49-.38-1-.56-1.53a61.79,61.79,0,0,1-29,9.44,31.23,31.23,0,0,0-5.27-4l-.09-.05A21,21,0,0,0,339.36,608c-.22.32-.43.63-.63,1s-.49.8-.72,1.21-.49.89-.72,1.35c-.13.24-.25.48-.36.73l-.33.71c-.17.38-.33.76-.48,1.15s-.36.92-.52,1.39c-.09.25-.18.5-.26.76s-.16.48-.23.72c-.3,1-.56,2-.78,3-.08.37-.16.74-.23,1.12s-.1.55-.14.82-.11.61-.15.92-.09.65-.13,1c-.07.53-.12,1.06-.17,1.6-.07.83-.13,1.64-.15,2.42h0c-.61,16.78,8.85,21.83,18.21,22.77h0c-.37-.77-.73-1.56-1.08-2.35-3.3-7.43-5.59-15.64-2.85-20.64s5.88-5.35,8.4-4.17c.86,4.22,2.77,9.53,7,12.75h0a13.16,13.16,0,0,1-.91,1.53,4.56,4.56,0,0,1-.31.42,3,3,0,0,1-.27.35,6.8,6.8,0,0,1-.56.62,2.39,2.39,0,0,1-.23.22q-.18.17-.36.3a4.72,4.72,0,0,1-1,.64l-.25.1a3.48,3.48,0,0,1-.94.23l-.23,0a4,4,0,0,1-.6,0l-.21,0-.15,0-.2,0-.21-.06-.38-.13-.39-.18-.34-.18-.3-.2a3.82,3.82,0,0,1-.33-.26c0,.11,0,.23,0,.35s0,.4,0,.6,0,.4.06.61.05.41.09.62.07.42.12.63.09.44.15.66.11.44.17.66c.12.43.25.87.4,1.3a42.31,42.31,0,0,0,2.49,5.72l.18.31.67-.1.61-.11.11,0,.66-.14c.3-.06.6-.14.9-.22s.71-.2,1.07-.32l.63-.22c.35-.12.71-.26,1.07-.41l.15-.07.54-.24c.17-.07.35-.15.52-.24.43,1.12.92,2.37,1.49,3.73a133.41,133.41,0,0,0,20.83,34.56c1.21,1.43,2.47,2.84,3.8,4.23a91.62,91.62,0,0,0,9.46,8.7h0a73.81,73.81,0,0,0,44.36,16.61c1.23,0,2.44.06,3.63,0l1.24,0,1.18,0,1-.05c.34,0,.67,0,1-.06h.05c.72-.05,1.45-.11,2.16-.19a67.42,67.42,0,0,0,6.8-1l1.41-.3c.5-.11,1-.22,1.48-.35l1.46-.38,1.26-.36,1.24-.38.14,0,.9-.3.19-.06,1.21-.43c.29-.09.57-.2.85-.31l1-.4,1.67-.7c.38-.16.77-.33,1.15-.51.53-.24,1.06-.49,1.58-.75s1.09-.53,1.62-.81c1.29-.68,2.55-1.41,3.78-2.17a65,65,0,0,0,10.82-8.42,75.83,75.83,0,0,0,15.21-21c.09-.17.18-.34.26-.51.35-.71.69-1.43,1-2.15.15-.34.31-.68.46-1,.24-.54.48-1.1.71-1.65.35-.82.68-1.64,1-2.48s.53-1.4.78-2.11l.36-1c.21-.59.41-1.19.6-1.79s.38-1.2.56-1.81c.13-.41.25-.81.37-1.22a1.8,1.8,0,0,0,.06-.22c.08-.26.15-.52.22-.78a.9.9,0,0,0,.06-.22c.23-.82.44-1.65.65-2.48.12-.42.22-.85.32-1.28l-.46,0-3.69.18-9.51.45-.84,0a7.12,7.12,0,0,1-.8,0h-.24a12,12,0,0,1-8.44-4v0a12.74,12.74,0,0,1-3.24-8l-.8-17.82c0-.41,0-.81,0-1.21Q488.94,626.27,489,625.91ZM403.07,665.6l1.57-5.73s3.58,3.6,3.7,6.42C404.94,671.63,403.07,665.6,403.07,665.6Zm56.33-17.37c0,.1,0,.2,0,.3a.76.76,0,0,1,0,.15,2.45,2.45,0,0,1,0,.27,8.54,8.54,0,0,1-.16,1.13c0,.17-.07.35-.11.52a4.39,4.39,0,0,1-.13.52c-.06.23-.13.45-.2.67s-.15.44-.24.66-.19.47-.3.7-.25.52-.39.77l-.24.42c-.08.14-.17.28-.26.41l-.27.4c-.15.21-.31.43-.48.63s-.34.41-.52.6a5.33,5.33,0,0,1-.4.42,3.07,3.07,0,0,1-.26.25c-.14.13-.29.27-.44.39s-.35.29-.54.43l-.54.39a10,10,0,0,1-1,.6c-.09,0-.16.1-.25.13a.15.15,0,0,1-.07,0l-.53.25a5.55,5.55,0,0,1-.56.24l-.46.16a11.06,11.06,0,0,1-1.25.35c-.21.05-.43.09-.64.12l-.66.09-.66,0-14.87.71a12.33,12.33,0,0,1-12.73-12l-.8-17.83a7.69,7.69,0,0,1,0-.83,2,2,0,0,1,0-.25c0-.12,0-.24,0-.36a6.54,6.54,0,0,1,.09-.89,5.62,5.62,0,0,1,.09-.57c0-.19.07-.39.12-.58l0-.14c.06-.23.12-.46.19-.69a8.75,8.75,0,0,1,.35-1,2.83,2.83,0,0,1,.17-.4,1.45,1.45,0,0,1,.09-.22c.12-.26.25-.52.39-.77l.21-.38a12,12,0,0,1,1.28-1.8l.36-.4a4.21,4.21,0,0,1,.36-.37,1.14,1.14,0,0,1,.19-.19.52.52,0,0,1,.11-.1l.31-.28c.21-.18.43-.35.65-.52l.44-.32c.15-.11.31-.21.46-.3l.39-.23a4.82,4.82,0,0,1,.5-.27l.37-.18q.45-.21.93-.39c.28-.1.56-.19.85-.27l.41-.11a5.41,5.41,0,0,1,.58-.12l.18,0,.67-.1.34,0,.46,0,14.88-.72a12.34,12.34,0,0,1,12.73,12l.8,17.82c0,.3,0,.6,0,.9A1.48,1.48,0,0,1,459.4,648.23Z"/><path class="cls-8" d="M518.21,630.58a7.43,7.43,0,0,1,3,9.84,7,7,0,0,1-9.52,3.14,7.44,7.44,0,0,1-3-9.85A7,7,0,0,1,518.21,630.58Z"/><path class="cls-9" d="M512.81,657.14v0c-.13.36-.27.71-.41,1.07a1,1,0,0,1-.09.22c-.89,2.31-1.89,4.57-3,6.78-.08.17-.17.34-.26.51a75.83,75.83,0,0,1-15.21,21A65,65,0,0,1,483,695.16c-10.52,6.52-23.25,10.11-38.06,9.59a73.81,73.81,0,0,1-44.36-16.61h0a91.62,91.62,0,0,1-9.46-8.7c-1.33-1.39-2.59-2.8-3.8-4.23a129.88,129.88,0,0,1-18.18-28.59c-1-2.15-1.89-4.16-2.65-6-.57-1.36-1.06-2.61-1.49-3.73a20.67,20.67,0,0,1-3.19,1.26c-.2.07-.39.13-.59.18a5.14,5.14,0,0,1-3.72,2.29h-.08a4.52,4.52,0,0,1-2.59-.77,3.65,3.65,0,0,1-.46-.35,16.94,16.94,0,0,0,1,5.43,42.31,42.31,0,0,0,2.49,5.72l.18.31.41-.06a22,22,0,0,0,6.52-2l.07.18c.41,1.07.88,2.26,1.42,3.55l0,.1A133.73,133.73,0,0,0,387.23,687l.12.14c1.2,1.41,2.44,2.81,3.75,4.18l0,0a91.62,91.62,0,0,0,9.46,8.7h0a75.14,75.14,0,0,0,29.81,14.69l.43.1A74.42,74.42,0,0,0,445,716.73c.63,0,1.25,0,1.86,0h2.22a64.28,64.28,0,0,0,44.8-18,75.83,75.83,0,0,0,15.21-21c.09-.17.18-.34.26-.51a94.92,94.92,0,0,0,6.85-19,1.74,1.74,0,0,0,.05-.22c.1-.35.18-.71.26-1.06v0Z"/><path class="cls-3" d="M360.36,750.34s-7.49,63.54-6.63,69.89H336.44S346.81,757.34,360.36,750.34Z"/><path class="cls-3" d="M488.59,821.14H402.77C425,810,462,797.88,488.59,821.14Z"/><path class="cls-2" d="M483.49,707.14C477.2,723.05,460.83,732,447,736.88a100.8,100.8,0,0,0-16.32-21.34l.18-.73a74.61,74.61,0,0,0,14.55,1.92C460.24,717.25,473,713.66,483.49,707.14Z"/><path class="cls-3" d="M483.68,706.28c-5.56,16.18-21.5,25.87-35.07,31.38-.64-1-1.27-1.95-1.92-2.89,10.95-4.88,22.78-12.46,29.17-23.93A63.64,63.64,0,0,0,483.68,706.28Z"/><path class="cls-3" d="M443.61,717a100.28,100.28,0,0,1,12.58,16.75c-2.92,1.36-5.85,2.52-8.66,3.52a100.8,100.8,0,0,0-16.32-21.34l.18-.73A73.81,73.81,0,0,0,443.61,717Z"/><path class="cls-6" d="M459.4,647.12l-.8-17.82a12.34,12.34,0,0,0-12.73-12l-11.75.57L431,618c-.34,0-.68.05-1,.09a12.48,12.48,0,0,0-10.58,13.06l.8,17.83a12.33,12.33,0,0,0,12.73,12l14.87-.71a11.23,11.23,0,0,0,2.55-.41,5,5,0,0,0,.66-.2A12.57,12.57,0,0,0,459.4,647.12Zm-4.74-1.72a7,7,0,0,1-9.52,3.14,7.42,7.42,0,0,1-3-9.85,7,7,0,0,1,9.52-3.13A7.43,7.43,0,0,1,454.66,645.4Z"/><path class="cls-10" d="M451,659.67l-11.77.57a12.32,12.32,0,0,1-12.73-12l-.8-17.83a12.59,12.59,0,0,1,8.41-12.55,9.7,9.7,0,0,1,1-.28l-2.57.12a11.72,11.72,0,0,0-2.53.4,12.54,12.54,0,0,0-9.06,12.75l.8,17.83a12.33,12.33,0,0,0,12.73,12l14.87-.71c.35,0,.69-.05,1-.1a9.12,9.12,0,0,0,1.16-.22Z"/><path class="cls-10" d="M516.69,658l-.46,0-3.84.19-4.17.2a11.59,11.59,0,0,1-4.93-.82l-.09,0a.05.05,0,0,1,0,0,12.53,12.53,0,0,1-7.67-11.1l-.8-17.83a12.53,12.53,0,0,1,9.37-12.83l-2.57.12a12.43,12.43,0,0,0-11.59,13.15l.8,17.83a12.72,12.72,0,0,0,2.26,6.74v0a12.76,12.76,0,0,0,1,1.29l0,0c.17.19.36.38.55.57a11.91,11.91,0,0,0,8.85,3.34l8.87-.42,3.88-.19.45,0,1.67-.08a11.34,11.34,0,0,0,2.19-.32Z"/><path class="cls-8" d="M451.63,635.56a7.43,7.43,0,0,1,3,9.84,7,7,0,0,1-9.52,3.14,7.42,7.42,0,0,1-3-9.85A7,7,0,0,1,451.63,635.56Z"/><line class="cls-11" x1="368.01" y1="601.71" x2="368" y2="601.72"/><path class="cls-11" d="M519.4,606.2c-7.39-1.57-18.53-.87-21.94,2a4,4,0,0,1-4.83.32c-9.68-6.48-26.29-12.46-41.86-4.9-12,5.83-17.93,1.82-20.4-1.12a3.89,3.89,0,0,0-4.38-1.19c-12.63,4.78-18.72,4.18-20.71,2a3.33,3.33,0,0,1-.41-.61c-.11-.2-.23-.44-.36-.71s-.19-.4-.29-.63-.35-.81-.53-1.27l-.18-.45c-.21-.53-.42-1.09-.64-1.69a.88.88,0,0,1-.05-.15c-.19-.49-.38-1-.56-1.53l-.06-.18h0"/><path class="cls-11" d="M520.2,613.28l1.64-.19c1.87-.23,3.07-.41,3.07-.41s10.7-2.12,15.09-16.48c.19-.79.37-1.56.52-2.32"/><path class="cls-11" d="M330.92,596.17l-.25.43c-.18.31-.35.62-.51.92s-.32.6-.47.9c-.31.6-.59,1.18-.85,1.76-3.52,7.93-2.94,14.35-1.24,19,0,0,0,0,0,0a21.72,21.72,0,0,0,5.75,8.64"/><path class="cls-11" d="M363.06,636.21a14.29,14.29,0,0,0,1.28.86"/><path class="cls-6" d="M363.9,659.57l-4.28,5.15s-2.58-3.79-5.46-9.08c-.74-1.35-1.5-2.8-2.24-4.31h0c-.12-.23-.24-.45-.35-.7h0c-.37-.77-.73-1.56-1.08-2.35-3.3-7.43-5.59-15.64-2.85-20.64s5.88-5.35,8.4-4.17c.86,4.22,2.77,9.53,7,12.75h0c-3.83,7.4-8.21,3.31-8.21,3.31a16.94,16.94,0,0,0,1,5.43,42.31,42.31,0,0,0,2.49,5.72l.18.31c.6,1.13,1.21,2.21,1.81,3.2C362.25,657.34,363.9,659.57,363.9,659.57Z"/><path class="cls-11" d="M355.35,617a33.68,33.68,0,0,0,.69,6.43c.86,4.22,2.77,9.53,7,12.75"/><path class="cls-11" d="M363.06,636.2h0c-3.83,7.4-8.21,3.31-8.21,3.31a16.94,16.94,0,0,0,1,5.43,42.31,42.31,0,0,0,2.49,5.72l.18.31c.6,1.13,1.21,2.21,1.81,3.2,1.89,3.16,3.54,5.39,3.54,5.39l-4.28,5.15s-2.58-3.79-5.46-9.08c-.74-1.35-1.5-2.8-2.24-4.31h0c-.12-.23-.24-.45-.35-.7h0c-.37-.77-.73-1.56-1.08-2.35-3.3-7.43-5.59-15.64-2.85-20.64s5.88-5.35,8.4-4.17"/><path class="cls-11" d="M371.8,644.36a24.6,24.6,0,0,1-6.32,4.53,22.21,22.21,0,0,1-6.93,2.09"/><path class="cls-11" d="M447.8,660.28l-14.87.71a12.33,12.33,0,0,1-12.73-12l-.8-17.83A12.43,12.43,0,0,1,431,618l14.88-.72a12.34,12.34,0,0,1,12.73,12l.8,17.82A12.44,12.44,0,0,1,447.8,660.28Z"/><path class="cls-11" d="M518.31,614.72A12.53,12.53,0,0,1,525.82,626l.75,17.82c.29,6.94-4.59,12.83-10.91,13.16l-.36,0-13.65.69c-6.32.32-11.68-5-12-12l-.75-17.82c-.3-6.94,4.59-12.83,10.92-13.16l14-.71A10.5,10.5,0,0,1,518.31,614.72Z"/><path class="cls-11" d="M479.52,663.83s-4.16,3.73-10,.48"/><path class="cls-7" d="M404.64,659.87l-1.57,5.73s1.87,6,5.27.69C408.22,663.47,404.64,659.87,404.64,659.87Z"/><path class="cls-11" d="M365.48,648.89c.43,1.12.92,2.37,1.49,3.73a133.41,133.41,0,0,0,20.83,34.56c1.21,1.43,2.47,2.84,3.8,4.23a91.62,91.62,0,0,0,9.46,8.7h0a73.81,73.81,0,0,0,44.36,16.61c14.81.52,27.54-3.07,38.06-9.59a65,65,0,0,0,10.82-8.42,75.83,75.83,0,0,0,15.21-21c.09-.17.18-.34.26-.51A96.1,96.1,0,0,0,517,657h0"/><path class="cls-11" d="M519.39,606.2c.32,2.15.59,4.5.8,7.08,0,.37,0,.73.09,1.1"/><path class="cls-11" d="M335.32,821.15c5.08-33.77,16.37-57.63,26.56-73.19,10.61-16.2,20-23.4,20-23.4"/><path class="cls-11" d="M392.05,775.34c.47,4.71,2.1,22-1.82,45.81"/><path class="cls-11" d="M498.63,783.68s7.23,8.71,13.13,37.47"/><path class="cls-11" d="M545.91,813.44s0,0,0,0"/><path class="cls-11" d="M504.56,747.63c2.95-4.37,5.47-8.49,7.62-12.38q.48-.86.93-1.71a.83.83,0,0,0,.07-.13c17.76-33.29,7.28-48.72-3.66-55.69"/><path class="cls-11" d="M430.7,715.54A100.8,100.8,0,0,1,447,736.88"/><path class="cls-11" d="M391.6,691.41c-20.38-2.31-25.19.47-25.19.47"/><path class="cls-11" d="M447,736.88c13.81-4.88,30.18-13.83,36.47-29.74"/><polyline class="cls-11" points="546.58 821.14 511.76 821.14 488.59 821.14 402.77 821.14 395.35 821.14 390.23 821.14 335.32 821.14"/><path class="cls-11" d="M512.18,735.25c10.94,11,29.15,35.27,33.73,78.18h0c.27,2.51.5,5.07.67,7.7"/><line class="cls-11" x1="366.97" y1="652.62" x2="360.36" y2="654.18"/><path class="cls-11" d="M361.88,748c-19.2-10.65-32.05-27.92-41.3-44.55-3.59-6.45-6.77-12.52-2.87-21.55,5-11.66,15.14-18.76,25.06-23.06a30.2,30.2,0,0,1,5.08-1.67l6.31-1.49"/><path class="cls-11" d="M375.93,685.54a52.21,52.21,0,0,1,11.87,1.64"/><path class="cls-12" d="M538.26,577.3h0l.35-.15-.41.17a1.12,1.12,0,0,0-.42.39,1.14,1.14,0,0,0-.27.51,1.11,1.11,0,0,0,0,.6,1,1,0,0,0,.17.55l.24.31a1.57,1.57,0,0,0,.66.38l.4.06a1.48,1.48,0,0,0,.76-.21h0l-.36.15a3.69,3.69,0,0,0,.42-.17,1.12,1.12,0,0,0,.42-.39,1.14,1.14,0,0,0,.27-.51,1.07,1.07,0,0,0,0-.59,1.12,1.12,0,0,0-.18-.56l-.23-.3a1.49,1.49,0,0,0-.66-.39l-.4,0a1.57,1.57,0,0,0-.76.2Z"/><path class="cls-6" d="M402.73,596l-.47.3a61.79,61.79,0,0,1-29,9.44,31.23,31.23,0,0,0-5.27-4l-.09-.05A21,21,0,0,0,339.36,608c-.22.32-.43.63-.63,1s-.49.8-.72,1.21-.45.82-.67,1.25l-1.4-.75a41.38,41.38,0,0,1-5.2-13.71c0-.13-.05-.25-.07-.38s-.05-.3-.08-.45l.33,0a88.48,88.48,0,0,0,15.85-.89c2.57-.36,5.11-.85,7.63-1.45a88.23,88.23,0,0,0,15.11-5c2.57-.47,5.15-.93,7.73-1.36q6.11-1.07,12.23-2c2.12-.32,4.24-.64,6.36-.94l2.26-.32q3.53-.5,7.06-1a708.91,708.91,0,0,1,108.12-5.75q12.88.29,25.75,1.06l2.12.13c3-.11,4.13,1.7,4.92,2.21a6.67,6.67,0,0,1,1.55,4.83c-.39,3.73-3.47,6.68-7.09,8.11a13.1,13.1,0,0,1-2.1.66c-4.45,1-9.1.2-13.62-.51A355.7,355.7,0,0,0,402.73,596Z"/><path class="cls-2" d="M308.25,587.29a23.22,23.22,0,0,1,.93,7.26,12.1,12.1,0,0,1-3.35,8.11,13,13,0,0,1-7.27,3.22c-7.32,1-14.93-2.25-19.76-7.85a28.46,28.46,0,0,1-6.36-20.63c.26-3.46,1.17-7,3.51-9.57a13,13,0,0,1,10-3.79,25.41,25.41,0,0,1,9.56,2.45C312,545,330.05,524.5,353.2,510.7a130,130,0,0,1,59.55-18.06c31.22-1.6,61.83,8.11,91.16,18.9,14.17,5.22,29.21,11.49,37.21,24.29,7.85,12.57,7,28.48,4.27,43.18-.06.33-.12.67-.19,1a7.58,7.58,0,0,1,.86.93c-.79-.51-1.92-2.32-4.92-2.21L539,578.6q-12.87-.78-25.75-1.06a708.91,708.91,0,0,0-108.12,5.75q-3.54.45-7.06,1l-2.26.32c-2.12.3-4.24.62-6.36.94q-6.14.93-12.23,2c-2.58.43-5.16.89-7.73,1.36a88.23,88.23,0,0,1-15.11,5c-2.52.6-5.06,1.09-7.63,1.45a88.48,88.48,0,0,1-15.85.89l-.33,0c-.4-2.3-.82-4.69-2.27-6.35-1.85-2.12-4.79-2.38-7.45-2.46Q314.56,587.15,308.25,587.29Z"/><path class="cls-11" d="M379.94,618.2a20.67,20.67,0,0,0-6.66-12.47,31.23,31.23,0,0,0-5.27-4l-.09-.05A21,21,0,0,0,339.36,608c-.22.32-.43.63-.63,1s-.49.8-.72,1.21-.45.82-.67,1.25l0,.1c-.13.24-.25.48-.36.73l-.33.71c-.17.38-.33.76-.48,1.15s-.36.92-.52,1.39c-.1.25-.18.5-.26.76s-.16.48-.23.72c-.3,1-.56,2-.78,3-.08.37-.16.74-.23,1.12s-.1.55-.14.82-.11.61-.15.92-.09.65-.13,1c-.07.53-.12,1.06-.17,1.6-.07.83-.13,1.64-.15,2.42h0c-.61,16.78,8.85,21.83,18.21,22.77"/><path class="cls-11" d="M330.59,596.15c0,.15.05.3.08.45s.05.25.07.38a41.38,41.38,0,0,0,5.2,13.71"/><path class="cls-11" d="M373.28,605.73a61.79,61.79,0,0,0,29-9.44l.47-.3"/><path class="cls-3" d="M358.8,592.23q-2.93.9-5.91,1.59c-2.52.6-5.06,1.09-7.63,1.45a88.48,88.48,0,0,1-15.85.89l-.33,0c-.4-2.3-.82-4.69-2.27-6.35-1.85-2.12-4.79-2.38-7.45-2.46q-6.32-.2-12.62-.05a23.22,23.22,0,0,1,.93,7.26,12.1,12.1,0,0,1-3.35,8.11,13,13,0,0,1-7.27,3.22c-7.32,1-14.93-2.25-19.76-7.85a4.29,4.29,0,0,1-.28-.35,53.63,53.63,0,0,1,18.81-15.51c10.09-5.09,21.42-7.35,32.71-7.93,6.28-.33,12.89-.08,18.36,3C352.56,580.48,356.06,586.17,358.8,592.23Z"/><path class="cls-6" d="M307.67,594.21a12.1,12.1,0,0,1-3.35,8.11,13,13,0,0,1-7.27,3.22c-7.32,1-14.93-2.25-19.76-7.85a28.46,28.46,0,0,1-6.36-20.63c.26-3.46,1.17-7,3.51-9.57a13,13,0,0,1,10-3.79,25.41,25.41,0,0,1,9.56,2.45l0,0c.34.35,5.86,6.24,12.76,20.78A23.22,23.22,0,0,1,307.67,594.21Z"/><path class="cls-13" d="M296.87,605.2a22.91,22.91,0,0,1-18.07-8,28.46,28.46,0,0,1-6.36-20.63c.26-3.46,1.17-7,3.51-9.57a11.28,11.28,0,0,1,4.12-2.79,88.59,88.59,0,0,0,4.36,21.87A46.6,46.6,0,0,0,296.87,605.2Z"/><path class="cls-11" d="M277,597.67a28.47,28.47,0,0,1-6.08-20.28c.26-3.46,1.17-7,3.51-9.57a13,13,0,0,1,10-3.79,25.41,25.41,0,0,1,9.56,2.45c16.55-21.52,34.58-42,57.73-55.79a130,130,0,0,1,59.55-18.06c31.22-1.6,61.83,8.11,91.16,18.9,14.17,5.22,29.21,11.49,37.21,24.29,7.85,12.57,7,28.48,4.27,43.18-.06.33-.12.67-.19,1a7.58,7.58,0,0,1,.86.93c-.79-.51-1.92-2.32-4.92-2.21l-2.12-.13q-12.87-.78-25.75-1.06a708.91,708.91,0,0,0-108.12,5.75q-3.54.45-7.06,1l-2.26.32c-2.12.3-4.24.62-6.36.94q-6.13.93-12.23,2c-2.58.43-5.16.89-7.73,1.36a88.11,88.11,0,0,1-9.2,3.39q-2.93.9-5.91,1.59c-2.52.6-5.06,1.09-7.63,1.45a88.48,88.48,0,0,1-15.85.89l-.33,0c-.4-2.3-.82-4.69-2.27-6.35-1.85-2.12-4.79-2.38-7.45-2.46q-6.32-.2-12.62-.05a23.22,23.22,0,0,1,.93,7.26,12.1,12.1,0,0,1-3.35,8.11,13,13,0,0,1-7.27,3.22c-7.32,1-14.93-2.25-19.76-7.85A4.29,4.29,0,0,1,277,597.67Z"/><path class="cls-11" d="M545.2,580a6.94,6.94,0,0,0-1.59-1.12"/><path class="cls-11" d="M546.06,580.94a6.67,6.67,0,0,1,1.55,4.83c-.39,3.73-3.47,6.68-7.09,8.11a13.1,13.1,0,0,1-2.1.66c-4.45,1-9.1.2-13.62-.51a355.7,355.7,0,0,0-122.07,2,5,5,0,0,0-.53.11"/><path class="cls-11" d="M546.39,581.07a.65.65,0,0,1-.33-.13"/><path class="cls-11" d="M308.25,587.29c-.14-.53-.29-1-.45-1.57"/><path class="cls-11" d="M296.42,566.93l-.95-.44"/><path class="cls-8" d="M421.24,776.3c2.17-.16,3.25-.24,5.42-.36,0,.72.06,1.08.11,1.79-2.88.17-4.32.27-7.2.5-.37-4.76-.56-7.14-.93-11.9l1.85-.15Z"/><path class="cls-8" d="M432.77,777.47l-1.8.07c-.23-4.77-.34-7.15-.56-11.92l1.86-.08Z"/><path class="cls-8" d="M448.16,765.25c0,4.76,0,7.13,0,11.88h-1.8c0-3.48,0-5.22,0-8.7-1,1.48-1.54,2.22-2.55,3.71l-.15.18-.09.18c-.22.32-.32.48-.54.79l-.3.48c-.13-.19-.2-.28-.34-.47l-.55-.77-.1-.18-.15-.18c-1-1.46-1.56-2.19-2.62-3.64.09,3.48.13,5.22.21,8.7l-1.8,0c-.14-4.75-.21-7.13-.34-11.88l1.89,0c1.53,2.07,2.28,3.1,3.76,5.18,1.42-2.11,2.14-3.17,3.59-5.28Z"/><path class="cls-8" d="M459.94,776.18a3,3,0,0,1-2.08,1.07c-2.12,0-3.19-.06-5.31-.08.07-4.74.1-7.11.17-11.85,2.14,0,3.22.07,5.36.15a2.79,2.79,0,0,1,2.08,1.11,3.36,3.36,0,0,1,.72,2.25,3.07,3.07,0,0,1-1.13,2.36l.15.16.12.15a3.35,3.35,0,0,1,.85,2.43A3.43,3.43,0,0,1,459.94,776.18Zm-5.46-5.94,3,.1a1.44,1.44,0,0,0,1.09-.48,1.59,1.59,0,0,0,.46-1.09,1.48,1.48,0,0,0-.39-1.1,1.56,1.56,0,0,0-1.07-.45l-3-.07C454.52,768.39,454.51,769,454.48,770.24Zm3,5.23a1.28,1.28,0,0,0,1.07-.44,1.76,1.76,0,0,0,.46-1.16,1.83,1.83,0,0,0-.38-1.21,1.35,1.35,0,0,0-1.05-.54c-1.27,0-1.9-.06-3.17-.08,0,1.34,0,2-.07,3.36Zm-.35,1.79.51,0Z"/><path class="cls-8" d="M464.2,771.52a5.93,5.93,0,0,1,1.86-4.14,5.57,5.57,0,0,1,4.31-1.5,5.47,5.47,0,0,1,4.05,2,6.06,6.06,0,0,1-.62,8.43,5.6,5.6,0,0,1-8.17-.51A6,6,0,0,1,464.2,771.52Zm1.83.09a4.27,4.27,0,0,0,1,3.06,3.72,3.72,0,0,0,2.7,1.39,3.83,3.83,0,0,0,2.89-1,4.35,4.35,0,0,0,1.37-2.91,4.09,4.09,0,0,0-.95-3,3.87,3.87,0,0,0-2.78-1.42,3.75,3.75,0,0,0-2.91,1.07A4.06,4.06,0,0,0,466,771.61Z"/><path class="cls-6" d="M513.36,528.73c6.54,2.31,12.88,6.55,16.16,12.83.9,1.71,3.49.19,2.59-1.52-3.64-7-10.7-11.65-18-14.21-1.82-.64-2.6,2.26-.79,2.9Z"/><path class="cls-6" d="M532.55,547.15a8.4,8.4,0,0,1,.81,1.39l.09.19c-.08-.19-.09-.21,0-.06s.1.27.14.41a6.82,6.82,0,0,1,.23.77,2.45,2.45,0,0,1,.15.79c0-.22,0-.24,0-.07a1.49,1.49,0,0,1,0,.21c0,.12,0,.25,0,.38s0,.53,0,.8l0,.43,0,.21c0-.22,0-.24,0-.07a1.64,1.64,0,0,0,.15,1.15,1.55,1.55,0,0,0,.9.69,1.53,1.53,0,0,0,1.85-1,10.48,10.48,0,0,0-1.7-7.69,1.53,1.53,0,0,0-2-.53,1.5,1.5,0,0,0-.54,2Z"/></g></svg>