<svg xmlns="http://www.w3.org/2000/svg" viewBox="0 0 223.78 209.92"><defs><style>.cls-1{fill:#fff;}.cls-2{fill:#ddd;}.cls-11,.cls-12,.cls-3,.cls-6{fill:none;}.cls-11,.cls-12,.cls-3,.cls-7{stroke:#000;}.cls-11,.cls-12,.cls-3,.cls-6,.cls-7{stroke-linecap:round;stroke-linejoin:round;}.cls-3{stroke-width:6px;}.cls-4{fill:#4df4c8;}.cls-5{fill:#c5ffed;}.cls-6{stroke:#ffec3e;}.cls-11,.cls-6{stroke-width:4px;}.cls-7{stroke-width:2px;}.cls-8{opacity:0.25;}.cls-9{fill:#ffd073;}.cls-10{fill:#f2625a;}</style></defs><g id="Layer_2" data-name="Layer 2"><g id="Layer_1-2" data-name="Layer 1"><path d="M57.36,62.18a10.72,10.72,0,0,1-1.37.39c-.52.11.6,0-.11,0a7.08,7.08,0,0,1-.92,0c-.13,0-.91-.09-.42,0s-.31-.07-.41-.09l-.69-.18c-.14-.05-.9-.35-.5-.17s-.26-.13-.39-.2-.41-.23-.61-.36l-.26-.17c-.47-.32.1.09.12.1-.17,0-.47-.41-.6-.55s-.32-.35-.49-.52.31.46.1.12l-.18-.25a7.53,7.53,0,0,1-.41-.73l-.14-.28c-.17-.34.23.69,0,.05,0-.18-.49-1.29-.36-1.41s.06.63,0,.28l0-.41a7.85,7.85,0,0,1,0-.84,4.43,4.43,0,0,0,0-.72c0,.08-.13.7,0,.17l.06-.3c0-.24.12-.47.19-.71s.09-.26.13-.39c.13-.39,0,0-.07.14a4.29,4.29,0,0,0,.38-.74c.1-.18.22-.36.33-.53.29-.47-.09.06-.1.1a1.16,1.16,0,0,1,.27-.31,5.48,5.48,0,0,1,.59-.59l.23-.21c.3-.27-.45.3-.11.1s.41-.27.62-.39.43-.22.64-.33-.22.1-.24.09.38-.13.49-.17a7.17,7.17,0,0,1,.91-.24l.31-.06c.38-.09-.76.06-.08,0a13.29,13.29,0,0,1,1.67,0c.33,0,.18.17-.18,0a1.36,1.36,0,0,0,.41.08,7.27,7.27,0,0,1,.8.22,1.85,1.85,0,0,1,.39.14c-.07-.15-.56-.27,0,0,.28.14.55.3.82.46a3,3,0,0,0,4.1-1.07,3.07,3.07,0,0,0-1.08-4.11A11.61,11.61,0,0,0,45.35,51.3a11.49,11.49,0,0,0,4,15.72A11.66,11.66,0,0,0,59,68a3.06,3.06,0,0,0,2.09-3.69,3,3,0,0,0-3.69-2.09Z"/><path d="M144.75,41.06a21.6,21.6,0,0,1,2.1-.55c.36-.06.36-.06,0,0l.55-.05c.36,0,.72,0,1.08,0s.73,0,1.09,0l.54,0c-.35,0-.35,0,0,0a21.36,21.36,0,0,1,2.08.58c.32.13.33.13,0,0l.48.24c.32.17.63.35.93.55l.4.28c-.29-.22-.3-.23,0,0s.48.43.71.67.75.9.31.32a8.87,8.87,0,0,1,.55.81c.17.28.31.57.47.85.28.52-.14-.43.12.29a9.75,9.75,0,0,1,.44,1.75c-.13-.79,0,.24,0,.4,0,.32,0,.64,0,1,.05-.79-.06.22-.11.39a5.66,5.66,0,0,1-.29.88c.29-.72-.13.19-.21.33s-.69.92-.2.34q-.3.36-.63.69c-.11.11-.89.73-.28.29q-.37.27-.78.51c-.14.08-1.06.48-.32.2a9.06,9.06,0,0,1-.88.29l-.44.1c-.34,0-.3,0,.12,0-.2.12-.69,0-.92,0s-.3,0,.12,0a3.4,3.4,0,0,1-.46-.09A3,3,0,1,0,149.69,58a10.84,10.84,0,0,0,12.79-9.12c.83-6.18-3.44-11.85-9.19-13.72a16.39,16.39,0,0,0-10.13.17,3,3,0,1,0,1.59,5.78Z"/><path class="cls-1" d="M218.76,115.45a22.31,22.31,0,0,1-1,20.5c-4.47,7.51-12.86,11.62-20.78,15.31l-.15,0q.66-2.55,1.19-5.13c2.89-14.1,3.07-28.56,2.87-43C208,103.56,215.86,109.25,218.76,115.45Z"/><path class="cls-2" d="M212.66,115.43a27.28,27.28,0,0,1-1.24,25.06,29.25,29.25,0,0,1-2.9,4,27.05,27.05,0,0,0,7.1-7.67,22.31,22.31,0,0,0,1-20.5c-2.31-4.93-7.76-9.54-13.48-11.44A27.27,27.27,0,0,1,212.66,115.43Z"/><path class="cls-1" d="M36.7,138c-10-.57-22-5.1-22.41-23.27h0A40.83,40.83,0,0,1,28.52,96.54C38,89.88,49.88,87.61,61.37,85.88a531.66,531.66,0,0,1,102.72-5.4c8.2.37,16.5.94,24.28,3.57a38.29,38.29,0,0,1,12.57,7c0,4-.09,10.27-.06,12.1.2,14.41,0,28.87-2.87,43q-.52,2.58-1.19,5.13c-3.78,14.63-10.91,28.59-22.35,38.34-15.27,13-36.31,17.07-56.37,17.34C98.54,207.17,78.24,204,62,193.19,47.1,183.3,34.73,157,36.7,138Zm108-31,.8,2.39q-.93,13.31-1.87,26.6c-.11,1.66-.18,3.49.85,4.79,1.39,1.76,4,1.7,6.26,1.48l20.3-2c2.36-.23,4.93-.56,6.59-2.25,2.24-2.28,1.87-6,1.36-9.1q-1.29-7.8-2.57-15.61c-.51-3.07-1.24-6.5-3.85-8.19a10.36,10.36,0,0,0-5.06-1.27A59.5,59.5,0,0,0,144.69,107Zm-70.11,9.24q0,8.85-.11,17.71a6.35,6.35,0,0,0,.85,3.93c1.17,1.55,3.42,1.67,5.36,1.65l20.93-.21c2.94,0,6.29-.25,8.12-2.55,1.48-1.86,1.43-4.48,1.32-6.85q-.31-6.28-.62-12.56c-.15-3-.4-6.34-2.45-8.6-2.22-2.45-5.84-2.89-9.13-3.19-4.12-.36-8.3-.73-12.36,0s-8.06,2.83-10.24,6.35A13.43,13.43,0,0,0,74.58,116.26Z"/><path class="cls-2" d="M56.43,185c17.32,11.52,38.92,14.87,59.73,14.59,21.34-.29,43.73-4.6,60-18.45A67.8,67.8,0,0,0,190.92,163a66.46,66.46,0,0,1-17,23.17c-15.27,13-36.31,17.07-56.37,17.34-19.56.27-39.86-2.88-56.14-13.71A41.48,41.48,0,0,1,53.73,183C54.62,183.77,55.52,184.43,56.43,185Z"/><path class="cls-1" d="M179,129c.51,3.15.88,6.82-1.36,9.1-1.66,1.69-4.23,2-6.59,2.25l-20.3,2c-2.23.22-4.87.28-6.26-1.48-1-1.3-1-3.13-.85-4.79q.94-13.29,1.87-26.6l-.8-2.39a59.5,59.5,0,0,1,22.81-3.14,10.36,10.36,0,0,1,5.06,1.27c2.61,1.69,3.34,5.12,3.85,8.19Q177.69,121.16,179,129Zm-11.87-6.58a5.65,5.65,0,1,0-5.65,5.64A5.65,5.65,0,0,0,167.11,122.37Z"/><path class="cls-1" d="M161.46,116.72a5.65,5.65,0,1,1-5.64,5.65A5.65,5.65,0,0,1,161.46,116.72Z"/><path class="cls-1" d="M111.05,129.94c.11,2.37.16,5-1.32,6.85-1.83,2.3-5.18,2.52-8.12,2.55l-20.93.21c-1.94,0-4.19-.1-5.36-1.65a6.35,6.35,0,0,1-.85-3.93q.06-8.85.11-17.71A13.43,13.43,0,0,1,76.25,112c2.18-3.52,6.18-5.58,10.24-6.35s8.24-.41,12.36,0c3.29.3,6.91.74,9.13,3.19,2,2.26,2.3,5.56,2.45,8.6Q110.73,123.67,111.05,129.94ZM98.3,122.67a5.65,5.65,0,1,0-5.65,5.65A5.65,5.65,0,0,0,98.3,122.67Z"/><path class="cls-1" d="M92.65,117A5.65,5.65,0,1,1,87,122.67,5.65,5.65,0,0,1,92.65,117Z"/><path class="cls-3" d="M206.64,146.31a103.62,103.62,0,0,1-9.67,4.95"/><path class="cls-3" d="M200.88,103.12c7.11.44,15,6.13,17.88,12.33a22.31,22.31,0,0,1-1,20.5c-2.64,4.44-6.64,7.68-11.11,10.36"/><path class="cls-3" d="M36.7,138C34.73,157,47.1,183.3,62,193.19c16.28,10.83,36.58,14,56.14,13.71,20.06-.27,41.1-4.32,56.37-17.34,11.44-9.75,18.57-23.71,22.35-38.34q.66-2.55,1.19-5.13c2.89-14.1,3.07-28.56,2.87-43,0-1.83,0-8.12.06-12.1"/><path class="cls-3" d="M14.29,114.72A40.83,40.83,0,0,1,28.52,96.54C38,89.88,49.88,87.61,61.37,85.88a531.66,531.66,0,0,1,102.72-5.4c8.2.37,16.5.94,24.28,3.57a38.29,38.29,0,0,1,12.57,7"/><path class="cls-3" d="M74.58,116.26q0,8.85-.11,17.71a6.35,6.35,0,0,0,.85,3.93c1.17,1.55,3.42,1.67,5.36,1.65l20.93-.21c2.94,0,6.29-.25,8.12-2.55,1.48-1.86,1.43-4.48,1.32-6.85q-.31-6.28-.62-12.56c-.15-3-.4-6.34-2.45-8.6-2.22-2.45-5.84-2.89-9.13-3.19-4.12-.36-8.3-.73-12.36,0s-8.06,2.83-10.24,6.35A13.43,13.43,0,0,0,74.58,116.26Z"/><path class="cls-3" d="M74.6,113.54c0,.91,0,1.81,0,2.72"/><path class="cls-3" d="M145.49,109.41q-.93,13.31-1.87,26.6c-.11,1.66-.18,3.49.85,4.79,1.39,1.76,4,1.7,6.26,1.48l20.3-2c2.36-.23,4.93-.56,6.59-2.25,2.24-2.28,1.87-6,1.36-9.1q-1.29-7.8-2.57-15.61c-.51-3.07-1.24-6.5-3.85-8.19a10.36,10.36,0,0,0-5.06-1.27A59.5,59.5,0,0,0,144.69,107l-.37.12"/><path class="cls-3" d="M178,110.31l22-5.63"/><path class="cls-3" d="M67.68,114.42,37.2,109.53"/><path class="cls-3" d="M14.29,114.72h0c.44,18.17,12.37,22.7,22.41,23.27a48.51,48.51,0,0,0,13.77-1.3"/><path class="cls-3" d="M27.08,114.1c.2,0,.41,0,.61.05a11.71,11.71,0,0,1,10,8.84"/><path class="cls-3" d="M27.64,114.1s0,0,.05.05a8.18,8.18,0,0,1,1.1,10.76"/><path class="cls-4" d="M191.52,51.24c12.87-2.1,34.72,12.27,26.14,36.21s-42.9,20.36-42.9,0c-5.39,29.34-35.32,17.36-35.32,1.8-19.45,32.92-35.92,5.09-39.21-1.8-3,14.67-30.82,9.28-30.82,9.28s-52.09-19.45-56,19.46c-.14,1.32-.22,2.6-.25,3.81l-1,0c-13.78-9.92-9.39-28-3.83-32.82C-7.53,55.13,25.7,42.26,32.45,53,23.34,14.18,59.82,21.6,64.31,32.38c.9-37.71,40.11-29.38,44.9-14.67,16.46-27.53,49.38-11.07,50.88,6C189.12-6.83,214.57,38.66,191.52,51.24Z"/><path class="cls-5" d="M4,78.88C19.81,64.66,27.54,67.25,36.49,61.5c7.41-4.75,9-12.37,20.92-18C63,35.72,92.76,26.07,109.92,30.64c15.66-7.3,31.42-2,49.68,4.69,12.11-8.17,28.58-.9,40.1,1.44-.54-16.13-19.53-33.38-40.37-11.47-1.5-17.06-34.42-33.52-50.88-6-4.79-14.71-44-23-44.9,14.67-4.49-10.78-41-18.2-31.86,20.65C25.68,45-1.3,54.18,4,78.88Z"/><path class="cls-3" d="M13.16,120.64c0-.21,0-.42,0-.64,0-1.21.11-2.49.25-3.81,3.89-38.91,56-19.46,56-19.46s27.82,5.39,30.82-9.28c3.29,6.89,19.76,34.72,39.21,1.8,0,15.56,29.93,27.54,35.32-1.8,0,20.36,34.32,24,42.9,0s-13.27-38.31-26.14-36.21c23-12.58-2.4-58.07-31.43-27.54-1.5-17.06-34.42-33.52-50.88-6-4.79-14.71-44-23-44.9,14.67C59.82,21.6,23.34,14.18,32.45,53c-6.75-10.77-40,2.1-24.11,34.12-5.56,4.77-9.95,22.9,3.83,32.82"/><path d="M140.88,50a21.6,21.6,0,0,1,2.1-.55c.35-.06.36-.07,0,0l.54-.06c.36,0,.73,0,1.09,0a10,10,0,0,1,1.09,0l.54,0c-.36,0-.35,0,0,0a16.27,16.27,0,0,1,2.07.58c.33.12.34.13,0,0a4.44,4.44,0,0,1,.49.24,9.85,9.85,0,0,1,.93.55l.39.28c-.28-.23-.29-.23,0,0s.48.44.7.67.75.91.32.33c.19.26.38.53.55.81s.3.57.46.85c.29.52-.14-.43.12.29a9.57,9.57,0,0,1,.45,1.75c-.13-.8,0,.23,0,.4a7.71,7.71,0,0,1,0,1c.06-.79-.05.21-.1.39a9.06,9.06,0,0,1-.29.88c.29-.73-.14.19-.22.32s-.68.93-.2.35a8.17,8.17,0,0,1-.63.69c-.11.11-.89.73-.28.29-.25.18-.5.35-.77.51s-1.06.47-.33.2A8,8,0,0,1,149,61l-.45.1c-.34.06-.3.06.12,0-.19.12-.68,0-.91,0s-.3,0,.11,0l-.45-.09a3,3,0,1,0-1.6,5.78,10.82,10.82,0,0,0,12.79-9.12c.83-6.18-3.44-11.84-9.19-13.72a16.39,16.39,0,0,0-10.13.17,3,3,0,0,0,1.6,5.79Z"/><path d="M70.64,71.55a11.4,11.4,0,0,1-1.38.4c-.52.11.6,0-.11,0a7.07,7.07,0,0,1-.92,0c-.12,0-.9-.09-.41,0s-.31-.07-.41-.09-.46-.12-.69-.19-.9-.35-.51-.16-.26-.14-.38-.2-.42-.24-.62-.37L65,70.78c-.48-.31.1.1.12.1-.18,0-.48-.41-.61-.54s-.32-.35-.48-.53.31.47.09.13c0-.09-.12-.17-.17-.26s-.29-.47-.42-.72c-.05-.09-.09-.19-.13-.28-.18-.34.23.69,0,0-.06-.17-.49-1.28-.36-1.4s.06.63,0,.28c0-.14,0-.28,0-.42s0-.55,0-.83a4.49,4.49,0,0,0,.06-.73c0,.09-.13.71,0,.18,0-.1,0-.2.07-.31s.11-.47.18-.7.09-.26.13-.39c.13-.39.05,0-.06.13a4.26,4.26,0,0,0,.37-.74c.1-.18.22-.35.33-.52.29-.47-.08,0-.1.1a2.17,2.17,0,0,1,.27-.32c.19-.2.38-.4.59-.59l.24-.2c.3-.27-.46.3-.11.09s.4-.26.61-.39.43-.22.65-.33-.22.1-.24.1a2.6,2.6,0,0,0,.49-.17,7.49,7.49,0,0,1,.9-.24l.31-.06c.39-.09-.76.05-.07,0a13.14,13.14,0,0,1,1.66,0c.34,0,.18.17-.18,0a1.49,1.49,0,0,0,.41.08,7.27,7.27,0,0,1,.8.22,2.32,2.32,0,0,1,.4.13c-.08-.14-.56-.26,0,0a8,8,0,0,1,.81.46,3,3,0,0,0,4.11-1.07,3.07,3.07,0,0,0-1.08-4.11,11.4,11.4,0,1,0-2.27,20.4,3,3,0,1,0-1.59-5.79Z"/><path class="cls-6" d="M201.21,150.5a4.43,4.43,0,0,0,5.1,2.2,4.88,4.88,0,0,0,3.41-4.66,4.41,4.41,0,0,0-3.71-4.12"/><path class="cls-3" d="M195.52,152.15c2.42-1.15,4.84-2.38,7.14-3.76"/><path class="cls-7" d="M97.7,127.21A172.24,172.24,0,0,0,80,126.87a9.27,9.27,0,0,0,17.67.34Z"/><path class="cls-7" d="M169,126.55a169.25,169.25,0,0,0-17.66-.34,9.26,9.26,0,0,0,17.66.34Z"/><path class="cls-8" d="M145.72,140.77s14.09-1.57,24,0,6.52-8.75,2.35-10-21.13-1.87-24.26-.64S137.89,139.46,145.72,140.77Z"/><path class="cls-8" d="M77.05,140.77s14.09-1.57,24,0,6.53-8.75,2.35-10-21.13-1.87-24.26-.64S69.23,139.46,77.05,140.77Z"/><path class="cls-9" d="M123.23,175.45l4.46,1.91.08-.17a32.34,32.34,0,0,0,5.25-5.77l-4.63-1.92a13.82,13.82,0,0,1-6.66,4.73c.48.4,1,.81,1.42,1.23Z"/><path class="cls-10" d="M153.69,188.25a3.69,3.69,0,0,0,2.78-.82,3.61,3.61,0,0,0,1.28-2.78A6.1,6.1,0,0,0,157,182c-.17-.35-.34-.71-.5-1.07l-2-.8-3.42-1.39-2.67,7.38,5,2.07h0Z"/><path class="cls-3" d="M115.85,174.8a12.89,12.89,0,0,0,5.88-.57,13.82,13.82,0,0,0,6.66-4.73,11.58,11.58,0,0,0,1.22-1.95"/><path class="cls-11" d="M156.46,181l-2-.8-3.42-1.39q-8.12-3.28-16.21-6.6l-1.84-.76-4.63-1.92"/><path class="cls-11" d="M156.46,181c.16.36.33.72.5,1.07a6.1,6.1,0,0,1,.79,2.61,3.61,3.61,0,0,1-1.28,2.78,3.69,3.69,0,0,1-2.78.82l-.27,0"/><path class="cls-11" d="M123.23,175.45l4.46,1.91h0l4.05,1.73c5.55,2.37,11.1,4.74,16.66,7.06l5,2.07h0"/><path class="cls-11" d="M148.4,186.16l2.67-7.38"/><path class="cls-12" d="M121.73,174.23c.48.4,1,.81,1.42,1.23"/></g></g></svg>