<svg xmlns="http://www.w3.org/2000/svg" viewBox="0 0 219.37 201.06"><defs><style>.cls-1{fill:#606060;}.cls-2{fill:#fff;}.cls-3{fill:none;stroke:#000;stroke-linecap:round;stroke-linejoin:round;stroke-width:6px;}</style></defs><g id="Layer_2" data-name="Layer 2"><g id="Layer_1-2" data-name="Layer 1"><path class="cls-1" d="M24.59,87.43a22.72,22.72,0,0,0-13.38,18l-1.3.39C-.91,87.62.89,61.77,15.86,46.72,24.57,38,39.51,20.36,67.26,26.59c-1.3-3.5-2.69-15.27-4-18.78,3.67,2.37,10.49,10.94,14.16,13.31,3.21-5.93,8.86-10.29,16.46-12.53,11-3.23,16.48-4.26,24.4-4.79,29.22-2,32.23-.81,53.45,9.1,10.21,4.76,26.41,14.54,32.73,23.87s12.6,17.12,8,27.39c-3.47,7.71-9.19,14.67-16.31,16a13.83,13.83,0,0,1-7.52-.69c-4.19-1.54-8.09-4.58-12.56-4.31-5.88.36-10,6.3-15.77,7.57-10.15,2.24-19.52-10.68-29.41-7.5C126,76.8,123,81.81,118.34,83.78,107,88.56,95.08,73.36,83.21,76.61c-3.07.84-5.67,2.84-8.53,4.24a23.32,23.32,0,0,1-25.3-3.67q-1.26,6.52-2.51,13A22.73,22.73,0,0,0,24.59,87.43Z"/><path class="cls-2" d="M213.34,127.1c-4.47,7.51-12.86,11.62-20.78,15.31l-.15,0q.66-2.55,1.19-5.13c2.89-14.1,3.07-28.56,2.87-43,7.11.44,15,6.13,17.88,12.33A22.31,22.31,0,0,1,213.34,127.1Z"/><path class="cls-2" d="M174.57,120.1c.51,3.15.88,6.82-1.36,9.1-1.66,1.69-4.23,2-6.59,2.25l-20.3,2c-2.23.22-4.87.28-6.26-1.48-1-1.3-1-3.13-.85-4.79q.94-13.29,1.87-26.6l-.8-2.39A59.5,59.5,0,0,1,163.09,95a10.36,10.36,0,0,1,5.06,1.27c2.61,1.69,3.34,5.12,3.85,8.19Q173.27,112.31,174.57,120.1Zm-11.87-6.58a5.65,5.65,0,1,0-5.65,5.64A5.65,5.65,0,0,0,162.7,113.52Z"/><path class="cls-2" d="M106.64,121.09c.11,2.37.16,5-1.32,6.85-1.83,2.3-5.18,2.52-8.12,2.55l-20.93.21c-1.94,0-4.19-.1-5.36-1.65a6.35,6.35,0,0,1-.85-3.93q.06-8.85.11-17.71a13.43,13.43,0,0,1,1.67-4.27C74,99.62,78,97.56,82.08,96.79s8.24-.41,12.36-.05c3.29.3,6.91.74,9.13,3.19,2.05,2.26,2.3,5.56,2.45,8.6Q106.32,114.82,106.64,121.09Zm-12.75-7.27a5.65,5.65,0,1,0-5.65,5.65A5.65,5.65,0,0,0,93.89,113.82Z"/><path class="cls-2" d="M70.17,107.41q0,8.85-.11,17.71a6.35,6.35,0,0,0,.85,3.93c1.17,1.55,3.42,1.67,5.36,1.65l20.93-.21c2.94,0,6.29-.25,8.12-2.55,1.48-1.86,1.43-4.48,1.32-6.85q-.31-6.28-.62-12.56c-.15-3-.4-6.34-2.45-8.6-2.22-2.45-5.84-2.89-9.13-3.19-4.12-.36-8.3-.73-12.36.05S74,99.62,71.84,103.14A13.43,13.43,0,0,0,70.17,107.41ZM172,104.49c-.51-3.07-1.24-6.5-3.85-8.19A10.36,10.36,0,0,0,163.09,95a59.5,59.5,0,0,0-22.81,3.14l.8,2.39q-.93,13.31-1.87,26.6c-.11,1.66-.18,3.49.85,4.79,1.39,1.76,4,1.7,6.26,1.48l20.3-2c2.36-.23,4.93-.56,6.59-2.25,2.24-2.28,1.87-5.95,1.36-9.1Q173.28,112.3,172,104.49Zm24.47-10.22c.2,14.41,0,28.87-2.87,43q-.53,2.58-1.19,5.13C188.63,157,181.5,171,170.06,180.71c-15.27,13-36.31,17.07-56.37,17.34-19.56.27-39.86-2.88-56.14-13.71-14.86-9.89-27.23-36.24-25.26-55.19-10-.57-22-5.1-22.41-23.27h0l1.3-.39a22.72,22.72,0,0,1,13.38-18,22.73,22.73,0,0,1,22.28,2.8q1.26-6.53,2.51-13a23.32,23.32,0,0,0,25.3,3.67c2.86-1.4,5.46-3.4,8.53-4.24,11.87-3.25,23.79,12,35.13,7.17,4.69-2,7.68-7,12.52-8.54,9.89-3.18,19.26,9.74,29.41,7.5,5.75-1.27,9.89-7.21,15.77-7.57,4.47-.27,8.37,2.77,12.56,4.31a13.83,13.83,0,0,0,7.52.69l.41,2C196.51,86.15,196.44,92.44,196.47,94.27Z"/><path d="M157.05,107.87a5.65,5.65,0,1,1-5.64,5.65A5.65,5.65,0,0,1,157.05,107.87Z"/><path d="M88.24,108.18a5.65,5.65,0,1,1-5.64,5.64A5.65,5.65,0,0,1,88.24,108.18Z"/><path class="cls-3" d="M196.47,94.27c7.11.44,15,6.13,17.88,12.33a22.31,22.31,0,0,1-1,20.5c-4.47,7.51-12.86,11.62-20.78,15.31"/><path class="cls-3" d="M32.29,129.15c-2,18.95,10.4,45.3,25.26,55.19,16.28,10.83,36.58,14,56.14,13.71,20.06-.27,41.1-4.32,56.37-17.34C181.5,171,188.63,157,192.41,142.37q.66-2.55,1.19-5.13c2.89-14.1,3.07-28.56,2.87-43,0-1.83,0-8.12.06-12.1"/><path class="cls-3" d="M70.17,107.41q0,8.85-.11,17.71a6.35,6.35,0,0,0,.85,3.93c1.17,1.55,3.42,1.67,5.36,1.65l20.93-.21c2.94,0,6.29-.25,8.12-2.55,1.48-1.86,1.43-4.48,1.32-6.85q-.31-6.28-.62-12.56c-.15-3-.4-6.34-2.45-8.6-2.22-2.45-5.84-2.89-9.13-3.19-4.12-.36-8.3-.73-12.36.05S74,99.62,71.84,103.14A13.43,13.43,0,0,0,70.17,107.41Z"/><path class="cls-3" d="M141.08,100.56q-.93,13.31-1.87,26.6c-.11,1.66-.18,3.49.85,4.79,1.39,1.76,4,1.7,6.26,1.48l20.3-2c2.36-.23,4.93-.56,6.59-2.25,2.24-2.28,1.87-5.95,1.36-9.1q-1.29-7.8-2.57-15.61c-.51-3.07-1.24-6.5-3.85-8.19A10.36,10.36,0,0,0,163.09,95a59.5,59.5,0,0,0-22.81,3.14l-.37.12"/><path class="cls-3" d="M173.57,101.46l22-5.63"/><path class="cls-3" d="M63.27,105.57l-30.48-4.89"/><path class="cls-3" d="M9.88,105.87h0c.44,18.17,12.37,22.7,22.41,23.27a48.51,48.51,0,0,0,13.77-1.3"/><path class="cls-3" d="M22.67,105.25c.2,0,.41,0,.61,0a11.71,11.71,0,0,1,10,8.84"/><path class="cls-3" d="M23.23,105.25l.05,0a8.18,8.18,0,0,1,1.1,10.76"/><path class="cls-3" d="M115.42,153.19a8.31,8.31,0,0,0,16.33-1.77"/><path class="cls-3" d="M11.21,105.47a22.72,22.72,0,0,1,13.38-18,22.73,22.73,0,0,1,22.28,2.8q1.26-6.53,2.51-13a23.32,23.32,0,0,0,25.3,3.67c2.86-1.4,5.46-3.4,8.53-4.24,11.87-3.25,23.79,12,35.13,7.17,4.69-2,7.68-7,12.52-8.54,9.89-3.18,19.26,9.74,29.41,7.5,5.75-1.27,9.89-7.21,15.77-7.57,4.47-.27,8.37,2.77,12.56,4.31a13.83,13.83,0,0,0,7.52.69c7.12-1.34,12.84-8.3,16.31-16,4.64-10.27-1.64-18.07-8-27.39S182,17.66,171.74,12.9C150.52,3,147.51,1.84,118.29,3.8c-7.92.53-13.43,1.56-24.4,4.79-7.6,2.24-13.25,6.6-16.46,12.53C73.76,18.75,66.94,10.18,63.27,7.81c1.3,3.51,2.69,15.28,4,18.78C39.51,20.36,24.57,38,15.86,46.72.89,61.77-.91,87.62,9.91,105.86a0,0,0,0,1,0,0"/><path class="cls-3" d="M53,61.17a10.49,10.49,0,0,1,11.72-5.38"/><path class="cls-3" d="M140.84,48.24a11.39,11.39,0,0,1,15.62,2.41"/></g></g></svg>