<svg xmlns="http://www.w3.org/2000/svg" xmlns:xlink="http://www.w3.org/1999/xlink" viewBox="0 0 818.48 1313.61"><defs><style>.cls-1{fill:url(#linear-gradient);}.cls-2{fill:#90f2fc;}.cls-3{fill:#61eaff;}.cls-4{fill:#fff;}.cls-5{fill:#01f4af;}.cls-6{fill:#81fbc9;}.cls-7{fill:#848383;}.cls-8{fill:#eaeaea;}.cls-9{fill:#fed0b9;}.cls-10{fill:#ffb9a1;}.cls-11{fill:#3f4040;}.cls-12,.cls-13,.cls-14,.cls-15,.cls-16,.cls-17,.cls-20,.cls-21{fill:none;stroke-linecap:round;stroke-linejoin:round;}.cls-12{stroke:#f7fbf9;}.cls-12,.cls-15,.cls-17{stroke-width:4px;}.cls-13,.cls-20{stroke:#3f3f3f;}.cls-13,.cls-14,.cls-21{stroke-width:3px;}.cls-14{stroke:#81fbc9;}.cls-15,.cls-21{stroke:#3f4040;}.cls-16,.cls-17{stroke:#fff;}.cls-16{stroke-width:10px;}.cls-18{fill:#fff797;}.cls-19{fill:#f2d768;}.cls-20{stroke-width:2px;}</style><linearGradient id="linear-gradient" x1="409.24" y1="948.89" x2="409.24" y2="364.72" gradientUnits="userSpaceOnUse"><stop offset="0" stop-color="#7072d8"/><stop offset="0.24" stop-color="#7c78df"/><stop offset="0.67" stop-color="#8d80e8"/><stop offset="1" stop-color="#9383eb"/></linearGradient></defs><g id="Layer_7" data-name="Layer 7"><rect class="cls-1" x="-0.46" y="364.72" width="819.39" height="584.17"/><path class="cls-2" d="M510.65,540.21a160.4,160.4,0,0,1,21.87,21.4c-23.94,7.59-50.74,7.33-75.83,3.09-11.56-2-23-4.66-34.29-7.66a164.39,164.39,0,0,1,66.92-31.5h0a165.83,165.83,0,0,1,21.31,14.67Z"/><path class="cls-3" d="M568,657V657a144.75,144.75,0,0,1-6.32,42.35,31.57,31.57,0,0,0-2.92-3.09c-3.25-3-7.52-5.07-11.91-4.8a14.88,14.88,0,0,0-10.94,6.62,20.12,20.12,0,0,0-2.59,5.41,15.56,15.56,0,0,0-9-4.2,15.08,15.08,0,0,0-14.37,7.39,14.41,14.41,0,0,0-1.26,10.52,38.92,38.92,0,0,0-15.87-.07,38.08,38.08,0,0,0-8.66,2.92c2.41-13.57,1.57-27.74,1.26-31.73l1.29,0c3.16-3.45,5.07-6,5.07-6,10.73-14.31,11.2-36.84,3.35-54C487,610.63,471.54,598.39,455.05,592s-34.05-7.62-51.35-7.92c-17.62-.31-35.52.3-52.25,6.27S319.1,608.27,311.05,626c-6.45,14.19-7.47,30.26-6.31,46.57a22.42,22.42,0,0,0-6.8,6.56c-.23.33-.45.65-.66,1A37.06,37.06,0,0,0,292.13,695a13.2,13.2,0,0,0-2.51.18,13.34,13.34,0,0,0-1.16-6.32,15,15,0,0,0-14.76-8.27,15.88,15.88,0,0,0-8.2,3.34,25.39,25.39,0,0,0-29.25-19.54,22.24,22.24,0,0,0-2.56.63q-.23-4-.22-8V657a144.22,144.22,0,0,1,10.17-53.32,152.59,152.59,0,0,1,30.92-48.4,163.78,163.78,0,0,1,22.74-20.06h0c18.65-1.62,37.9.25,56.28,3.91,23.24,4.63,45.9,11.89,68.81,17.95,11.33,3,22.73,5.71,34.29,7.66,25.09,4.24,51.89,4.5,75.83-3.09.18.21.36.41.53.62a152.69,152.69,0,0,1,19.47,29.66A144.68,144.68,0,0,1,568,657Z"/><path class="cls-4" d="M326.07,730l-3.93,5.7s-2.61-3.18-5.76-7.8l-.71-1.05c-.73-1.1-1.5-2.28-2.25-3.52q-.23-.35-.45-.72h0c-.14-.23-.29-.44-.42-.68h0c-.46-.77-.9-1.55-1.34-2.33-4.08-7.35-7.2-15.61-4.84-21s5.57-6,8.28-5.07l.25,0c.08.54.18,1.11.3,1.7.86,4.22,2.75,9.51,6.86,12.86a8,8,0,0,1-1.31,1.68,4.43,4.43,0,0,1-5.85.47,17.73,17.73,0,0,0,1.56,5.51,44.67,44.67,0,0,0,3.1,5.66l.21.3c.27.42.55.82.82,1.23.46.67.9,1.3,1.35,1.9.55.77,1.08,1.48,1.59,2.11C325,728.74,326.07,730,326.07,730Z"/><path class="cls-5" d="M265.5,683.91a15.88,15.88,0,0,1,8.2-3.34,15,15,0,0,1,14.76,8.27,13.34,13.34,0,0,1,1.16,6.32,13.2,13.2,0,0,1,2.51-.18c-.11.72-.19,1.44-.25,2.16s-.13,1.7-.15,2.51h0c-.63,17.36,9.16,22.59,18.84,23.56,0,0,1.1.07,2.85.06.75,1.24,1.52,2.42,2.25,3.52l.71,1.05c3.15,4.62,5.76,7.8,5.76,7.8l3.93-5.7s-1.07-1.21-2.54-3.12c-.51-.63-1-1.34-1.59-2.11-.45-.6-.89-1.23-1.35-1.9l.68-.1h0l.94-.16c.82-.13,1.66-.3,2.5-.5l.43-.1c.4,1,.83,2.13,1.34,3.33.16.4.33.79.51,1.2a137.36,137.36,0,0,0,21.05,34.57c1.25,1.48,2.55,2.94,3.93,4.37a94.88,94.88,0,0,0,9.79,9h0a76.44,76.44,0,0,0,45.91,17.19l1.45,0c.78,0,1.55,0,2.3,0a67.92,67.92,0,0,0,35.63-10,67.12,67.12,0,0,0,11.2-8.71A78.56,78.56,0,0,0,474,751.27c.09-.18.19-.35.27-.53a99.41,99.41,0,0,0,7.42-21h0a69,69,0,0,0,2.41-9.69,38.08,38.08,0,0,1,8.66-2.92,38.92,38.92,0,0,1,15.87.07,14.41,14.41,0,0,1,1.26-10.52,15.08,15.08,0,0,1,14.37-7.39,15.56,15.56,0,0,1,9,4.2,20.12,20.12,0,0,1,2.59-5.41,14.88,14.88,0,0,1,10.94-6.62c4.39-.27,8.66,1.84,11.91,4.8a31.57,31.57,0,0,1,2.92,3.09C552,730.73,532,758,505.34,777.9a168.54,168.54,0,0,1-29,17.37A177.26,177.26,0,0,1,400.75,812h-.08a178.08,178.08,0,0,1-65.6-12.38,171.46,171.46,0,0,1-26.5-13.22,164.91,164.91,0,0,1-33-26.52,154.59,154.59,0,0,1-27.06-38.46A144.94,144.94,0,0,1,233.69,665a22.24,22.24,0,0,1,2.56-.63,25.39,25.39,0,0,1,29.25,19.54Z"/><path class="cls-6" d="M292.13,707.31c-14.42-7.9-29.7-9-39-5.62-5.24-4.47-10-4.82-13.93-3.42a143.61,143.61,0,0,1-5.55-32.5,22.24,22.24,0,0,1,2.56-.63,25.39,25.39,0,0,1,29.25,19.54,15.88,15.88,0,0,1,8.2-3.34,15,15,0,0,1,14.76,8.27,13.34,13.34,0,0,1,1.16,6.32,13.2,13.2,0,0,1,2.51-.18c-.11.72-.19,1.44-.25,2.16C291.85,698.27,292.15,707,292.13,707.31Z"/><path class="cls-6" d="M560.61,700.06a144.65,144.65,0,0,1-7.29,19c-8.73.56-19.35,3.72-26.93,8.78a24.92,24.92,0,0,1-20.12,3.47c-11.19-2.94-20.59.45-26.89,4.23q.72-2.49,1.32-5h0a69,69,0,0,0,2.41-9.69,38.08,38.08,0,0,1,8.66-2.92,38.92,38.92,0,0,1,15.87.07,14.41,14.41,0,0,1,1.26-10.52A15.08,15.08,0,0,1,523.27,700a15.56,15.56,0,0,1,9,4.2,20.12,20.12,0,0,1,2.59-5.41,14.88,14.88,0,0,1,10.94-6.62c4.39-.27,8.66,1.84,11.91,4.8A31.57,31.57,0,0,1,560.61,700.06Z"/><path class="cls-7" d="M484.25,677.25c-7.65-1.62-19.17-.9-22.7,2.13a4.11,4.11,0,0,1-5,.33c-10-6.71-27.2-12.9-43.32-5.07-12.42,6-18.55,1.88-21.11-1.16a4,4,0,0,0-4.53-1.23c-13.07,4.94-19.37,4.32-21.43,2-2.23-2.44-9.74-28.77-9.31-22.93a9,9,0,0,1-.06,2.16,4.08,4.08,0,0,1-7.57,1.57c-.62-1-1.29-2.23-2-3.68a4.07,4.07,0,0,0-7.51.43,66.64,66.64,0,0,1-12.09,20.78.21.21,0,0,1-.1-.06,21.5,21.5,0,0,0-22.75,0c-1.16-16.31-.14-32.38,6.31-46.57,8.05-17.74,23.68-29.7,40.4-35.69s34.63-6.58,52.25-6.27c17.3.3,34.86,1.5,51.35,7.92s32,18.66,40.05,36.35c7.85,17.13,7.38,39.66-3.35,54,0,0-1.91,2.58-5.07,6l-1.29,0c-.05-.72-.09-1.11-.09-1.11-.05-.92-.12-1.52-.12-1.52C485.13,685.34,484.59,679.48,484.25,677.25Z"/><path class="cls-8" d="M483.53,611.07a1.42,1.42,0,0,1-1.49,2.31c-5.94-2-13.47-9.4-21-12.64-8.95-3.84-44.39-15.74-97.19-3.13-45.88,11-49.82,53.62-51.46,71a1.4,1.4,0,0,1-1.1,1.23,21.68,21.68,0,0,0-4.63,1.65,1.41,1.41,0,0,1-2-1.15c-.91-15.55.3-30.81,6.45-44.35,8.05-17.74,23.68-29.7,40.4-35.69s34.63-6.58,52.25-6.27c17.3.3,34.86,1.5,51.35,7.92A76.8,76.8,0,0,1,483.53,611.07Z"/><path class="cls-9" d="M327.59,672.61a66.64,66.64,0,0,0,12.09-20.78,4.07,4.07,0,0,1,7.51-.43c.74,1.45,1.41,2.66,2,3.68a4.08,4.08,0,0,0,7.57-1.57,9,9,0,0,0,.06-2.16c-.43-5.84,7.08,20.49,9.31,22.93,2.06,2.29,8.36,2.91,21.43-2a4,4,0,0,1,4.53,1.23c2.56,3,8.69,7.19,21.11,1.16,16.12-7.83,33.31-1.64,43.32,5.07a4.11,4.11,0,0,0,5-.33c3.53-3,15.05-3.75,22.7-2.13.34,2.23.88,8.09.93,8.47,0,0,.07.6.12,1.52,0,0,0,.39.09,1.11.31,4,1.15,18.16-1.26,31.73a69,69,0,0,1-2.41,9.69h0a99.41,99.41,0,0,1-7.42,21c-.08.18-.18.35-.27.53A78.56,78.56,0,0,1,458.29,773a67.12,67.12,0,0,1-11.2,8.71,67.92,67.92,0,0,1-35.63,10c-.75,0-1.52,0-2.3,0l-1.45,0a76.44,76.44,0,0,1-45.91-17.19h0a94.88,94.88,0,0,1-9.79-9c-1.38-1.43-2.68-2.89-3.93-4.37A137.36,137.36,0,0,1,327,726.49c-.18-.41-.35-.8-.51-1.2-.51-1.2-.94-2.32-1.34-3.33l-.43.1c-.84.2-1.68.37-2.5.5l-.94.16h0l-.68.1c-.27-.41-.55-.81-.82-1.23l-.21-.3a44.67,44.67,0,0,1-3.1-5.66,17.73,17.73,0,0,1-1.56-5.51,4.43,4.43,0,0,0,5.85-.47,8,8,0,0,0,1.31-1.68c-4.11-3.35-6-8.64-6.86-12.86-.12-.59-.22-1.16-.3-1.7l-.25,0c-2.71-1-5.87-.43-8.28,5.07s.76,13.66,4.84,21c.44.78.88,1.56,1.34,2.33h0c.13.24.28.45.42.68h0q.22.38.45.72c-1.75,0-2.85-.06-2.85-.06-9.68-1-19.47-6.2-18.84-23.56h0c0-.81.08-1.65.15-2.51s.14-1.44.25-2.16a37.06,37.06,0,0,1,5.15-14.85c.21-.34.43-.66.66-1a22.42,22.42,0,0,1,6.8-6.56,21.5,21.5,0,0,1,22.75,0A.21.21,0,0,0,327.59,672.61Zm139.93,39.16a7.68,7.68,0,0,0-3.13-10.18,7.19,7.19,0,0,0-9.86,3.24A7.69,7.69,0,0,0,457.67,715,7.2,7.2,0,0,0,467.52,711.77Zm-65.14,2.59a7.68,7.68,0,0,0-3.13-10.18,7.18,7.18,0,0,0-9.85,3.24,7.67,7.67,0,0,0,3.13,10.19A7.19,7.19,0,0,0,402.38,714.36Z"/><path class="cls-10" d="M467.52,711.77a7.68,7.68,0,0,0-3.13-10.18,7.19,7.19,0,0,0-9.86,3.24A7.69,7.69,0,0,0,457.67,715,7.2,7.2,0,0,0,467.52,711.77Zm-65.14,2.59a7.68,7.68,0,0,0-3.13-10.18,7.18,7.18,0,0,0-9.85,3.24,7.67,7.67,0,0,0,3.13,10.19A7.19,7.19,0,0,0,402.38,714.36Zm71.38,16.24c-7.12,14.18-14.84,24.31-21.79,31.48a52.4,52.4,0,0,1-39.86,15.8c-11.63-.49-26-1.87-33.65-5.54-14.09-6.79-25-14.09-31.82-23-2.81-3.66-6.86-9.1-11.27-13.83a2.33,2.33,0,0,0-3.76,2.69A130.64,130.64,0,0,0,347.54,762c1.25,1.48,2.55,2.94,3.93,4.37a94.88,94.88,0,0,0,9.79,9h0a76.44,76.44,0,0,0,45.91,17.19l1.45,0h2.3a67.92,67.92,0,0,0,35.63-10,67.12,67.12,0,0,0,11.2-8.71,78.56,78.56,0,0,0,15.74-21.73c.09-.18.19-.35.27-.53a99.41,99.41,0,0,0,7.42-21h0a69,69,0,0,0,2.41-9.69l0-.14a2.33,2.33,0,0,0-4.4-1.4C477.62,722.85,475.8,726.53,473.76,730.6Z"/><path class="cls-11" d="M464.39,701.59a7.68,7.68,0,0,1,3.13,10.18,7.2,7.2,0,0,1-9.85,3.25,7.69,7.69,0,0,1-3.14-10.19A7.19,7.19,0,0,1,464.39,701.59Z"/><path class="cls-11" d="M399.25,704.18a7.68,7.68,0,0,1,3.13,10.18,7.19,7.19,0,0,1-9.85,3.25,7.67,7.67,0,0,1-3.13-10.19A7.18,7.18,0,0,1,399.25,704.18Z"/><path class="cls-12" d="M489.33,525.54a165.83,165.83,0,0,1,21.31,14.67h0a160.4,160.4,0,0,1,21.87,21.4c.18.21.36.41.53.62a152.69,152.69,0,0,1,19.47,29.66A144.68,144.68,0,0,1,568,657V657a144.75,144.75,0,0,1-6.32,42.35C552,730.73,532,758,505.34,777.9a168.54,168.54,0,0,1-29,17.37A177.26,177.26,0,0,1,400.75,812h-.08a178.08,178.08,0,0,1-65.6-12.38,171.46,171.46,0,0,1-26.5-13.22,164.91,164.91,0,0,1-33-26.52,154.59,154.59,0,0,1-27.06-38.46A144.94,144.94,0,0,1,233.69,665q-.23-4-.22-8V657a144.22,144.22,0,0,1,10.17-53.32,152.59,152.59,0,0,1,30.92-48.4,163.78,163.78,0,0,1,22.74-20.06"/><path class="cls-12" d="M297.31,535.18C325.75,514.41,361.65,502,400.67,502h.08a177.11,177.11,0,0,1,78.5,18.1q5.14,2.54,10.07,5.41"/><path class="cls-12" d="M308.57,786.35a205.46,205.46,0,0,0,4.92,25.46,77.69,77.69,0,0,0,4,11.54c2.41,5.26,5.29,9,8.72,10.16,6.28,2.12,27,4,52.27,4.88l1.85.06q4.85.13,9.87.24l1.84,0,4.68.06h5.06c.3,0,.59,0,.89,0h5.07l4.51,0,1.84,0c1.39,0,2.77,0,4.15-.06l2.09,0,3.84-.08,2.07-.06q3.33-.09,6.61-.23l2-.08c20.6-.89,39.72-2.8,52.82-6.15,8.83-2.25,15.38-9.06,16.87-17.44,1.79-10.13,1.64-23.63.72-36.72h0"/><path class="cls-13" d="M532.08,710.61a27,27,0,0,1,1.19-7.09,20.12,20.12,0,0,1,2.59-5.41,14.88,14.88,0,0,1,10.94-6.62c4.39-.27,8.66,1.84,11.91,4.8a31.57,31.57,0,0,1,2.92,3.09"/><path class="cls-13" d="M508.66,717.23a14.41,14.41,0,0,1,1.26-10.52,15.08,15.08,0,0,1,14.37-7.39,15.56,15.56,0,0,1,9,4.2"/><path class="cls-13" d="M484.13,720.08a38.08,38.08,0,0,1,8.66-2.92,38.92,38.92,0,0,1,15.87.07"/><path id="path1" class="cls-13" d="M265,698.22a26.86,26.86,0,0,0,.55-14.31,25.39,25.39,0,0,0-29.25-19.54,22.24,22.24,0,0,0-2.56.63"/><path id="path2" class="cls-13" d="M265.5,683.91a15.88,15.88,0,0,1,8.2-3.34,15,15,0,0,1,14.76,8.27,13.34,13.34,0,0,1,1.16,6.32"/><path id="path_2" class="cls-14" d="M298.28,754.89a11.62,11.62,0,0,1,10.4,6.58"/><path id="path_1" class="cls-14" d="M309.79,761a12.24,12.24,0,0,1,5.66-1,12.43,12.43,0,0,1,8.9,4.69"/><path id="path_2-2" data-name="path_2" class="cls-13" d="M296.73,752.46a12.6,12.6,0,0,1,11.86,6"/><path id="path_1-2" data-name="path_1" class="cls-13" d="M308.59,758.49a13.28,13.28,0,0,1,15.76,4"/><path id="path4" class="cls-14" d="M517.36,745.91a21.66,21.66,0,0,0-3.57-5.56,7.08,7.08,0,0,0-5.88-2.33c-2.92.45-5,3.5-5.13,6.51a10.19,10.19,0,0,0,.08,1.56,13.06,13.06,0,0,0,3.25,6.61"/><path id="path3" class="cls-14" d="M497.66,756.07c-2.41-.73-3.61-3.9-2.69-6.3a6.53,6.53,0,0,1,6-3.89,7.81,7.81,0,0,1,1.86.21"/><path id="path4-2" data-name="path4" class="cls-13" d="M520,745.12a25.4,25.4,0,0,0-4.28-6.51,8.54,8.54,0,0,0-7-2.72c-3.5.52-6,4.09-6.14,7.62a11,11,0,0,0,.09,1.82,15.09,15.09,0,0,0,3.9,7.74"/><path id="path3-2" data-name="path3" class="cls-13" d="M496.4,757c-2.89-.86-4.33-4.57-3.23-7.38a7.83,7.83,0,0,1,7.22-4.55,9.83,9.83,0,0,1,2.23.24"/><path class="cls-15" d="M313.42,723.28c-1.75,0-2.85-.06-2.85-.06-9.68-1-19.47-6.2-18.84-23.56h0c0-.81.08-1.65.15-2.51s.14-1.44.25-2.16a37.06,37.06,0,0,1,5.15-14.85c.21-.34.43-.66.66-1a22.42,22.42,0,0,1,6.8-6.56,21.5,21.5,0,0,1,22.75,0,.21.21,0,0,0,.1.06c5.3,3.27,11.27,8.72,12.34,17.06"/><path class="cls-15" d="M327.58,672.62h0a66.64,66.64,0,0,0,12.09-20.78,4.07,4.07,0,0,1,7.51-.43c.74,1.45,1.41,2.66,2,3.68a4.08,4.08,0,0,0,7.57-1.57,9,9,0,0,0,.06-2.16c-.43-5.84,7.08,20.49,9.31,22.93,2.06,2.29,8.36,2.91,21.43-2a4,4,0,0,1,4.53,1.23c2.56,3,8.69,7.19,21.11,1.16,16.12-7.83,33.31-1.64,43.32,5.07a4.11,4.11,0,0,0,5-.33c3.53-3,15.05-3.75,22.7-2.13h0"/><path class="cls-15" d="M322.47,708.31a15.22,15.22,0,0,0,1.32.89"/><path class="cls-15" d="M314.49,688.45a33.38,33.38,0,0,0,.41,5c.08.54.18,1.11.3,1.7.86,4.22,2.75,9.51,6.86,12.86.13.12.27.22.41.33"/><path class="cls-15" d="M322.06,708a8,8,0,0,1-1.31,1.68,4.43,4.43,0,0,1-5.85.47,17.73,17.73,0,0,0,1.56,5.51,44.67,44.67,0,0,0,3.1,5.66l.21.3c.27.42.55.82.82,1.23.46.67.9,1.3,1.35,1.9.55.77,1.08,1.48,1.59,2.11,1.47,1.91,2.54,3.12,2.54,3.12l-3.93,5.7s-2.61-3.18-5.76-7.8l-.71-1.05c-.73-1.1-1.5-2.28-2.25-3.52q-.23-.35-.45-.72h0c-.14-.23-.29-.44-.42-.68h0c-.46-.77-.9-1.55-1.34-2.33-4.08-7.35-7.2-15.61-4.84-21s5.57-6,8.28-5.07"/><path class="cls-15" d="M320.59,722.82l.68-.1h0l.94-.16c.82-.13,1.66-.3,2.5-.5l.43-.1c.4,1,.83,2.13,1.34,3.33.16.4.33.79.51,1.2a137.36,137.36,0,0,0,21.05,34.57c1.25,1.48,2.55,2.94,3.93,4.37a94.88,94.88,0,0,0,9.79,9h0a76.44,76.44,0,0,0,45.91,17.19l1.45,0c.78,0,1.55,0,2.3,0a67.92,67.92,0,0,0,35.63-10,67.12,67.12,0,0,0,11.2-8.71A78.56,78.56,0,0,0,474,751.27c.09-.18.19-.35.27-.53a99.41,99.41,0,0,0,7.42-21h0a69,69,0,0,0,2.41-9.69c2.41-13.57,1.57-27.74,1.26-31.73-.05-.72-.09-1.11-.09-1.11-.05-.92-.12-1.52-.12-1.52-.05-.38-.59-6.24-.93-8.47a72.79,72.79,0,0,0-3-12.7"/><path class="cls-15" d="M418.59,734.11a18.84,18.84,0,0,1-2.93,16.94"/><path class="cls-15" d="M421.13,743.11a26.21,26.21,0,0,1,21.41-1.39"/><path class="cls-15" d="M445.56,730.88a11.69,11.69,0,0,0-1.37,10.38,14.34,14.34,0,0,0,7.89,8"/><path class="cls-15" d="M304.74,672.59h0c-1.16-16.31-.14-32.38,6.31-46.57,8.05-17.74,23.68-29.7,40.4-35.69s34.63-6.58,52.25-6.27c17.3.3,34.86,1.5,51.35,7.92s32,18.66,40.05,36.35c7.85,17.13,7.38,39.66-3.35,54,0,0-1.91,2.58-5.07,6"/><path class="cls-16" d="M287.36,563.57s18.79-24.54,54.27-34"/><path class="cls-17" d="M481.33,631.72s7.09,7.16,7.09,14.95"/><path class="cls-18" d="M367.89,757.58c.23.61,1.54,4.61-3.95,3.49a1,1,0,0,1-.46-.25,7.31,7.31,0,0,1-1.66-2.44l1,4.63a3.53,3.53,0,0,1-.41,2.66,2.21,2.21,0,0,1-2.73,1.13,3.13,3.13,0,0,1-1.81-1.74c-1.19-2.72-1.38-6.17-5.19-6.1-4.33.06-5.59-4.63,3.73-6.55.24,0,6.51-12.87,14.9-10.52,7.95,2.22,7.47,9.54,5.48,11.41a6.72,6.72,0,0,1-3,1.83.48.48,0,0,0-.37.48l0,3.52a2.5,2.5,0,0,1-4.19,1.88l-.06-.06a1,1,0,0,1-.2-.34C368.46,759,368,757.86,367.89,757.58Z"/><path class="cls-19" d="M376.35,752.87a6.4,6.4,0,0,1-2.84,1.65.47.47,0,0,0-.37.48l0,3.53a2.49,2.49,0,0,1-4.19,1.86s0,0-.06,0a.85.85,0,0,1-.21-.34c-.55-1.67-1-2.75-1.12-3,.23.62,1.55,4.62-3.94,3.5a.88.88,0,0,1-.46-.26,7.14,7.14,0,0,1-1.66-2.43l1,4.63a3.49,3.49,0,0,1-.42,2.66,2.2,2.2,0,0,1-2.72,1.12,3.07,3.07,0,0,1-1.81-1.74c-.14-.32-.27-.65-.39-1a4.12,4.12,0,0,0,3,.43c1.05-.47.93-4.28.8-6.21a.43.43,0,0,1,.65-.39,4.47,4.47,0,0,0,2.53.56,5.59,5.59,0,0,0,3.66-1.57.42.42,0,0,1,.69.16c.48,1.26,1.59,3.77,2.4,2.19a37.66,37.66,0,0,0,1.93-4.75.41.41,0,0,1,.27-.27l2.71-.88Z"/><path class="cls-20" d="M367.86,757.5h0a.15.15,0,0,1,0,.07"/><path class="cls-20" d="M367.89,757.58c.23.61,1.54,4.61-3.95,3.49a1,1,0,0,1-.46-.25,7.31,7.31,0,0,1-1.66-2.44l1,4.63a3.53,3.53,0,0,1-.41,2.66,2.21,2.21,0,0,1-2.73,1.13,3.13,3.13,0,0,1-1.81-1.74c-1.19-2.72-1.38-6.17-5.19-6.1-4.33.06-5.59-4.63,3.73-6.55.24,0,6.51-12.87,14.9-10.52,7.95,2.22,7.47,9.54,5.48,11.41a6.72,6.72,0,0,1-3,1.83.48.48,0,0,0-.37.48l0,3.52a2.5,2.5,0,0,1-4.19,1.88l-.06-.06a1,1,0,0,1-.2-.34C368.46,759,368,757.86,367.89,757.58Z"/><path class="cls-18" d="M471.61,767.15c-.26.7-1.77,5.3,4.53,4a1,1,0,0,0,.53-.29,8.16,8.16,0,0,0,1.9-2.8l-1.19,5.32a4.06,4.06,0,0,0,.47,3.05,2.54,2.54,0,0,0,3.14,1.29,3.56,3.56,0,0,0,2.07-2c1.37-3.12,1.58-7.08,5.95-7,5,.08,6.43-5.3-4.27-7.5-.28-.06-7.47-14.78-17.11-12.08-9.11,2.55-8.56,10.94-6.28,13.09a7.8,7.8,0,0,0,3.49,2.11.55.55,0,0,1,.43.55l0,4a2.86,2.86,0,0,0,4.8,2.16l.07-.07a1,1,0,0,0,.23-.39C471,768.72,471.47,767.47,471.61,767.15Z"/><path class="cls-19" d="M461.9,761.75a7.37,7.37,0,0,0,3.26,1.89.55.55,0,0,1,.43.55l0,4a2.86,2.86,0,0,0,4.81,2.14s0,0,.07-.06a.9.9,0,0,0,.23-.39c.64-1.91,1.15-3.15,1.29-3.47-.26.7-1.77,5.29,4.53,4a1,1,0,0,0,.52-.3,8.15,8.15,0,0,0,1.91-2.79l-1.2,5.31a4.14,4.14,0,0,0,.48,3.06,2.54,2.54,0,0,0,3.13,1.29,3.55,3.55,0,0,0,2.07-2c.17-.37.31-.75.45-1.14-1,.45-2.48.93-3.46.49-1.22-.55-1.08-4.92-.93-7.13a.48.48,0,0,0-.74-.45,5.14,5.14,0,0,1-2.9.64,6.44,6.44,0,0,1-4.2-1.8.49.49,0,0,0-.8.18c-.54,1.45-1.82,4.33-2.75,2.52a42.54,42.54,0,0,1-2.21-5.46.5.5,0,0,0-.31-.31l-3.11-1Z"/><path class="cls-20" d="M471.65,767.06h0a.34.34,0,0,0,0,.08"/><path class="cls-20" d="M471.61,767.15c-.26.7-1.77,5.3,4.53,4a1,1,0,0,0,.53-.29,8.16,8.16,0,0,0,1.9-2.8l-1.19,5.32a4.06,4.06,0,0,0,.47,3.05,2.54,2.54,0,0,0,3.14,1.29,3.56,3.56,0,0,0,2.07-2c1.37-3.12,1.58-7.08,5.95-7,5,.08,6.43-5.3-4.27-7.5-.28-.06-7.47-14.78-17.11-12.08-9.11,2.55-8.56,10.94-6.28,13.09a7.8,7.8,0,0,0,3.49,2.11.55.55,0,0,1,.43.55l0,4a2.86,2.86,0,0,0,4.8,2.16l.07-.07a1,1,0,0,0,.23-.39C471,768.72,471.47,767.47,471.61,767.15Z"/><path class="cls-12" d="M489.33,525.54a165.83,165.83,0,0,1,21.31,14.67h0a160.4,160.4,0,0,1,21.87,21.4c.18.21.36.41.53.62a152.69,152.69,0,0,1,19.47,29.66A144.68,144.68,0,0,1,568,657V657a144.75,144.75,0,0,1-6.32,42.35C552,730.73,532,758,505.34,777.9a168.54,168.54,0,0,1-29,17.37A177.26,177.26,0,0,1,400.75,812h-.08a178.08,178.08,0,0,1-65.6-12.38,171.46,171.46,0,0,1-26.5-13.22,164.91,164.91,0,0,1-33-26.52,154.59,154.59,0,0,1-27.06-38.46A144.94,144.94,0,0,1,233.69,665q-.23-4-.22-8V657a144.22,144.22,0,0,1,10.17-53.32,152.59,152.59,0,0,1,30.92-48.4,163.78,163.78,0,0,1,22.74-20.06"/><path class="cls-5" d="M431.49,600.76c-7.23-.69-10.42,11-17.68,10.5-3.39-.25-5.89-3.46-6-6.62s1.59-6.17,3.78-8.6c5.67-6.32,14.83-9.68,23.59-8.82.73-.53,1.13-.87,1.13-.87,3.85-1.24,7.81-2.51,11.9-2.41s8.37,1.84,10.23,5.24.18,8.39-3.78,9.34c-3.27.77-7.43-1-9.77,1.25-2,1.94-.61,5.4,1.81,6.84s5.45,1.58,8.28,2.1c4.58.86,9.06,3,11.79,6.54s3.45,8.61,1,12.34-8.28,5.38-12.17,3c-3.56-2.21-5.68-7.28-9.92-6.89-4.44.41-5.06,6.85-2,9.86s7.83,3.76,11.91,5.44c4.57,1.88,8.79,5.63,8.92,10.29s-5.88,9-10,6.4c-3.3-2.06-4.27-7.32-8.23-7.54-2.75-.16-4.82,2.64-4.83,5.21s1.38,5,2.49,7.31c2.25,4.72,3.55,10,2.28,15.07s-5.57,9.59-11.06,10.26-11.4-3.67-11-8.82c.35-4.37,4.5-7.48,7.26-11s3.44-9.76-.95-11.32c-5.45-1.95-11.71,5.93-16.41,2.7-2.84-2-1.73-6.4.93-8.58s6.24-3,9.21-4.82c7.56-4.53,9.4-15.55,3.67-22-2.9,4.08-6.19,8.44-11.21,9.85s-11.7-2.25-10.64-7c1.15-5.15,8.57-5.71,13.84-7.57a17.14,17.14,0,0,0,11.37-13.83A4.57,4.57,0,0,0,431.49,600.76Z"/><path class="cls-4" d="M446.08,608.63s17.91-.27,20.35,9c-2.17,4.89-6-1.62-6-1.62S455,608.09,446.08,608.63Z"/><path class="cls-4" d="M452.55,640.19s8.53,1.65,8.77,6.27c-1.51,2.11-2.67-1.36-2.67-1.36S456.85,640.82,452.55,640.19Z"/><path class="cls-4" d="M430.79,670.13s-5,4.79-4.6,8.81c.29,1.37,1.05,1.15,1.73.59a3.25,3.25,0,0,0,1.16-2.69A11.82,11.82,0,0,1,430.79,670.13Z"/><path class="cls-4" d="M415,620.29a.22.22,0,0,0-.13-.41c-2.24.53-5.19,1.44-6.05,2.65-1.1,1.55,1.06,1,2.13.64a1.32,1.32,0,0,0,.72-.53A7.8,7.8,0,0,1,415,620.29Z"/><path class="cls-21" d="M435.16,587.22c-8.76-.86-17.92,2.5-23.59,8.82-2.19,2.43-3.91,5.42-3.78,8.6s2.63,6.37,6,6.62c7.26.54,10.45-11.19,17.68-10.5h0"/><path class="cls-21" d="M435.16,587.22c.73-.53,1.13-.87,1.13-.87,3.85-1.24,7.81-2.51,11.9-2.41s8.37,1.84,10.23,5.24.18,8.39-3.78,9.34c-3.27.77-7.43-1-9.77,1.25-2,1.94-.61,5.4,1.81,6.84s5.45,1.58,8.28,2.1c4.58.86,9.06,3,11.79,6.54s3.45,8.61,1,12.34-8.28,5.38-12.17,3c-3.56-2.21-5.68-7.28-9.92-6.89-4.44.41-5.06,6.85-2,9.86s7.83,3.76,11.91,5.44c4.57,1.88,8.79,5.63,8.92,10.29s-5.88,9-10,6.4c-3.3-2.06-4.27-7.32-8.23-7.54-2.75-.16-4.82,2.64-4.83,5.21s1.38,5,2.49,7.31c2.25,4.72,3.55,10,2.28,15.07s-5.57,9.59-11.06,10.26-11.4-3.67-11-8.82c.35-4.37,4.5-7.48,7.26-11s3.44-9.76-.95-11.32c-5.45-1.95-11.71,5.93-16.41,2.7-2.84-2-1.73-6.4.93-8.58s6.24-3,9.21-4.82c7.56-4.53,9.4-15.55,3.67-22-2.9,4.08-6.19,8.44-11.21,9.85s-11.7-2.25-10.64-7c1.15-5.15,8.57-5.71,13.84-7.57a17.14,17.14,0,0,0,11.37-13.83,4.57,4.57,0,0,0,.25-2.71"/><rect class="cls-4" x="488.82" y="675.12" width="11.95" height="11.95" rx="5.98"/><rect class="cls-4" x="468.88" y="710.94" width="25.92" height="25.92" rx="12.96"/><rect class="cls-4" x="520.73" y="664.68" width="8.12" height="8.12" rx="4.06"/><rect class="cls-4" x="505.66" y="630.73" width="6.08" height="6.08" rx="2.4"/><path class="cls-4" d="M381.78,829.27c2.17-.16,3.26-.23,5.43-.36l.1,1.8c-2.88.17-4.32.27-7.19.49-.38-4.76-.56-7.14-.94-11.9l1.86-.14C381.34,823.2,381.49,825.23,381.78,829.27Z"/><path class="cls-4" d="M393.31,830.44l-1.8.08L391,818.59l1.86-.08C393,823.28,393.11,825.67,393.31,830.44Z"/><path class="cls-4" d="M408.7,818.23c0,4.75,0,7.13,0,11.88h-1.8c0-3.48,0-5.22,0-8.7-1,1.48-1.54,2.22-2.55,3.71l-.15.18-.09.18-.53.79-.3.48-.34-.48-.56-.77-.09-.18-.16-.17c-1-1.46-1.56-2.19-2.61-3.64l.2,8.7-1.8,0c-.13-4.75-.2-7.12-.34-11.87l1.89,0c1.53,2.06,2.28,3.1,3.77,5.18,1.41-2.12,2.13-3.18,3.59-5.28Z"/><path class="cls-4" d="M420.49,829.16a3.16,3.16,0,0,1-2.08,1.07c-2.13-.05-3.19-.07-5.32-.09.07-4.74.1-7.1.17-11.84,2.15,0,3.22.07,5.37.14a2.81,2.81,0,0,1,2.07,1.12,3.34,3.34,0,0,1,.72,2.25,3,3,0,0,1-1.12,2.36l.14.15.12.16a3.36,3.36,0,0,1,.86,2.43A3.48,3.48,0,0,1,420.49,829.16ZM415,823.22c1.2,0,1.8,0,3,.1a1.42,1.42,0,0,0,1.08-.48,1.64,1.64,0,0,0,.47-1.1,1.5,1.5,0,0,0-.4-1.09,1.54,1.54,0,0,0-1.07-.45c-1.21,0-1.81-.05-3-.07C415.06,821.36,415.05,822,415,823.22Zm3,5.23a1.32,1.32,0,0,0,1.07-.45,1.85,1.85,0,0,0,.46-1.16,1.93,1.93,0,0,0-.39-1.21,1.32,1.32,0,0,0-1-.54L415,825c0,1.34,0,2-.06,3.36C416.18,828.4,416.81,828.41,418.07,828.45Zm-.35,1.79h0Z"/><path class="cls-4" d="M424.75,824.5a5.91,5.91,0,0,1,1.86-4.15,5.85,5.85,0,0,1,8.36.52,6.09,6.09,0,0,1-.63,8.44,5.47,5.47,0,0,1-4.18,1.52,5.41,5.41,0,0,1-4-2A6,6,0,0,1,424.75,824.5Zm1.83.09a4.29,4.29,0,0,0,1,3,3.83,3.83,0,0,0,5.59.35,4.22,4.22,0,0,0,1.37-2.91,4,4,0,0,0-.95-3,3.82,3.82,0,0,0-2.78-1.42,3.73,3.73,0,0,0-2.9,1.06A4.06,4.06,0,0,0,426.58,824.59Z"/></g></svg>