<svg xmlns="http://www.w3.org/2000/svg" viewBox="0 0 223.35 209.77"><defs><style>.cls-1,.cls-3{fill:#fff;}.cls-2{fill:none;stroke-width:6px;}.cls-2,.cls-3,.cls-4{stroke:#000;}.cls-2,.cls-4{stroke-linecap:round;stroke-linejoin:round;}.cls-3{stroke-miterlimit:10;stroke-width:4px;}.cls-4{stroke-width:2px;}.cls-5{opacity:0.25;}</style></defs><g id="Layer_2" data-name="Layer 2"><g id="Layer_1-2" data-name="Layer 1"><path d="M58.58,59.65c-.45.15-.95.18-1.39.34.08,0,.72-.05.19,0H56.26l-.4,0c-.34,0,.28,0,.29,0a3.88,3.88,0,0,0-.71-.14l-.68-.2a2.66,2.66,0,0,1-.39-.14c0,.06.57.27.15.06a9.41,9.41,0,0,1-1.24-.7,1.51,1.51,0,0,1-.34-.24s.54.46.13.09c-.19-.19-.4-.37-.58-.57s-.53-.69-.3-.32-.18-.29-.22-.37-.23-.43-.35-.64.1.25.09.24-.13-.35-.18-.49-.14-.46-.19-.7-.17-.9-.09-.41,0-.29,0-.43a7.85,7.85,0,0,1,0-.84,3,3,0,0,0,0-.41s-.11.61,0,.28.09-.48.15-.72a6.13,6.13,0,0,1,.2-.7c0-.13.1-.26.14-.39.13-.38-.25.49-.06.14s.48-.84.74-1.25-.37.41-.09.11c.07-.07.13-.16.2-.23a8.35,8.35,0,0,1,.6-.59c.39-.38-.07,0-.12.07a2.53,2.53,0,0,1,.35-.25l.54-.33.38-.19c.29-.16.23,0-.14,0a3.43,3.43,0,0,0,.8-.27c.27-.08.55-.13.83-.2.08,0,.43-.12,0,0s.11,0,.23,0c.56,0,1.15.09,1.7,0-.57.05-.42-.06-.17,0l.41.09c.31.08.61.19.91.28s-.23-.1-.23-.1a1.52,1.52,0,0,1,.48.23,8.39,8.39,0,0,1,.81.5A3,3,0,0,0,64,49.2a3.07,3.07,0,0,0-1.08-4.1,11.6,11.6,0,0,0-16,3.42,12.06,12.06,0,0,0-1.42,8.73,11,11,0,0,0,5.08,7,11.66,11.66,0,0,0,9.58,1.19,3,3,0,0,0-1.59-5.79Z"/><path d="M146.82,41.43a14.12,14.12,0,0,1,2.12-.48c-.69.09.44,0,.56,0,.36,0,.73,0,1.09,0s.72,0,1.08.07c-.69-.07.41.09.54.11.35.08.7.17,1,.28.12,0,1.14.43.55.17a17.34,17.34,0,0,1,1.87,1.07c-.54-.33.06.06.17.15s.48.45.71.69.71.93.32.36c.19.27.38.55.54.83s.32.59.46.89c-.31-.65.11.29.15.43.1.32.18.64.25,1a4,4,0,0,1,.09.48c-.05-.39-.06-.41,0-.06s0,.65,0,1l0,.49c.06-.39.06-.41,0-.07s-.17.63-.25,1c-.14.58.26-.44,0,.14-.15.28-.29.55-.46.81s-.17.26-.26.39q.34-.45,0-.06c-.22.22-.42.45-.65.67l-.35.3c.3-.23.31-.24,0,0s-.52.34-.79.48a4.11,4.11,0,0,1-.42.21c.37-.15.39-.16.08,0s-.58.19-.88.26l-.45.08c.42,0,.46-.06.11,0-.2,0-.73.11-.91,0,.42.07.46.07.12,0a3.43,3.43,0,0,1-.46-.11,3,3,0,1,0-1.59,5.79,10.84,10.84,0,0,0,13-8.43,12.5,12.5,0,0,0-1.68-8.69,13.65,13.65,0,0,0-7.11-5.64,16.39,16.39,0,0,0-10.13-.12,3,3,0,1,0,1.59,5.79Z"/><path class="cls-1" d="M215.31,139.19a25.18,25.18,0,0,1-5.12,5.72,44,44,0,0,1-8.21,5.26c-2.6,1.32-5.3,2.49-7.95,3.62l-.15,0c.5-1.69,1-3.38,1.36-5.09,1-4.1,1.74-8.25,2.32-12.41.84-6,1.32-12.12,1.6-18.24.2-4.06.32-8.13.39-12.2,7.09.68,14.77,6.63,17.46,12.92A22.34,22.34,0,0,1,215.31,139.19Z"/><path class="cls-1" d="M107.32,136.4c-1.9,2.24-5.26,2.35-8.2,2.28l-20.92-.49c-1.94-.05-4.19-.24-5.3-1.83a6.29,6.29,0,0,1-.72-4c.24-5.89.47-11.8.7-17.69a13.61,13.61,0,0,1,1.81-4.22c2.3-3.44,6.37-5.37,10.45-6s8.25-.13,12.36.37c3.27.41,6.88,1,9,3.49,2,2.33,2.12,5.63,2.16,8.68q.09,6.28.2,12.57C108.9,132,108.87,134.59,107.32,136.4Zm67.81,3.54c-1.71,1.63-4.29,1.88-6.66,2l-20.35,1.3c-2.24.14-4.88.11-6.21-1.69-1-1.34-.85-3.16-.69-4.82q1.4-13.24,2.76-26.52l-.72-2.42a59.56,59.56,0,0,1,22.91-2.37,10.37,10.37,0,0,1,5,1.44c2.55,1.77,3.17,5.23,3.57,8.31.68,5.24,1.36,10.46,2.05,15.69C177.2,134.06,177.45,137.74,175.13,139.94Zm22.43-3.69c-.58,4.16-1.33,8.31-2.32,12.41-.41,1.71-.86,3.4-1.36,5.09-4.27,14.49-14.79,25-26.55,34.34-15.7,12.5-33.93,19.07-54,18.66-19.56-.38-36.26-7.29-52.16-18.66C46.66,177.71,31.69,154,34.29,135.16c-10-.9-21.78-5.83-21.61-24h0A40.82,40.82,0,0,1,27.51,93.45c9.74-6.33,21.65-8.21,33.19-9.55a531.47,531.47,0,0,1,102.84-2c8.18.64,16.46,1.49,24.15,4.38A38.41,38.41,0,0,1,200,93.72c-.16,4-.44,10.26-.47,12.09-.07,4.07-.19,8.14-.39,12.2Z"/><path class="cls-1" d="M176.8,130.89c-.69-5.23-1.37-10.45-2.05-15.69-.4-3.08-1-6.54-3.57-8.31a10.37,10.37,0,0,0-5-1.44,59.56,59.56,0,0,0-22.91,2.37l.72,2.42q-1.38,13.26-2.76,26.52c-.16,1.66-.3,3.48.69,4.82,1.33,1.8,4,1.83,6.21,1.69l20.35-1.3c2.37-.15,4.95-.4,6.66-2C177.45,137.74,177.2,134.06,176.8,130.89Zm-17.48-1.53a5.64,5.64,0,1,1,5.84-5.44A5.64,5.64,0,0,1,159.32,129.36Z"/><path class="cls-1" d="M159.69,118.08a5.64,5.64,0,1,1-5.82,5.45A5.64,5.64,0,0,1,159.69,118.08Z"/><path class="cls-1" d="M108.87,129.6q-.11-6.28-.2-12.57c0-3-.18-6.35-2.16-8.68-2.13-2.52-5.74-3.08-9-3.49-4.11-.5-8.27-1-12.36-.37s-8.15,2.56-10.45,6a13.61,13.61,0,0,0-1.81,4.22c-.23,5.89-.46,11.8-.7,17.69a6.29,6.29,0,0,0,.72,4c1.11,1.59,3.36,1.78,5.3,1.83l20.92.49c2.94.07,6.3,0,8.2-2.28C108.87,134.59,108.9,132,108.87,129.6Zm-18.33-2.23a5.65,5.65,0,1,1,5.83-5.46A5.66,5.66,0,0,1,90.54,127.37Z"/><path class="cls-1" d="M90.91,116.08a5.64,5.64,0,1,1-5.82,5.45A5.65,5.65,0,0,1,90.91,116.08Z"/><path class="cls-2" d="M199.55,105.8c7.09.68,14.76,6.63,17.45,12.93a22.28,22.28,0,0,1-1.69,20.45c-4.72,7.36-13.25,11.18-21.29,14.61"/><path class="cls-3" d="M210.54,143.23c-.12.56-.22,1.12-.35,1.68-.08.37-.16.72-.24,1.08h0c-.06.3-.13.56-.21.83h0c-.43,1.79-.9,3.52-1.36,5.13-.89,3.1-1.79,5.8-2.46,7.75a2.5,2.5,0,0,1-3.89,1.16l-1.58-1.22a2.49,2.49,0,0,1-.8-2.9c.47-1.18,1.11-2.88,1.77-4.86.19-.56.37-1.14.55-1.73s.41-1.39.62-2.12c0-.12.08-.25.11-.37A46.15,46.15,0,0,0,204,141c.06-.55.1-1.09.13-1.62a2.51,2.51,0,0,0-3.1-2.54,4.79,4.79,0,0,1-3.47-.58c.84-6,1.32-12.12,1.6-18.24a2.33,2.33,0,0,1,.93-.77c2.25-1,5.13-.59,8.56,3.29C212.77,125.21,212.29,134.51,210.54,143.23Z"/><path class="cls-2" d="M200,93.72c-.16,4-.44,10.26-.47,12.09-.07,4.07-.19,8.14-.39,12.2-.28,6.12-.76,12.2-1.6,18.24-.58,4.16-1.33,8.31-2.32,12.41-.41,1.71-.86,3.4-1.36,5.09-4.27,14.49-14.79,25-26.55,34.34-15.7,12.5-33.93,19.07-54,18.66-19.56-.38-36.26-7.29-52.16-18.66C46.66,177.71,31.69,154,34.29,135.16"/><path class="cls-2" d="M12.67,111.14A40.83,40.83,0,0,1,27.5,93.45c9.74-6.34,21.65-8.21,33.19-9.55a531.59,531.59,0,0,1,102.85-2c8.18.65,16.46,1.5,24.14,4.39A38.17,38.17,0,0,1,200,93.71"/><path class="cls-2" d="M72.88,114.7q-.34,8.85-.71,17.7a6.38,6.38,0,0,0,.72,3.95c1.12,1.59,3.36,1.79,5.3,1.83l20.93.5c2.94.06,6.29,0,8.2-2.28,1.54-1.81,1.58-4.43,1.55-6.8-.07-4.2-.14-8.38-.2-12.58,0-3-.19-6.35-2.16-8.67-2.14-2.53-5.74-3.09-9-3.5-4.1-.5-8.27-1-12.35-.36s-8.15,2.56-10.45,6A13.46,13.46,0,0,0,72.88,114.7Z"/><path class="cls-2" d="M144,110.23l-2.76,26.53c-.17,1.65-.3,3.48.69,4.81,1.33,1.81,4,1.84,6.2,1.69l20.36-1.3c2.36-.15,4.94-.39,6.66-2,2.31-2.21,2.07-5.89,1.66-9.05-.68-5.23-1.37-10.46-2-15.69-.41-3.09-1-6.54-3.58-8.32a10.19,10.19,0,0,0-5-1.43,59.34,59.34,0,0,0-22.9,2.37,3.18,3.18,0,0,0-.38.11"/><path class="cls-2" d="M176.42,112.22l22.21-4.89"/><path class="cls-2" d="M67.41,108.69,38.76,97.21"/><path class="cls-2" d="M12.67,111.14h0c-.17,18.18,11.6,23.1,21.62,24a48.41,48.41,0,0,0,13.81-.84"/><path d="M193.13,53.2c12.93-1.67,34.29,13.42,24.91,37.06s-43.56,18.91-42.88-1.44c-6.37,29.15-35.88,16.17-35.36.62-20.54,32.25-36.07,3.88-39.13-3.12-3.49,14.56-31.11,8.24-31.11,8.24S18.15,73.38,13,112.14c-.19,1.31-.31,2.59-.38,3.8l-1-.07C-1.87,105.5,3.13,87.52,8.84,82.94-5.94,50.41,27.7,38.66,34.09,49.65c-7.81-39.13,28.4-30.49,32.53-19.57,2.16-37.66,41.07-28,45.37-13.16,17.37-27,49.72-9.4,50.65,7.7C192.67-4.92,216.59,41.4,193.13,53.2Z"/><path class="cls-2" d="M12.54,116.57c0-.21,0-.41,0-.63.07-1.21.19-2.49.38-3.8,5.19-38.76,56.6-17.58,56.6-17.58s27.62,6.32,31.11-8.24c3.06,7,18.59,35.37,39.13,3.12-.52,15.55,29,28.53,35.36-.62-.68,20.35,33.5,25.09,42.88,1.44s-12-38.73-24.91-37.06c23.46-11.8-.46-58.12-30.49-28.58C161.71,7.52,129.36-10,112,16.92c-4.3-14.86-43.21-24.5-45.37,13.16C62.49,19.16,26.28,10.52,34.09,49.65c-6.39-11-40,.76-25.25,33.29-5.71,4.58-10.71,22.56,2.73,32.93"/><path class="cls-4" d="M99.34,128.65a171.26,171.26,0,0,0-17.64-.92,9.26,9.26,0,0,0,17.64.92Z"/><path class="cls-4" d="M167.33,131.84a171.4,171.4,0,0,0-17.64-.92,9.26,9.26,0,0,0,17.64.92Z"/><path class="cls-5" d="M145.27,143.49s14.14-1.09,24,.81,6.81-8.53,2.68-9.9-21.05-2.57-24.22-1.45S137.5,141.93,145.27,143.49Z"/><path class="cls-5" d="M77.63,139.65s14.13-1.09,24,.8,6.81-8.52,2.68-9.9S83.24,128,80.07,129.11,69.85,138.08,77.63,139.65Z"/><path d="M142.65,50.21a14.12,14.12,0,0,1,2.12-.48c-.69.1.44,0,.56,0,.36,0,.73,0,1.09,0s.72,0,1.08.07c-.69-.07.41.09.54.12a9.34,9.34,0,0,1,1,.27c.12,0,1.14.44.55.17a19.21,19.21,0,0,1,1.87,1.07c-.54-.33.06.06.17.15a9.37,9.37,0,0,1,.71.7c.09.1.71.92.32.35.19.28.37.55.54.84a9.17,9.17,0,0,1,.46.88c-.32-.65.1.29.15.44.1.31.18.63.25,1l.09.48q-.08-.59,0-.06c0,.32,0,.65,0,1l0,.48q.07-.59,0-.06c-.08.31-.17.62-.25.94-.14.59.26-.43,0,.14-.15.28-.29.55-.46.82s-.17.25-.26.38q.35-.45,0-.06c-.22.22-.42.46-.65.67l-.36.3c.31-.22.32-.24.05-.05s-.52.34-.79.49l-.42.2c.37-.14.39-.16.08,0s-.58.19-.88.26l-.45.08c.42,0,.46-.06.11,0s-.73.11-.91,0c.42.07.46.07.11,0l-.45-.1A3,3,0,1,0,147,67.3,10.81,10.81,0,0,0,160,58.87a12.4,12.4,0,0,0-1.68-8.69,13.67,13.67,0,0,0-7.1-5.64,16.39,16.39,0,0,0-10.13-.12,3,3,0,1,0,1.59,5.79Z"/><path d="M71.53,69.47c-.44.15-1,.18-1.38.34.08,0,.71-.06.19,0l-.31,0a7.3,7.3,0,0,1-.81,0c-.14,0-.28,0-.41,0-.34,0,.28,0,.29,0a4,4,0,0,0-.7-.15c-.23,0-.46-.12-.69-.19a2.66,2.66,0,0,1-.39-.14c0,.06.57.26.15.06a11.61,11.61,0,0,1-1.24-.7,2.52,2.52,0,0,1-.33-.24s.53.46.13.08c-.2-.18-.4-.36-.59-.56s-.53-.69-.29-.32l-.23-.37c-.13-.21-.23-.43-.35-.64s.1.25.09.24a1.68,1.68,0,0,1-.17-.49c-.08-.23-.14-.46-.2-.7s-.16-.91-.09-.42,0-.28,0-.43a7.66,7.66,0,0,1,0-.83,1.54,1.54,0,0,0,0-.42s-.1.62,0,.28.09-.47.15-.71.13-.47.2-.7.1-.26.14-.39c.13-.38-.25.49,0,.14s.47-.84.73-1.25-.37.41-.09.11l.2-.24c.19-.2.4-.39.6-.58.39-.38-.07,0-.11.06a2.62,2.62,0,0,1,.34-.24l.54-.33.38-.19c.29-.17.23,0-.14,0a3.43,3.43,0,0,0,.8-.27c.28-.08.55-.14.83-.2.08,0,.43-.12,0,0s.12,0,.23,0c.57,0,1.15.08,1.7,0-.56,0-.42-.07-.17,0l.41.09c.31.08.61.19.91.28s-.23-.1-.22-.1a1.47,1.47,0,0,1,.47.23c.28.15.55.32.82.5A3,3,0,0,0,77,59a3.08,3.08,0,0,0-1.08-4.11,11.61,11.61,0,0,0-16,3.43,12.09,12.09,0,0,0-1.42,8.72,11,11,0,0,0,5.08,7,11.72,11.72,0,0,0,9.59,1.18,3,3,0,1,0-1.6-5.78Z"/><path class="cls-2" d="M109.06,162.21A8.31,8.31,0,0,0,125.44,161"/><path class="cls-3" d="M26.41,151.31l-1.59,1.2a2.5,2.5,0,0,1-3.88-1.18c-.67-2-1.54-4.67-2.4-7.78-.45-1.62-.9-3.35-1.31-5.14h0c-.07-.28-.14-.54-.2-.83h0c-.21-.92-.39-1.85-.57-2.77-1.67-8.73-2.07-18,2.09-22.68,3.47-3.86,6.35-4.24,8.59-3.21a2.43,2.43,0,0,1,1.38,2.2c0,4.48.93,9.9,4.31,14h0c-2.84,3.33-5.16,3.8-6.81,3.39A2.51,2.51,0,0,0,22.92,131c0,.53.06,1.07.11,1.61a46.2,46.2,0,0,0,1.23,6.71c0,.12.08.24.11.37.36,1.35.74,2.66,1.14,3.86.63,2,1.26,3.69,1.72,4.87A2.51,2.51,0,0,1,26.41,151.31Z"/><path class="cls-2" d="M29.47,107.22a28.37,28.37,0,0,0,4.38,18.72"/></g></g></svg>