<svg xmlns="http://www.w3.org/2000/svg" viewBox="0 0 818.48 1313.61"><defs><style>.cls-1{fill:#8affc4;}.cls-2{fill:#91b3fb;}.cls-3{fill:#4a78bc;}.cls-4{fill:#c9c9ff;}.cls-5{fill:#9595db;}.cls-6{fill:#fff;}.cls-7{fill:#3f3f3f;}.cls-8{fill:#fed0b9;}.cls-9{fill:#ffb392;}.cls-10{fill:#ccc;}.cls-11,.cls-12{fill:none;stroke:#3f3f3f;}.cls-11{stroke-linecap:round;stroke-linejoin:round;stroke-width:4px;}.cls-12{stroke-miterlimit:10;stroke-width:3px;}.cls-13{fill:#333;}</style></defs><g id="Layer_2" data-name="Layer 2"><rect class="cls-1" x="-0.46" y="365.74" width="819.39" height="582.13"/></g><g id="Layer_8" data-name="Layer 8"><path class="cls-2" d="M520.73,816.56H309.47c5.08-33.77,16.37-57.63,26.56-73.19-19.2-10.65-32-27.92-41.3-44.55-3.59-6.45-6.77-12.52-2.87-21.55,5-11.66,15.14-18.76,25.06-23.06a30.2,30.2,0,0,1,5.08-1.67l6.31-1.49c2.88,5.29,5.46,9.08,5.46,9.08l4.28-5.15s-1.65-2.23-3.54-5.39l6.61-1.56A133.41,133.41,0,0,0,362,682.59c1.21,1.43,2.47,2.84,3.8,4.23a91.62,91.62,0,0,0,9.46,8.7h0A75.14,75.14,0,0,0,405,710.22l-.18.73a100.8,100.8,0,0,1,16.32,21.34c13.81-4.88,30.18-13.83,36.47-29.74a65,65,0,0,0,10.82-8.42,75.83,75.83,0,0,0,15.21-21c10.94,7,21.42,22.4,3.66,55.69a.83.83,0,0,1-.07.13q-.45.85-.93,1.71c10.94,11,29.15,35.27,33.73,78.18h0C520.33,811.37,520.56,813.93,520.73,816.56Z"/><polygon class="cls-3" points="366.92 787.57 372.02 816.56 364.38 816.56 366.92 787.57"/><path class="cls-3" d="M342.14,732.41l-5.62,11.05c-19.15-10.65-32-27.9-41.21-44.5-3.59-6.45-6.77-12.52-2.87-21.55,5-11.66,15.14-18.76,25.06-23.06a30.2,30.2,0,0,1,5.08-1.67l6.31-1.49c1.92,3.53,3.71,6.4,4.69,7.91-8,4.39-15.4,10.86-19.5,20.33-3.9,9-.72,15.1,2.87,21.55C323.81,713.32,330.18,722.34,342.14,732.41Z"/><path class="cls-4" d="M493.54,601.61c-7.39-1.57-18.53-.87-21.94,2a4,4,0,0,1-4.83.32c-9.68-6.48-26.29-12.46-41.86-4.9-12,5.83-17.93,1.82-20.4-1.12a3.89,3.89,0,0,0-4.38-1.19c-12.63,4.78-18.72,4.18-20.71,2-2.15-2.36-9.41-27.81-9-22.16a9.53,9.53,0,0,1-.06,2.09,3.94,3.94,0,0,1-7.32,1.51c-.6-1-1.24-2.15-2-3.55a3.93,3.93,0,0,0-7.26.41,64.34,64.34,0,0,1-11.68,20.08l-.09,0a21,21,0,0,0-28.56,6.36c-.22.32-.43.63-.63,1a36.72,36.72,0,0,0-5.22,16.44c-.07.83-.13,1.64-.15,2.42h0c-.62-.52-14.79-12.83-1.31-33.51-3.74-12-8.37-19.41.84-33.08s22.16-5.7,23.16-3.9c-2.05-6.16-3.84-28.18,9.78-31.18s21.28,5,21.95,7.45c.6-5.89,3.68-27.32,18.52-27.46,9.87-1.07,19,1.12,25.62,12.1,5.48-7.89,19.09-20.32,33.61-12.72,8.08,3.49,14.1,11.53,17.27,20,0,0,19.46-20.85,33.36-3.74S493,549.5,488.22,552c6.33-.79,34.36,5.18,25.92,39.63-4.39,14.36-15.09,16.48-15.09,16.48s-1.2.18-3.07.41l-1.64.19C494.13,606.11,493.86,603.76,493.54,601.61Z"/><path class="cls-5" d="M326.51,570.41c-6.42,9.85-6.57,17.79-4.9,23.47a21.81,21.81,0,0,0-8.92,7.61c-.22.32-.43.63-.63,1a36.72,36.72,0,0,0-5.22,16.44c-.07.83-.13,1.64-.15,2.42h0c-.62-.52-14.79-12.83-1.31-33.51-3.74-12-8.37-19.41.84-33.08,5.21-7.74,11.62-8.54,16.39-7.45C320.58,555.34,323.78,561.65,326.51,570.41Z"/><path class="cls-3" d="M473.13,782.48l14.7,33.16H474.64a1.36,1.36,0,0,1-1.51-1.52Z"/><path class="cls-6" d="M488.72,652.37l-13.27.69c-6.15.32-11.36-5-11.66-12l-.73-17.82c-.28-6.94,4.47-12.83,10.62-13.16l13.61-.71a10,10,0,0,1,4.36.75,12.52,12.52,0,0,1,7.29,11.24l.73,17.82c.29,6.94-4.46,12.83-10.6,13.16Zm6.66-16.27a7.79,7.79,0,0,0-2.77-9.84c-3.18-1.86-7.08-.45-8.72,3.13a7.79,7.79,0,0,0,2.78,9.85C489.83,641.09,493.73,639.69,495.38,636.1Z"/><path class="cls-7" d="M492.36,626a7.43,7.43,0,0,1,3,9.84,7,7,0,0,1-9.52,3.14,7.44,7.44,0,0,1-3-9.85A7,7,0,0,1,492.36,626Z"/><path class="cls-8" d="M337.2,631.62h0c-4.25-3.22-6.16-8.53-7-12.75-2.52-1.18-5.61-.91-8.4,4.17s-.45,13.21,2.85,20.64c.35.79.71,1.58,1.08,2.35h0c-9.36-.94-18.82-6-18.21-22.77h0c0-.78.08-1.59.15-2.42a36.72,36.72,0,0,1,5.22-16.44c.2-.33.41-.64.63-1a21,21,0,0,1,28.56-6.36l.09,0A64.34,64.34,0,0,0,353.83,577a3.93,3.93,0,0,1,7.26-.41c.72,1.4,1.36,2.57,2,3.55a3.94,3.94,0,0,0,7.32-1.51,9.53,9.53,0,0,0,.06-2.09c-.42-5.65,6.84,19.8,9,22.16,2,2.21,8.08,2.81,20.71-2a3.89,3.89,0,0,1,4.38,1.19c2.47,2.94,8.39,6.95,20.4,1.12,15.57-7.56,32.18-1.58,41.86,4.9a4,4,0,0,0,4.83-.32c3.41-2.92,14.55-3.62,21.94-2,.32,2.15.59,4.5.8,7.08,0,.37.05.73.09,1.1l-.14.34a11.82,11.82,0,0,0-4.76-.75l-14.87.71a12.44,12.44,0,0,0-11.6,13.16l.8,17.82a12.34,12.34,0,0,0,12.73,12l14.5-.69a96.1,96.1,0,0,1-7.17,20.25c-.08.17-.17.34-.26.51a75.83,75.83,0,0,1-15.21,21,65,65,0,0,1-10.82,8.42c-10.52,6.52-23.25,10.11-38.06,9.59a73.81,73.81,0,0,1-44.36-16.61h0a91.62,91.62,0,0,1-9.46-8.7c-1.33-1.39-2.59-2.8-3.8-4.23A133.41,133.41,0,0,1,341.11,648c-.57-1.36-1.06-2.61-1.49-3.73a22.21,22.21,0,0,1-6.93,2.09l-.18-.31a42.31,42.31,0,0,1-2.49-5.72,16.94,16.94,0,0,1-1-5.43S333.37,639,337.2,631.62Zm84.74,24.07a12.44,12.44,0,0,0,11.6-13.16l-.8-17.82a12.34,12.34,0,0,0-12.73-12l-14.88.72a12.43,12.43,0,0,0-11.59,13.15l.8,17.83a12.33,12.33,0,0,0,12.73,12Zm-39.46,6c-.12-2.82-3.7-6.42-3.7-6.42L377.21,661S379.08,667,382.48,661.7Z"/><path class="cls-9" d="M487,652.55c-1,2.77-2.2,5.47-3.48,8.09-.08.17-.17.34-.26.51a75.83,75.83,0,0,1-15.21,21,65,65,0,0,1-10.82,8.42c-10.52,6.52-23.25,10.11-38.06,9.59a73.81,73.81,0,0,1-44.36-16.61h0a91.62,91.62,0,0,1-9.46-8.7c-1.33-1.39-2.59-2.8-3.8-4.23a133.41,133.41,0,0,1-20.83-34.56c-.57-1.36-1.06-2.61-1.49-3.73a21.57,21.57,0,0,1-3.78,1.44c-3.43,4.36-6.85,1.17-6.85,1.17a16.94,16.94,0,0,0,1,5.43,42.31,42.31,0,0,0,2.49,5.72l.18.31a22.21,22.21,0,0,0,6.93-2.09c.43,1.12.92,2.37,1.49,3.73a133.41,133.41,0,0,0,20.83,34.56c1.21,1.43,2.47,2.84,3.8,4.23a91.62,91.62,0,0,0,9.46,8.7h0a73.81,73.81,0,0,0,44.36,16.61c14.81.52,27.54-3.07,38.06-9.59A65,65,0,0,0,468,694.13a75.83,75.83,0,0,0,15.21-21c.09-.17.18-.34.26-.51a96.1,96.1,0,0,0,7.17-20.25Z"/><path class="cls-3" d="M334.5,745.75s-7.49,63.54-6.62,69.89H310.59S321,752.75,334.5,745.75Z"/><path class="cls-3" d="M462.74,816.56H376.92C399.18,805.46,436.16,793.3,462.74,816.56Z"/><path class="cls-2" d="M457.63,702.55c-6.29,15.91-22.66,24.86-36.47,29.74A100.8,100.8,0,0,0,404.84,711l.18-.73a74.61,74.61,0,0,0,14.55,1.92C434.38,712.66,447.11,709.07,457.63,702.55Z"/><path class="cls-3" d="M457.82,701.69c-5.55,16.18-21.5,25.87-35.07,31.38-.63-1-1.27-2-1.91-2.89,11-4.87,22.77-12.46,29.16-23.93A61.69,61.69,0,0,0,457.82,701.69Z"/><path class="cls-3" d="M417.75,712.38a100.28,100.28,0,0,1,12.58,16.75c-2.92,1.36-5.85,2.52-8.66,3.52a100.8,100.8,0,0,0-16.32-21.34l.18-.73A73.81,73.81,0,0,0,417.75,712.38Z"/><path class="cls-6" d="M433.54,642.53a12.44,12.44,0,0,1-11.6,13.16l-14.87.71a12.33,12.33,0,0,1-12.73-12l-.8-17.83a12.43,12.43,0,0,1,11.59-13.15l14.88-.72a12.34,12.34,0,0,1,12.73,12Zm-4.74-1.72a7.43,7.43,0,0,0-3-9.84,7,7,0,0,0-9.52,3.13,7.42,7.42,0,0,0,3,9.85A7,7,0,0,0,428.8,640.81Z"/><path class="cls-10" d="M413.39,655.65a12.33,12.33,0,0,1-12.73-12l-.8-17.83A12.53,12.53,0,0,1,409.23,613l-2.57.12a12.43,12.43,0,0,0-11.59,13.15l.8,17.83a12.33,12.33,0,0,0,12.73,12l14.87-.71a11.34,11.34,0,0,0,2.19-.32Z"/><path class="cls-10" d="M482.37,653.84a12.33,12.33,0,0,1-12.73-12l-.8-17.83a12.53,12.53,0,0,1,9.37-12.83l-2.57.12a12.43,12.43,0,0,0-11.59,13.15l.8,17.83a12.33,12.33,0,0,0,12.73,12l14.87-.71a11.34,11.34,0,0,0,2.19-.32Z"/><path class="cls-7" d="M425.77,631a7.43,7.43,0,0,1,3,9.84,7,7,0,0,1-9.52,3.14,7.42,7.42,0,0,1-3-9.85A7,7,0,0,1,425.77,631Z"/><path class="cls-6" d="M338,655l-4.28,5.15s-2.58-3.79-5.46-9.08c-.74-1.35-1.5-2.8-2.24-4.31h0c-.12-.23-.24-.45-.35-.7h0c-.37-.77-.73-1.56-1.08-2.35-3.3-7.43-5.59-15.64-2.85-20.64s5.88-5.35,8.4-4.17c.86,4.22,2.77,9.53,7,12.75h0c-3.83,7.4-8.21,3.31-8.21,3.31a16.94,16.94,0,0,0,1,5.43,42.31,42.31,0,0,0,2.49,5.72l.18.31c.6,1.13,1.21,2.21,1.81,3.2C336.39,652.75,338,655,338,655Z"/><path class="cls-11" d="M354.08,613.61c-1-8.06-6.8-13.33-11.93-16.49l-.09,0a21,21,0,0,0-28.56,6.36c-.22.32-.43.63-.63,1a36.72,36.72,0,0,0-5.22,16.44c-.07.83-.13,1.64-.15,2.42h0c-.61,16.78,8.85,21.83,18.21,22.77"/><path class="cls-11" d="M342.14,597.13h0A64.34,64.34,0,0,0,353.83,577a3.93,3.93,0,0,1,7.26-.41c.72,1.4,1.36,2.57,2,3.55a3.94,3.94,0,0,0,7.32-1.51,9.53,9.53,0,0,0,.06-2.09c-.42-5.65,6.84,19.8,9,22.16,2,2.21,8.08,2.81,20.71-2a3.89,3.89,0,0,1,4.38,1.19c2.47,2.94,8.39,6.95,20.4,1.12,15.57-7.56,32.18-1.58,41.86,4.9a4,4,0,0,0,4.83-.32c3.41-2.92,14.55-3.62,21.94-2"/><path class="cls-11" d="M307.5,623.26c-.62-.52-14.79-12.83-1.31-33.51-3.74-12-8.37-19.41.84-33.08s22.16-5.7,23.16-3.9c-2.05-6.16-3.84-28.18,9.78-31.18s21.28,5,21.95,7.45c.6-5.89,3.68-27.32,18.52-27.46,9.87-1.07,19,1.12,25.62,12.1,5.48-7.89,19.09-20.32,33.61-12.72,8.08,3.49,14.1,11.53,17.27,20,0,0,19.46-20.85,33.36-3.74S493,549.5,488.22,552c6.33-.79,34.36,5.18,25.92,39.63-4.39,14.36-15.09,16.48-15.09,16.48s-1.2.18-3.07.41l-1.64.19"/><path class="cls-11" d="M445.26,548.19s5.68-2.24,8.82-.64c4.66,2.38,3.34,11.19-2.7,10"/><path class="cls-11" d="M391.87,543.48s-6.81-2.8-10.59-.93c-5.59,2.77-4,13.38,3.22,12"/><path class="cls-11" d="M337.2,631.62a14.29,14.29,0,0,0,1.28.86"/><path class="cls-11" d="M329.49,612.43a33.68,33.68,0,0,0,.69,6.43c.86,4.22,2.77,9.53,7,12.75"/><path class="cls-11" d="M337.2,631.61h0c-3.83,7.4-8.21,3.31-8.21,3.31a16.94,16.94,0,0,0,1,5.43,42.31,42.31,0,0,0,2.49,5.72l.18.31c.6,1.13,1.21,2.21,1.81,3.2C336.39,652.75,338,655,338,655l-4.28,5.15s-2.58-3.79-5.46-9.08c-.74-1.35-1.5-2.8-2.24-4.31h0c-.12-.23-.24-.45-.35-.7h0c-.37-.77-.73-1.56-1.08-2.35-3.3-7.43-5.59-15.64-2.85-20.64s5.88-5.35,8.4-4.17"/><path class="cls-11" d="M345.94,639.77a24.6,24.6,0,0,1-6.32,4.53,22.21,22.21,0,0,1-6.93,2.09"/><path class="cls-11" d="M421.94,655.69l-14.87.71a12.33,12.33,0,0,1-12.73-12l-.8-17.83a12.43,12.43,0,0,1,11.59-13.15l14.88-.72a12.34,12.34,0,0,1,12.73,12l.8,17.82A12.44,12.44,0,0,1,421.94,655.69Z"/><path class="cls-11" d="M492.46,610.13a12.5,12.5,0,0,1,7.5,11.24l.76,17.82c.29,6.94-4.6,12.83-10.91,13.16l-.36,0-13.65.69c-6.33.32-11.68-5-12-12l-.76-17.82c-.29-6.94,4.6-12.83,10.92-13.16l14-.71A10.53,10.53,0,0,1,492.46,610.13Z"/><path class="cls-11" d="M443.66,661.05s4.16-3.73,10-.48"/><path class="cls-12" d="M378.78,655.28,377.21,661s1.87,6,5.27.69C382.36,658.88,378.78,655.28,378.78,655.28Z"/><path class="cls-11" d="M339.62,644.3c.43,1.12.92,2.37,1.49,3.73a133.41,133.41,0,0,0,20.83,34.56c1.21,1.43,2.47,2.84,3.8,4.23a91.62,91.62,0,0,0,9.46,8.7h0a73.81,73.81,0,0,0,44.36,16.61c14.81.52,27.54-3.07,38.06-9.59a65,65,0,0,0,10.82-8.42,75.83,75.83,0,0,0,15.21-21c.09-.17.18-.34.26-.51a96.1,96.1,0,0,0,7.17-20.25h0"/><path class="cls-11" d="M494.43,609.79c0-.37-.06-.73-.09-1.1-.21-2.58-.48-4.93-.8-7.08a71.11,71.11,0,0,0-2.9-12.28"/><path class="cls-11" d="M309.46,816.56c5.08-33.77,16.37-57.63,26.56-73.19,10.61-16.2,20-23.4,20-23.4"/><path class="cls-11" d="M366.19,770.75c.47,4.71,2.1,22-1.82,45.81"/><path class="cls-11" d="M472.77,779.09s7.23,8.71,13.13,37.47"/><path class="cls-11" d="M520.05,808.85s0,0,0,0"/><path class="cls-11" d="M478.7,743c2.95-4.37,5.47-8.49,7.62-12.38q.48-.85.93-1.71a.83.83,0,0,0,.07-.13c17.76-33.29,7.28-48.72-3.66-55.69"/><path class="cls-11" d="M404.84,711a100.8,100.8,0,0,1,16.32,21.34"/><path class="cls-11" d="M365.74,686.82c-20.38-2.31-25.19.47-25.19.47"/><path class="cls-11" d="M421.16,732.29c13.81-4.88,30.18-13.83,36.47-29.74"/><polyline class="cls-11" points="520.73 816.56 485.91 816.56 462.74 816.56 376.92 816.56 369.5 816.56 364.38 816.56 309.47 816.56"/><path class="cls-11" d="M486.32,730.66c10.94,11,29.15,35.27,33.73,78.18h0c.27,2.51.5,5.07.67,7.7"/><line class="cls-11" x1="341.11" y1="648.03" x2="334.5" y2="649.59"/><path class="cls-11" d="M336,743.37c-19.2-10.65-32-27.92-41.3-44.55-3.59-6.45-6.77-12.52-2.87-21.55,5-11.66,15.14-18.76,25.06-23.06a30.2,30.2,0,0,1,5.08-1.67l6.31-1.49"/><path class="cls-11" d="M350.07,681a52.21,52.21,0,0,1,11.87,1.64"/><path class="cls-6" d="M499.67,574a13.3,13.3,0,0,1,1.76,1.76l.07.09c.06.08.12.15.17.23s.25.35.37.53a10.88,10.88,0,0,1,.64,1.1c.09.17.18.34.26.51s.1.22.14.33c-.06-.15,0-.06,0,0,.15.4.29.81.41,1.22a11.71,11.71,0,0,1,.28,1.17l.06.35c0,.13,0,.19,0,0,0,.23.05.47.07.71a1.5,1.5,0,0,0,3,0,14.59,14.59,0,0,0-5.14-10.18,1.54,1.54,0,0,0-2.12,0,1.51,1.51,0,0,0,0,2.12Z"/><path class="cls-6" d="M437.19,515.37a14,14,0,0,1,2.19,1.34c-.16-.12-.1-.08,0,0l.23.18.48.43q.47.43.9.93c.14.16.28.32.41.49s-.09-.13,0,0l.17.24c.25.35.48.71.7,1.08s.4.76.58,1.15-.06-.16,0,0,.07.18.11.27.16.44.23.66a1.5,1.5,0,1,0,2.89-.8,14.61,14.61,0,0,0-7.43-8.62,1.5,1.5,0,0,0-1.51,2.59Z"/><path class="cls-6" d="M467.66,525.05c.25-.27.5-.53.77-.78l.45-.38.21-.17c-.12.09-.08.06,0,0a14.87,14.87,0,0,1,2.06-1.25l.51-.25.26-.11c.15-.07-.14,0,.11,0s.77-.29,1.16-.42a17.88,17.88,0,0,1,2.51-.57,1.51,1.51,0,0,0,1-1.85,1.55,1.55,0,0,0-1.85-1,16.08,16.08,0,0,0-9.38,4.75,1.5,1.5,0,1,0,2.12,2.12Z"/><path class="cls-13" d="M404.79,779.42a.41.41,0,0,1,.14.39.48.48,0,0,1-.29.34,8.42,8.42,0,0,1-3.82.64.62.62,0,0,1-.44-.23.5.5,0,0,1-.09-.39,36.33,36.33,0,0,0,.36-3.88c.05-1.15.05-2.52,0-4.12,0-.62-.09-1.62-.18-2.91-.16-2.26-.39-4.62-.66-7a.65.65,0,0,1,.21-.35.71.71,0,0,1,.4-.21c.31,0,.53.17.64.51.16,1.59.24,2.39.42,4,.23,2.46.39,4.33.45,5.58,0,.3,0,.45,0,.75v.75a43.17,43.17,0,0,1-.18,6.52h0a2.3,2.3,0,0,0,.42,0h.14a.13.13,0,0,0,.1,0,5.21,5.21,0,0,0,1.4-.39.74.74,0,0,1,1,.16Z"/><path class="cls-13" d="M409.78,760.85a.42.42,0,0,1,.36.21.59.59,0,0,1,.1.42,26.83,26.83,0,0,0-.06,4l.05.8c0,.33,0,.5.08.83.09.9.26,2.28.57,4.16.08.57.13.85.22,1.41.2,1.49.41,2.74.48,3.64,0,.38,0,.7,0,.88s0,.28,0,.46l.05.45v.24l.05.45V779a2.49,2.49,0,0,0,0,.37l0,.09c.3.21.33.45.05.72a.51.51,0,0,1-.44.2.78.78,0,0,1-.5-.12c-.27-.17-.41-.51-.44-1.07,0-.39,0-.59,0-1,0-.56,0-1.05-.08-1.42v-.32l0-.35c0-.66-.16-1.46-.29-2.36s-.21-1.39-.34-2.31c-.15-1.09-.22-1.63-.36-2.71,0-.3,0-.45-.07-.75l-.1-.74a29,29,0,0,1,0-6,.48.48,0,0,1,.25-.34A.78.78,0,0,1,409.78,760.85Z"/><path class="cls-13" d="M426.93,778.39c.07.31-.13.53-.57.63a.74.74,0,0,1-.49-.12.81.81,0,0,1-.31-.3c-.15-.55-.29-1.24-.49-2.05l-.25-1c-.09-.39-.14-.59-.23-1-.16-.78-.24-1.17-.39-1.95-.23-1.18-.56-3-1-5.38-.32-1.87-.5-3.23-.61-4-.08.31-.13.47-.21.79s-.12.49-.21.81c-.37,1.5-.56,2.25-1,3.74a2.88,2.88,0,0,1-.22.27.61.61,0,0,1-.33.18.58.58,0,0,1-.44,0,.55.55,0,0,1-.27-.23l-.5-.88L419,767l-1.18-2c-.28-.5-.42-.74-.69-1.24v0c.08.33.11.5.19.84.32,1.43.49,2.14.82,3.56s.56,2.53.8,3.58.49,2.18.83,3.56c.16.72.24,1.07.41,1.79s.25,1.07.41,1.78c.06.32-.16.55-.59.62s-.72-.1-.78-.45c-.18-.81-.27-1.21-.44-2s-.29-1.21-.47-2c-.35-1.58-.87-4-1.55-7.15-.64-2.77-.94-4.15-1.52-6.92,0-.34.12-.55.51-.59l.16,0c.06,0,.09,0,.12,0a.64.64,0,0,1,.65.22c.15.27.34.63.58,1l.2.3.2.3c.14.25.21.37.34.63l.35.6.65,1.16c.49.88,1,1.68,1.39,2.35l.1-.39c.09-.42.25-1,.46-1.66l.2-.84c.09-.32.13-.49.21-.81v0c.37-1.33.55-2,.89-3.32a.58.58,0,0,1,.57-.47c.36,0,.59.15.64.44.11.77.16,1.15.27,1.91l.25,2c.42,2.7.84,5.13,1.28,7.31C425.81,773.81,426.35,776.22,426.93,778.39Z"/><path class="cls-13" d="M439.25,770.9a7.43,7.43,0,0,1-.92,3.86,4,4,0,0,1-1.79,1.68,10,10,0,0,1-2.23.55c0,.23-.25.35-.53.43a.6.6,0,0,1-.48-.07A1,1,0,0,1,433,777c-.26-.82-.38-1.23-.63-2s-.34-1.18-.56-2c-.64-2.24-1-3.36-1.57-5.61l-.37-1.3c-.39-1.44-.59-2.16-1-3.61s-.57-2.15-.93-3.59a.36.36,0,0,1,.11-.35l0-.1a.45.45,0,0,1,.2-.37.68.68,0,0,1,.43-.13,8.29,8.29,0,0,1,2.34.18,3.55,3.55,0,0,1,1.63.85,2.09,2.09,0,0,1,.65,1.7,3.36,3.36,0,0,1-1,2.06,6.78,6.78,0,0,1,3.26,1.36,9,9,0,0,1,2.67,3.21,8.43,8.43,0,0,1,.64,1.56A7.88,7.88,0,0,1,439.25,770.9ZM430.31,763l.11-.1a7.81,7.81,0,0,0,.76-.59,2.51,2.51,0,0,0,.49-.58l.2-.23s0,0,0-.1.11-.33.19-.55v-.44l-.08-.32a.14.14,0,0,1,0-.09s-.05-.08-.06-.1l-.11-.06a.6.6,0,0,0-.25-.25l-.05-.07s0,0-.07,0h-.06s0,0,0-.05l-.15-.08s-.07,0-.14-.05a.12.12,0,0,1-.05-.08s-.06,0-.1,0l-.13-.05v0l-.36-.1,0,0a.09.09,0,0,1-.1,0s0,0-.06,0h0l0,0h-.06c-.09,0-.12,0-.16,0s0,0-.12,0l-.29,0a1,1,0,0,1-.25,0h-.1c0,.21.12.52.24.91a9.17,9.17,0,0,1,.24.91c.22.78.33,1.17.56,1.94Zm0,.6a.46.46,0,0,1,0-.6,5,5,0,0,1,.22.78A.45.45,0,0,1,430.29,763.57Zm-.41-4.59,0,0,.06,0s0,0,0,0Zm7.85,10.51c-.05-.17-.07-.26-.12-.44s-.17-.46-.31-.84l0-.05,0,0-.05-.18-.05,0,0-.08-.18-.4-.23-.34-.24-.36c-.22-.31-.42-.57-.62-.8v-.05s-.07,0-.13-.09l0-.07,0,0a.12.12,0,0,1-.06-.1l-.36-.34v0l-.17-.13h0l-.42-.35h-.07l-.13-.09-.84-.48-.15-.05-.14,0-.15-.06-.46-.15a1.72,1.72,0,0,0-.51-.09l0,0h-.1a.31.31,0,0,1-.17,0l0,0,0,0a3.6,3.6,0,0,0-.89.06.69.69,0,0,1-.4,0c.29,1,.43,1.57.73,2.62.4,1.41.6,2.11,1,3.52.61,2.15,1.2,4.17,1.81,6.08l.23-.05h.24l.57-.12.1,0,.27,0a.2.2,0,0,0,.09-.05l.13,0,.13,0a.8.8,0,0,0,.25-.11.25.25,0,0,1,.12-.07l.1,0a.13.13,0,0,1,.09-.05l.26-.21h0l.16-.19.11-.11c.17-.28.32-.59.46-.86a1.4,1.4,0,0,0,.16-.42c0-.11.06-.16.09-.27l0-.09v-.08s0-.06,0-.12l0-.06,0-.06c0-.24.06-.36.11-.6a6.27,6.27,0,0,0,0-1.74.22.22,0,0,1,0-.14l0-.08,0-.32Z"/><path class="cls-13" d="M449.88,767.43a2.19,2.19,0,0,1,.14.47,7.31,7.31,0,0,1,.14,4.22,5.43,5.43,0,0,1-1.07,1.79h0a2.27,2.27,0,0,1-1.18.84,1.79,1.79,0,0,1-1.21-.17v0A1.8,1.8,0,0,1,446,774l-.27-.35-.24-.39v0l-.06-.06c-.22-.45-.34-.67-.56-1.12l-.53-1.06a37.54,37.54,0,0,1-1.41-3.62,38.61,38.61,0,0,1-1.27-5.17,35.32,35.32,0,0,1-.53-4.64v-1a3.19,3.19,0,0,1,.29-1v0a1.51,1.51,0,0,1,.93-.8.7.7,0,0,1,.79.19v0c.09.09.2.23.36.41l.17.23.21.25a34.26,34.26,0,0,1,4.51,7.82c.31.65.57,1.38.87,2.06.11.26.3.7.51,1.26Zm-.76,3a9.14,9.14,0,0,0-.66-3.11l-.45-1.22-.18-.4c-.46-1.19-.93-2.21-1.34-3.08a27.16,27.16,0,0,0-4.05-6.59l0,.07s0,.06,0,.09c0,.18-.05.26-.08.44l0,.18,0,.1a2.68,2.68,0,0,0,0,.55v.3l0,.33c0,.14,0,.21,0,.35,0,.39.07.88.15,1.44s.18,1.2.31,2.06c.08.5.23,1.19.41,2.06s.51,1.93.88,3a36.13,36.13,0,0,0,2.14,5c.1.19.15.28.24.47v0l.26.43.22.33.06,0,0,.08a.1.1,0,0,1,.06.07s0,0,.09,0l.16.16.05,0,.16,0h.11l.07-.1s.05,0,.08-.08l.13-.14s0,0,.05,0l.11-.11.07-.11.23-.34.14-.2.09-.16v0l.18-.38c0-.09.06-.24.11-.39s.05-.27.08-.44l.09-.05.09-.06c.09-.05.11-.08.12-.06l-.27.05v-.17l0-.15a.17.17,0,0,1,0-.11v-.08l0-.23ZM442.41,756v0Z"/></g></svg>