<svg xmlns="http://www.w3.org/2000/svg" viewBox="0 0 299.88 324.16"><defs><style>.cls-1,.cls-3{fill:#fff;}.cls-2,.cls-8{fill:none;}.cls-2,.cls-3,.cls-4{stroke:#000;stroke-width:2px;}.cls-2,.cls-4{stroke-linecap:round;stroke-linejoin:round;}.cls-3,.cls-7,.cls-8{stroke-miterlimit:10;}.cls-5{opacity:0.25;}.cls-6,.cls-7{fill:#221f1f;}.cls-7,.cls-8{stroke:#221f1f;}</style></defs><g id="Layer_2" data-name="Layer 2"><g id="Layer_1-2" data-name="Layer 1"><rect class="cls-1" width="266.35" height="266.35" rx="133.18"/><path class="cls-1" d="M235.61,255.58a25.22,25.22,0,0,1-5.13,5.72,43.48,43.48,0,0,1-8.21,5.25c-2.59,1.33-5.29,2.5-7.94,3.63l-.15-.05c.49-1.68.95-3.38,1.36-5.08,1-4.1,1.74-8.25,2.32-12.41.84-6,1.31-12.12,1.6-18.24.2-4.06.31-8.13.39-12.2,7.09.68,14.76,6.63,17.46,12.92A22.34,22.34,0,0,1,235.61,255.58Z"/><path class="cls-1" d="M127.62,252.79c-1.91,2.24-5.26,2.35-8.2,2.28l-20.93-.49c-1.93-.05-4.18-.24-5.3-1.83a6.36,6.36,0,0,1-.71-4q.34-8.83.7-17.7A13.56,13.56,0,0,1,95,226.88c2.3-3.44,6.37-5.37,10.45-6s8.25-.13,12.35.36c3.28.41,6.88,1,9,3.5,2,2.33,2.11,5.63,2.16,8.68q.09,6.29.2,12.57C129.2,248.36,129.16,251,127.62,252.79Zm67.81,3.54c-1.72,1.63-4.29,1.88-6.66,2l-20.36,1.29c-2.23.15-4.87.12-6.2-1.69-1-1.33-.86-3.16-.69-4.81l2.76-26.52-.72-2.42a59.53,59.53,0,0,1,22.9-2.37,10.38,10.38,0,0,1,5,1.44c2.55,1.77,3.16,5.23,3.57,8.31.67,5.24,1.36,10.46,2,15.69C197.5,250.44,197.75,254.12,195.43,256.33Zm22.43-3.69c-.58,4.16-1.33,8.31-2.32,12.41-.41,1.7-.87,3.4-1.36,5.08-4.27,14.5-14.8,25-26.56,34.35-15.69,12.5-33.93,19.07-54,18.66-19.55-.38-36.25-7.29-52.16-18.66C67,294.1,52,270.43,54.59,251.55c-10-.9-21.79-5.83-21.62-24h0a40.91,40.91,0,0,1,14.84-17.69c9.73-6.34,21.64-8.21,33.19-9.55a531.47,531.47,0,0,1,102.84-1.95c8.18.64,16.46,1.49,24.15,4.38a38.26,38.26,0,0,1,12.32,7.39c-.15,4-.43,10.26-.46,12.09-.08,4.07-.19,8.14-.39,12.2Z"/><path class="cls-1" d="M180,234.46a5.65,5.65,0,1,1-5.83,5.46A5.66,5.66,0,0,1,180,234.46Z"/><path class="cls-2" d="M219.84,222.19c7.1.68,14.77,6.63,17.46,12.93a22.29,22.29,0,0,1-1.7,20.45c-4.72,7.36-13.24,11.18-21.28,14.61"/><path class="cls-3" d="M230.84,259.62c-.12.55-.23,1.12-.36,1.68-.07.36-.15.72-.23,1.08h0c-.06.3-.13.56-.21.83h0c-.43,1.79-.9,3.51-1.36,5.13-.89,3.1-1.79,5.8-2.47,7.75a2.5,2.5,0,0,1-3.89,1.16l-1.58-1.22a2.5,2.5,0,0,1-.79-2.9c.47-1.18,1.11-2.88,1.76-4.86.19-.56.37-1.14.55-1.74s.42-1.38.62-2.11l.12-.37a46.15,46.15,0,0,0,1.29-6.69c.06-.55.1-1.09.13-1.62a2.52,2.52,0,0,0-3.1-2.55,4.78,4.78,0,0,1-3.47-.57c.84-6,1.31-12.12,1.6-18.24a2.33,2.33,0,0,1,.93-.77c2.25-1,5.13-.6,8.56,3.29C233.07,241.6,232.58,250.9,230.84,259.62Z"/><path class="cls-2" d="M220.31,210.11c-.15,4-.43,10.26-.46,12.09-.08,4.07-.19,8.14-.39,12.2-.29,6.12-.76,12.2-1.6,18.24-.58,4.16-1.33,8.31-2.32,12.41-.41,1.7-.87,3.4-1.36,5.08-4.27,14.5-14.8,25-26.56,34.35-15.69,12.5-33.93,19.07-54,18.66-19.55-.38-36.25-7.29-52.16-18.66C67,294.1,52,270.43,54.59,251.55"/><path class="cls-2" d="M33,227.53c3.17-7.15-.92-19.77,5.64-24,9.74-6.34,30.84-1.86,42.38-3.21a532.26,532.26,0,0,1,102.84-1.95c8.19.65,16.46,1.5,24.15,4.38a38.37,38.37,0,0,1,12.33,7.39"/><path class="cls-2" d="M99,233.13q-.34,8.85-.7,17.7a6.29,6.29,0,0,0,.72,4c1.11,1.58,3.36,1.78,5.3,1.82l20.92.5c2.94.07,6.3,0,8.2-2.28C134.94,253,135,250.4,135,248c-.07-4.2-.14-8.38-.2-12.58,0-3-.18-6.35-2.16-8.67-2.13-2.53-5.74-3.09-9-3.5-4.11-.5-8.27-1-12.36-.36s-8.15,2.56-10.45,6A13.46,13.46,0,0,0,99,233.13Z"/><path class="cls-2" d="M158.83,229.35l-2.76,26.52c-.17,1.65-.3,3.48.69,4.81,1.33,1.81,4,1.84,6.2,1.69l20.36-1.3c2.36-.15,4.94-.39,6.66-2,2.31-2.21,2.07-5.89,1.66-9.05-.68-5.23-1.37-10.45-2-15.69-.41-3.08-1-6.54-3.57-8.31a10.38,10.38,0,0,0-5-1.44,59.53,59.53,0,0,0-22.9,2.37l-.38.11"/><path class="cls-2" d="M196.72,228.61l22.2-4.89"/><path class="cls-2" d="M89.41,230.87,60.76,219.39"/><path class="cls-2" d="M33,227.53h0c-.17,18.17,11.6,23.1,21.62,24a48.31,48.31,0,0,0,13.8-.84"/><path class="cls-4" d="M126.61,242.83A171.26,171.26,0,0,0,109,241.9a9.26,9.26,0,0,0,17.64.93Z"/><path class="cls-4" d="M183.37,245.17a171.4,171.4,0,0,0-17.64-.93,9.26,9.26,0,0,0,17.64.93Z"/><path class="cls-5" d="M161.32,256.65s14.13-1.09,24,.8,6.81-8.52,2.68-9.9-21-2.57-24.22-1.45S153.54,255.08,161.32,256.65Z"/><path class="cls-5" d="M103.2,254.51s14.13-1.1,24,.8,6.81-8.53,2.68-9.9-21.06-2.57-24.23-1.45S95.42,252.94,103.2,254.51Z"/><path class="cls-2" d="M129.69,288.47a8.31,8.31,0,0,0,16.38-1.22"/><path class="cls-3" d="M46.7,267.7l-1.58,1.2a2.5,2.5,0,0,1-3.88-1.19c-.67-1.95-1.54-4.66-2.4-7.77-.45-1.62-.9-3.35-1.31-5.14h0c-.07-.28-.14-.54-.2-.84h0c-.2-.91-.39-1.84-.56-2.77-1.67-8.72-2.07-18,2.09-22.67,3.47-3.86,6.35-4.24,8.59-3.21a2.4,2.4,0,0,1,1.37,2.19c0,4.49.94,9.91,4.32,14h0c-2.85,3.33-5.17,3.8-6.81,3.39a2.5,2.5,0,0,0-3.11,2.52c0,.53.05,1.07.11,1.61a45.12,45.12,0,0,0,1.23,6.71c0,.12.07.24.11.37.36,1.35.74,2.65,1.13,3.86.64,2,1.27,3.69,1.73,4.87A2.5,2.5,0,0,1,46.7,267.7Z"/><path class="cls-2" d="M49.76,223.61a28.39,28.39,0,0,0,4.39,18.71"/><polygon class="cls-1" points="288.01 109 291.19 99.47 299.88 94.63 290.69 92.45 287.68 82.08 284 92.28 275.3 94.29 284 98.97 288.01 109"/><polygon class="cls-1" points="294.01 125.19 295.12 121.84 298.18 120.14 294.95 119.37 293.89 115.72 292.59 119.31 289.54 120.02 292.59 121.67 294.01 125.19"/><polygon class="cls-1" points="277.51 118.99 278.94 114.72 282.84 112.54 278.72 111.56 277.37 106.91 275.71 111.49 271.81 112.39 275.71 114.49 277.51 118.99"/></g><g id="Layer_4" data-name="Layer 4"><path class="cls-6" d="M213.25,169.49c12.86-1.61,34.09,12.94,24.76,35.75s-43.3,18.23-42.62-1.39c-6.33,28.11-35.66,15.59-35.14.59-20.43,31.11-35.86,3.75-38.9-3-3.47,14-30.93,7.95-30.93,7.95S39.32,189,34.16,226.33c-.18,1.27-.31,2.5-.37,3.66l-1-.05c-13.35-10-8.39-27.34-2.71-31.76-14.69-31.38,18.75-42.7,25.1-32.11C47.41,128.33,83.4,136.66,87.5,147.2c2.16-36.32,40.83-27,45.09-12.7,17.28-26,49.44-9.07,50.36,7.42C212.81,113.43,236.57,158.11,213.25,169.49Z"/><path class="cls-1" d="M34,227.21a22.69,22.69,0,0,1-5.7-13.42,23.41,23.41,0,0,1,.75-7.73,17.37,17.37,0,0,1,3.18-6.82c1.77-2,1.12-3.77.46-6.11A49,49,0,0,1,31,184.74c-.5-5.08.39-10.28,3.93-14.16A13.82,13.82,0,0,1,48,166.21a12.78,12.78,0,0,1,3.74,1.39A9.57,9.57,0,0,0,54.87,169a3.42,3.42,0,0,0,4.19-3.36c.08-2-.72-3.94-.94-5.89a26.28,26.28,0,0,1,.1-7.77c.88-4.61,3.52-8.57,8.21-9.84,5.22-1.41,10.47.72,14.54,4a34.94,34.94,0,0,1,3.36,3.08,18.87,18.87,0,0,0,2.25,2.31,2.9,2.9,0,0,0,4.7-2.63,1.55,1.55,0,0,0-1.5-1.5c-.73,0-1.61.7-1.5,1.5,0,.2.31.65-.08.1a12.64,12.64,0,0,0-.93-1,32.4,32.4,0,0,0-2.81-2.81,28,28,0,0,0-6.36-4.43,17.54,17.54,0,0,0-13.32-1.21C54.66,143,53.85,155,55.84,163.93c.1.42.5,1.82.15,2.13-.66.57-2.51-.93-3.09-1.25a16.6,16.6,0,0,0-7.6-1.89,16.85,16.85,0,0,0-12.54,5.54,19.89,19.89,0,0,0-4.94,14.11A40.16,40.16,0,0,0,29,191c.29,1.23.59,2.46,1,3.66a6,6,0,0,1,.46,1.66c0,.61-.49.85-.84,1.3a22.13,22.13,0,0,0-3.54,7.83,25.85,25.85,0,0,0,5.78,23.86c1.29,1.44,3.41-.69,2.12-2.12Z"/><path class="cls-1" d="M90.69,149.75c.15-4.94.9-10,3.2-14.45a20.54,20.54,0,0,1,9.12-9c8.59-4.27,18.85-1.16,24.28,6.61a14.6,14.6,0,0,1,1.92,3.48,8.45,8.45,0,0,0,1.61,3.36,2.45,2.45,0,0,0,3.16.33,3.86,3.86,0,0,0,1.37-3.38c0-1.93-3-1.93-3,0,0,0-.07.79,0,.81l.64.12a2.6,2.6,0,0,1-.23-.4c-.12-.51-.43-1.12-.61-1.64a16,16,0,0,0-1.65-3.34,24,24,0,0,0-4.8-5.53,22.57,22.57,0,0,0-13-5.38c-8.72-.59-17.26,4.61-21.3,12.25-2.62,5-3.53,10.6-3.7,16.15-.06,1.93,2.94,1.93,3,0Z"/><path class="cls-1" d="M135,138.53a24.23,24.23,0,0,1,10.4-11.46,22.59,22.59,0,0,1,16.21-1.93,25.31,25.31,0,0,1,14.07,9.66,26.85,26.85,0,0,1,4.12,7.79c.36,1.18.67,2.25,1.87,2.84a3.22,3.22,0,0,0,3.6-.65c4.54-3.75,9.42-7.34,15.5-7.86a14.86,14.86,0,0,1,14.07,6.6c3.1,4.73,4.65,11.23,2.47,16.64a10.56,10.56,0,0,1-5.14,5.77c-1,.4-1.89.6-2.38,1.63a4.27,4.27,0,0,0,.28,3.84c.86,1.19,2.09,1,3.38.94a20.63,20.63,0,0,1,5.2.38,21.81,21.81,0,0,1,9,4.13,24,24,0,0,1,8.69,15.47c.28,1.9,3.17,1.09,2.89-.8-1.74-11.81-11.34-21.47-23.45-22.17a20.3,20.3,0,0,0-2.34,0,5.42,5.42,0,0,0-1.06.09c-.82.25.23-.1.14.22,0-.07-.06-.9-.21-.6,0-.08.33-.12.4-.15a13.28,13.28,0,0,0,2-1,14.22,14.22,0,0,0,5.29-6.43c2.4-5.65,1.32-12.25-1.42-17.57a17.85,17.85,0,0,0-12.95-9.82c-6.13-1-12.18,1-17.25,4.45q-1.82,1.23-3.5,2.63c-.4.33-1.09,1.17-1.57,1.34-.72.27-.09.25-.36.1s-.3-1-.37-1.22a30.44,30.44,0,0,0-4.29-8.13,28.88,28.88,0,0,0-14-10.51A25.94,25.94,0,0,0,144.93,124a26.7,26.7,0,0,0-12.48,13c-.79,1.75,1.79,3.28,2.59,1.52Z"/><path class="cls-2" d="M33.75,230.31c0-.21,0-.42,0-.63.06-1.16.19-2.39.37-3.66,5.16-37.37,56.26-16.94,56.26-16.94s27.46,6.09,30.93-8c3,6.74,18.47,34.1,38.9,3-.52,15,28.81,27.52,35.14-.59-.68,19.62,33.3,24.2,42.62,1.38s-11.9-37.36-24.76-35.75c23.32-11.37-.44-56-30.3-27.56-.92-16.49-33.08-33.42-50.36-7.42-4.26-14.33-42.93-23.63-45.09,12.69C83.4,136.35,47.41,128,55.17,165.75c-6.35-10.59-39.79.74-25.1,32.11-5.68,4.43-10.64,21.76,2.71,31.77"/></g><g id="Layer_5" data-name="Layer 5"><path class="cls-7" d="M262.73,147.83a1.52,1.52,0,0,1-1.16,1.33c-.87.2-1.93.14-1.77-1.49.22-2.5,1.71-7.72-5.94-9.17a1.53,1.53,0,0,0-1.81,1.67c.61,5,1.57,13.3,1.8,15.28a1.54,1.54,0,0,1-.15.87c-.93,1.8-5,8.58-12.68,5.4a13.76,13.76,0,0,1-1.35-.65l-.12-.06a1.45,1.45,0,0,1-.57-.58,6.09,6.09,0,0,1-.6-4.37l0-.13a8.44,8.44,0,0,1,5.12-5.38,11.83,11.83,0,0,1,5.19-.9,1.54,1.54,0,0,0,1.35-.66h0a1.54,1.54,0,0,0,.24-1.06l-.08-.49-.21-1.5v0l-2.41-16.64-.11-.71a1.47,1.47,0,0,1,.67-1.48.84.84,0,0,1,.31-.12,1.19,1.19,0,0,1,1.07.4,3.63,3.63,0,0,1,.56.7c1.57,2.41,6.22,6.13,10.11,7.89a1.23,1.23,0,0,1,.36.23C263.37,138.66,263,145.35,262.73,147.83Z"/><path class="cls-1" d="M250.26,150.34c-1,.65-2.24.52-3.34.59-2.63.17-5.35,1.23-6.78,3.55-1.21,2-1.14,4.85.83,6.35a.59.59,0,0,1,.05.89,13.76,13.76,0,0,1-1.35-.65,5.79,5.79,0,0,1-1.29-5l0-.13a6.07,6.07,0,0,1,.7-1.81,8.25,8.25,0,0,1,4.42-3.57,10.93,10.93,0,0,1,2.38-.6c.68-.09,1.36-.11,2-.14a3.51,3.51,0,0,0,1.66-.34,1.18,1.18,0,0,0,.46-.48h0a2.22,2.22,0,0,0,.2-1.12c0-.14,0-.29,0-.43,0-.5-.13-1-.21-1.5v0c0-.09,0-.18,0-.28-.51-3.35-1-6.69-1.52-10-.25-1.66-.52-3.32-.76-5a8.54,8.54,0,0,1-.09-1.34,3.15,3.15,0,0,1,.87-2.31,1.19,1.19,0,0,1,1.07.4.56.56,0,0,1-.2.26,2.33,2.33,0,0,0-.67,2.15c.07.9.25,1.8.39,2.69q.41,2.66.8,5.33c.48,3.1,1,6.21,1.42,9.32C251.43,148.29,251.36,149.61,250.26,150.34Z"/><path class="cls-8" d="M262.73,147.83a1.52,1.52,0,0,1-1.16,1.33c-.87.2-1.93.14-1.77-1.49.22-2.5,1.71-7.72-5.94-9.17a1.53,1.53,0,0,0-1.81,1.67c.61,5,1.57,13.3,1.8,15.28a1.54,1.54,0,0,1-.15.87c-.93,1.8-5,8.58-12.68,5.4a13.76,13.76,0,0,1-1.35-.65l-.12-.06a1.45,1.45,0,0,1-.57-.58,6.09,6.09,0,0,1-.6-4.37l0-.13a8.44,8.44,0,0,1,5.12-5.38,11.83,11.83,0,0,1,5.19-.9,1.54,1.54,0,0,0,1.35-.66h0a1.54,1.54,0,0,0,.24-1.06l-.08-.49-.21-1.5v0l-2.41-16.64-.11-.71a1.47,1.47,0,0,1,.67-1.48.84.84,0,0,1,.31-.12,1.19,1.19,0,0,1,1.07.4,3.63,3.63,0,0,1,.56.7c1.57,2.41,6.22,6.13,10.11,7.89a1.23,1.23,0,0,1,.36.23C263.37,138.66,263,145.35,262.73,147.83Z"/><path class="cls-7" d="M256.16,85.65a2.36,2.36,0,0,1-1.67,2.11c-1.25.33-2.78.23-2.56-2.37.33-4,2.47-12.32-8.55-14.63a2.31,2.31,0,0,0-2.6,2.67c.87,8,2.26,21.21,2.59,24.38a2.52,2.52,0,0,1-.22,1.38c-1.34,2.88-7.23,13.68-18.25,8.62-.63-.3-1.28-.64-2-1l-.17-.1a2.24,2.24,0,0,1-.83-.92,10.73,10.73,0,0,1-.86-7,.8.8,0,0,1,0-.21A13,13,0,0,1,228.51,90,15.66,15.66,0,0,1,236,88.55a2.14,2.14,0,0,0,1.94-1.06h0a2.6,2.6,0,0,0,.35-1.69l-.11-.78-.31-2.4v-.06L234.36,56l-.15-1.13a2.46,2.46,0,0,1,1-2.37,1.25,1.25,0,0,1,.46-.19,1.6,1.6,0,0,1,1.53.64,5.61,5.61,0,0,1,.81,1.12c2.26,3.85,9,9.78,14.56,12.58a1.86,1.86,0,0,1,.52.36C257.09,71,256.53,81.69,256.16,85.65Z"/><path class="cls-1" d="M238.19,89.66c-1.4,1-3.21.82-4.81.93-3.77.27-7.69,2-9.75,5.67-1.75,3.16-1.64,7.73,1.2,10.13a1,1,0,0,1,.07,1.42c-.63-.3-1.28-.64-2-1a10,10,0,0,1-1.86-8,.8.8,0,0,1,0-.21,10.66,10.66,0,0,1,1-2.89,12.17,12.17,0,0,1,6.37-5.7,14.69,14.69,0,0,1,3.43-1,28.86,28.86,0,0,1,2.94-.22,4.61,4.61,0,0,0,2.38-.55,1.8,1.8,0,0,0,.66-.77h0a3.8,3.8,0,0,0,.29-1.79c0-.22,0-.45-.05-.68-.06-.8-.19-1.6-.31-2.4v-.06l-.06-.44-2.19-16c-.36-2.65-.74-5.29-1.09-7.94a15.28,15.28,0,0,1-.14-2.14,5.39,5.39,0,0,1,1.27-3.69,1.6,1.6,0,0,1,1.53.64.8.8,0,0,1-.29.42c-1,.77-1,2.23-1,3.42.11,1.43.36,2.87.56,4.29q.59,4.25,1.16,8.51c.68,5,1.43,9.9,2,14.87C239.89,86.38,239.79,88.48,238.19,89.66Z"/><path class="cls-8" d="M256.16,85.65a2.36,2.36,0,0,1-1.67,2.11c-1.25.33-2.78.23-2.56-2.37.33-4,2.47-12.32-8.55-14.63a2.31,2.31,0,0,0-2.6,2.67c.87,8,2.26,21.21,2.59,24.38a2.52,2.52,0,0,1-.22,1.38c-1.34,2.88-7.23,13.68-18.25,8.62-.63-.3-1.28-.64-2-1l-.17-.1a2.24,2.24,0,0,1-.83-.92,10.73,10.73,0,0,1-.86-7,.8.8,0,0,1,0-.21A13,13,0,0,1,228.51,90,15.66,15.66,0,0,1,236,88.55a2.14,2.14,0,0,0,1.94-1.06h0a2.6,2.6,0,0,0,.35-1.69l-.11-.78-.31-2.4v-.06L234.36,56l-.15-1.13a2.46,2.46,0,0,1,1-2.37,1.25,1.25,0,0,1,.46-.19,1.6,1.6,0,0,1,1.53.64,5.61,5.61,0,0,1,.81,1.12c2.26,3.85,9,9.78,14.56,12.58a1.86,1.86,0,0,1,.52.36C257.09,71,256.53,81.69,256.16,85.65Z"/></g></g></svg>