<svg xmlns="http://www.w3.org/2000/svg" viewBox="0 0 1737 1737"><defs><style>.cls-1{fill:#8f88f5;}.cls-2{fill:#ffda7a;}.cls-3{fill:#f579b4;}.cls-4{fill:#74f2d7;}.cls-5{fill:#fdbd9a;}.cls-6{fill:#221f1f;}.cls-7{fill:#6a6bc2;}.cls-8{fill:#f4f4f4;}.cls-9{fill:#f8e991;}.cls-10{fill:#f7997d;}.cls-11{fill:#a3fbe2;}.cls-12{fill:none;stroke:#221f1f;stroke-linecap:round;stroke-linejoin:round;stroke-width:10px;}</style></defs><g id="Layer_2" data-name="Layer 2"><g id="Layer_5" data-name="Layer 5"><rect class="cls-1" width="1737" height="1737" rx="868.5"/><path class="cls-2" d="M1318.46,1282.73c7.74,6.88,10,18.15,9.42,28.49-.08,1.08-.16,2.16-.29,3.24a65.63,65.63,0,0,1-43.86,54.89,53.18,53.18,0,0,1-21.75,3c-17.68-1.54-33.78-14.81-38.66-31.9a44.25,44.25,0,0,1,.66-25.53,175.71,175.71,0,0,0,42,7.6,27.82,27.82,0,0,0,2.94-5.55c2.77-7.25,2.42-15.25,3.57-22.93s4.56-15.88,11.67-18.93c4.69-2,10.06-1.39,15.07-.42C1306.12,1276,1313.19,1278.05,1318.46,1282.73Z"/><path class="cls-3" d="M958.5,1175v0c-7.44,34.59-34.32,63-65.1,81-64,37.49-148.95,34.78-211.44-4.69a213.35,213.35,0,0,1,22.59-24.17,251.21,251.21,0,0,1,254-52.15Z"/><path class="cls-4" d="M561.27,512.48A1215.69,1215.69,0,0,0,398,949.66c-14.48-16.75-25.42-37.17-32.94-58-27.75-77-14.41-166.8,31.65-234.09-22-24.44-43.37-49.6-60.05-77.9-20.29-34.41-33.46-74.27-29.84-114,7.32-80.47,83.62-141.85,163.34-155,66.9-11.09,134.78,4.89,198.47,29.79a141,141,0,0,1-.54-78.85c12-41.32,44.29-76.2,84.54-91.42,63.71-24.07,135.22,1.12,194.87,34a781.13,781.13,0,0,1,258.67,230.83l-4.38-93.71c-1.27-27.43-2.35-56,8.72-81.12,9-20.35,26.43-37.41,47.86-43.43s46.45.22,60.75,17.26c14.78,17.62,16.34,42.63,15.15,65.61a388.62,388.62,0,0,1-40.49,153.14l31.18-12.74C1339.36,434,1354,428,1369.4,425.73s32-.6,45.1,7.89,21.79,24.62,18.6,39.88c-2.54,12.12-11.92,21.91-22.75,27.91s-23.11,8.76-35.18,11.46l-48.67,10.86c29.51,23.76,58.44,48.34,82.94,77.15,29.12,34.26,51.91,75.29,57.53,119.89,8.44,66.93-21.92,132-51.5,192.58q-29.51,60.46-59,121a135.57,135.57,0,0,0-32.33-12.9c-29-7.36-60.1-5.08-88,5.63C1202,980,1189.81,918.16,1193.27,859.49c3.17-53.81,18.08-106,35.24-157.26a140.49,140.49,0,0,1-111.43-135.77,312.17,312.17,0,0,1-191.73-40c-65.09,26.38-138.64,31-208.83,22.37C663.66,542.3,612.12,528.69,561.27,512.48Z"/><path class="cls-5" d="M1434.93,1158.82c3,63-36.84,125.27-94.49,150.68-4.21,1.85-8.5,3.52-12.85,5,.13-1.08.21-2.16.29-3.24.61-10.34-1.68-21.61-9.42-28.49-5.27-4.68-12.34-6.72-19.27-8.06-5-1-10.38-1.6-15.07.42-7.11,3.05-10.53,11.26-11.67,18.93s-.8,15.68-3.57,22.93a27.82,27.82,0,0,1-2.94,5.55,175.71,175.71,0,0,1-42-7.6c-.77-.23-1.53-.48-2.29-.73a616.77,616.77,0,0,1-37.48,55.66c-58.78,77.82-135.82,141-226.32,176.58-149.8,58.94-335.4,32.16-448.4-82.5-2.16-2.19-4.29-4.41-6.36-6.65-49.12-52.37-80.56-116.58-98.66-186-23.86-91.51-24.52-192-11.83-286.27q1.08-7.95,2.25-15.91,1.46-9.74,3.06-19.45A1215.69,1215.69,0,0,1,561.27,512.48c50.85,16.21,102.39,29.82,155.25,36.36,70.19,8.68,143.74,4,208.83-22.37a312.17,312.17,0,0,0,191.73,40,140.49,140.49,0,0,0,111.43,135.77c-17.16,51.31-32.07,103.45-35.24,157.26C1189.81,918.16,1202,980,1236.19,1027c27.85-10.71,59-13,88-5.63a135.57,135.57,0,0,1,32.33,12.9C1401,1059,1432.49,1107.56,1434.93,1158.82Zm-381-266.69a52.54,52.54,0,1,0-15.39,37.19A52.45,52.45,0,0,0,1053.91,892.13Zm-94.37,277.22c3.14-20.75-1-41.4-9.73-60.5-8.63-18.9-21.73-36.26-36.67-50.68-44.91-43.33-108.16-67-170.49-63.8a227.84,227.84,0,0,0-72.35,16l-.89.37c-59.28,23.89-87.38,92.17-62.4,151,12.41,29.22,31.37,55.61,55.93,75.84a184.88,184.88,0,0,0,19,13.72c62.49,39.47,147.4,42.18,211.44,4.69,30.78-18,57.66-46.4,65.1-81v0C958.91,1173.11,959.25,1171.24,959.54,1169.35ZM607,879a52.56,52.56,0,1,0-15.39,37.18A52.44,52.44,0,0,0,607,879Z"/><path class="cls-6" d="M1038.52,855a52.61,52.61,0,1,1-37.18-15.39A52.45,52.45,0,0,1,1038.52,855Z"/><path class="cls-7" d="M949.81,1108.85c8.72,19.1,12.87,39.75,9.73,60.5-.29,1.89-.63,3.76-1,5.61a251.21,251.21,0,0,0-254,52.15A213.35,213.35,0,0,0,682,1251.28a184.88,184.88,0,0,1-19-13.72c-24.56-20.23-43.52-46.62-55.93-75.84-25-58.84,3.12-127.12,62.4-151l.89-.37a170.41,170.41,0,0,0,2.91,22.52c3.81,18.8,12,37.26,26.08,50.24,24.16,22.23,60.08,24.35,92.9,25Q871,1109.61,949.81,1108.85Z"/><path class="cls-8" d="M913.14,1058.17c14.94,14.42,28,31.78,36.67,50.68q-78.81.76-157.62-.76c-32.82-.64-68.74-2.76-92.9-25-14.12-13-22.27-31.44-26.08-50.24a170.41,170.41,0,0,1-2.91-22.52,227.84,227.84,0,0,1,72.35-16C805,991.18,868.23,1014.84,913.14,1058.17Z"/><path class="cls-6" d="M591.63,841.81a52.62,52.62,0,1,1-37.18-15.39A52.44,52.44,0,0,1,591.63,841.81Z"/><path class="cls-5" d="M394.89,969.11q-1.18,8-2.25,15.91c-12.69,94.24-12,194.76,11.83,286.27-42.57-5-83.17-28-108.08-63.06-32.18-45.21-36.86-108.48-11.7-157.94C306.13,1008.11,348.48,977.57,394.89,969.11Z"/><path class="cls-9" d="M1325.1,1308.55c-.07,1.08-.16,2.16-.29,3.24a65.63,65.63,0,0,1-43.86,54.88,52.8,52.8,0,0,1-21.74,3,43.35,43.35,0,0,1-21.28-8,42.14,42.14,0,0,0,8.13,1.55,53,53,0,0,0,21.75-3,65.63,65.63,0,0,0,43.86-54.88c.13-1.08.22-2.16.29-3.24.61-10.34-1.68-21.62-9.42-28.5-.13-.11-.26-.23-.4-.33,5,1.36,9.73,3.36,13.54,6.74C1323.42,1286.93,1325.72,1298.21,1325.1,1308.55Z"/><path class="cls-10" d="M1144.6,651.83c-19.8-24.36-30.84-55.55-31.43-86.89a312.14,312.14,0,0,1-191.72-40c-65.09,26.38-138.64,31-208.83,22.38-52.87-6.55-104.41-20.16-155.26-36.37q-22.08,35.93-41.62,73.36c46.7,14,94,25.5,142.35,31.49,75.52,9.33,154.64,4.3,224.67-24.07a335.89,335.89,0,0,0,206.29,43c.63,33.72,12.5,67.28,33.81,93.49A153.57,153.57,0,0,0,1201.59,779c6.29-26.37,14.37-52.44,23-78.3A143.26,143.26,0,0,1,1144.6,651.83Z"/><path class="cls-11" d="M930.59,194.18c-38.33-9.84-77.56-11.33-114.35,2.57-43,16.26-77.46,53.51-90.3,97.65a150.74,150.74,0,0,0,.59,84.21c-68-26.6-140.52-43.67-212-31.83-85.13,14.1-166.62,79.66-174.43,165.6-3.13,34.4,5.49,68.82,20.37,100.2a346.36,346.36,0,0,1-22.43-33.18c-20.29-34.41-33.46-74.26-29.84-114,7.32-80.47,83.62-141.86,163.34-155.06,66.9-11.08,134.78,4.89,198.47,29.79a141,141,0,0,1-.54-78.84c12-41.32,44.29-76.21,84.54-91.43C811.35,148.18,875,166.39,930.59,194.18Z"/><path class="cls-11" d="M1318.41,232.36l.08.09a4.48,4.48,0,0,1-4,7.26,62,62,0,0,0-24.93,1.67c-21.42,6-38.88,23.08-47.86,43.44-11.07,25.12-21.84,45.16-21.89,72.62,0,17.8-1.23,13.19,0,39.43.21,4.44,2.64,16.72,0,13.15-7.4-10-5.29,35.91-13.14,26.28-.61-.74-1.94-19.84-2-20.8q-1.77-37.94-3.55-75.86c-1.27-27.43-2.35-56,8.72-81.11,9-20.36,26.43-37.42,47.86-43.43S1304.12,215.31,1318.41,232.36Z"/><path class="cls-10" d="M397.68,969q-1.19,7.95-2.25,15.9c-.59,4.33-1.14,8.65-1.65,13-33.08,16.47-61.17,43.16-77.92,76.13-23.61,46.43-24,103.62-2.6,150.94a141.82,141.82,0,0,1-14.09-16.85c-32.17-45.22-36.86-108.49-11.7-157.95C308.91,1008,351.26,977.42,397.68,969Z"/><path class="cls-12" d="M1221.69,1314.17a616.77,616.77,0,0,1-37.48,55.66c-58.78,77.82-135.82,141-226.32,176.58-149.8,58.94-335.4,32.16-448.4-82.5-2.16-2.19-4.29-4.41-6.36-6.65-49.12-52.37-80.56-116.58-98.66-186-23.86-91.51-24.52-192-11.83-286.27q1.08-7.95,2.25-15.91,1.46-9.74,3.06-19.45A1215.69,1215.69,0,0,1,561.27,512.48"/><path class="cls-12" d="M958.5,1175c.41-1.85.75-3.72,1-5.61,3.14-20.75-1-41.4-9.73-60.5-8.63-18.9-21.73-36.26-36.67-50.68-44.91-43.33-108.16-67-170.49-63.8a227.84,227.84,0,0,0-72.35,16l-.89.37c-59.28,23.89-87.38,92.17-62.4,151,12.41,29.22,31.37,55.61,55.93,75.84a184.88,184.88,0,0,0,19,13.72c62.49,39.47,147.4,42.18,211.44,4.69,30.78-18,57.66-46.4,65.1-81"/><path class="cls-12" d="M682,1251.28a213.35,213.35,0,0,1,22.59-24.17,251.21,251.21,0,0,1,254-52.15v0"/><path class="cls-12" d="M670.3,1010.34a170.41,170.41,0,0,0,2.91,22.52c3.81,18.8,12,37.26,26.08,50.24,24.16,22.23,60.08,24.35,92.9,25q78.79,1.52,157.62.76"/><path class="cls-12" d="M1265.94,1322.5a175.71,175.71,0,0,1-42-7.6c-.77-.23-1.53-.48-2.29-.73"/><path class="cls-12" d="M1236.19,1027c27.85-10.71,59-13,88-5.63a135.57,135.57,0,0,1,32.33,12.9c44.57,24.66,76,73.25,78.46,124.51,3,63-36.84,125.27-94.49,150.68-4.21,1.85-8.5,3.52-12.85,5"/><path class="cls-12" d="M394.89,969.11c-46.41,8.46-88.76,39-110.2,81.18-25.16,49.46-20.48,112.73,11.7,157.94,24.91,35,65.51,58,108.08,63.06"/><path class="cls-12" d="M396.66,657.52C350.6,724.81,337.26,814.6,365,891.61c7.52,20.88,18.46,41.3,32.94,58"/><path class="cls-12" d="M396.66,657.52c-22-24.44-43.37-49.6-60.05-77.9-20.29-34.41-33.46-74.27-29.84-114,7.32-80.47,83.62-141.85,163.34-155,66.9-11.09,134.78,4.89,198.47,29.79"/><path class="cls-12" d="M668.58,340.31a141,141,0,0,1-.54-78.85c12-41.32,44.29-76.2,84.54-91.42,63.71-24.07,135.22,1.12,194.87,34a781.13,781.13,0,0,1,258.67,230.83"/><path class="cls-12" d="M1206.12,434.84l-4.38-93.71c-1.27-27.43-2.35-56,8.72-81.12,9-20.35,26.43-37.41,47.86-43.43s46.45.22,60.75,17.26c14.78,17.62,16.34,42.63,15.15,65.61a388.62,388.62,0,0,1-40.49,153.14"/><path class="cls-12" d="M1293.73,452.59l31.18-12.74C1339.36,434,1354,428,1369.4,425.73s32-.6,45.1,7.89,21.79,24.62,18.6,39.88c-2.54,12.12-11.92,21.91-22.75,27.91s-23.11,8.76-35.18,11.46l-48.67,10.86"/><path class="cls-12" d="M1326.5,523.73c29.51,23.76,58.44,48.34,82.94,77.15,29.12,34.26,51.91,75.29,57.53,119.89,8.44,66.93-21.92,132-51.5,192.58q-29.51,60.46-59,121"/><path class="cls-12" d="M561.27,512.48c50.85,16.21,102.39,29.82,155.25,36.36,70.19,8.68,143.74,4,208.83-22.37"/><path class="cls-12" d="M925.35,526.47a312.17,312.17,0,0,0,191.73,40"/><path class="cls-12" d="M1117.08,566.46a140.49,140.49,0,0,0,111.43,135.77"/><path class="cls-12" d="M1236.19,1027C1202,980,1189.81,918.16,1193.27,859.49c3.17-53.81,18.08-106,35.24-157.26"/><path class="cls-12" d="M1224,1314.9a44.25,44.25,0,0,0-.66,25.53c4.88,17.09,21,30.36,38.66,31.9a53.18,53.18,0,0,0,21.75-3,65.63,65.63,0,0,0,43.86-54.89c.13-1.08.21-2.16.29-3.24.61-10.34-1.68-21.61-9.42-28.49-5.27-4.68-12.34-6.72-19.27-8.06-5-1-10.38-1.6-15.07.42-7.11,3.05-10.53,11.26-11.67,18.93s-.8,15.68-3.57,22.93a27.82,27.82,0,0,1-2.94,5.55"/><path class="cls-10" d="M1297.67,1224.94s-45.42-26.29-27.25-78.86,54.49-26.29,54.49-26.29-45.41,13.14-45.41,52.57S1297.67,1224.94,1297.67,1224.94Z"/><path class="cls-12" d="M1336.4,1113c-29.94-8.15-64.58,12-72.36,42s12.74,64.42,42.87,71.84"/></g></g></svg>